<svg xmlns="http://www.w3.org/2000/svg" width="955" height="745" viewBox="0 0 955 745" font-family="ui-monospace, SFMono-Regular, &quot;Cascadia Mono&quot;, Menlo, Consolas, monospace" role="img" aria-labelledby="tp-title tp-desc">
<title id="tp-title">TurtlePen MCP — Native Lattice Mark</title>
<desc id="tp-desc">24 diagram elements across 8 visible page(s)</desc>
<metadata>{"schema":3,"name":"TurtlePen MCP — Native Lattice Mark","view":null,"elements":24}</metadata>
<style>
  .bg { fill: #f4f3ef; }
  .grid { stroke: #dedbd3; stroke-width: 0.5; }
  .grid-major { stroke: #cbc7bd; stroke-width: 0.5; }
  .box { fill: #e9e7e1; stroke: #2b2a26; stroke-width: 1; }
  .box-label, .key-title, .key-label { fill: #2b2a26; }
  .stroke { fill: #2b2a26; }
  .hop { stroke: #2b2a26; }
  .free-text { fill: #6b6862; }
  .hit-S0 { fill: #8a5b56; opacity: 0.30; }
  .hit-S1 { fill: #96755c; opacity: 0.28; }
  .hit-S2 { fill: #87805a; opacity: 0.24; }
  .hit-S3 { fill: #4a6572; opacity: 0.20; }
  .dimmed { fill: url(#tp-stipple); }
  .dither-run { fill: #2b2a26; }
  .simplify-run { fill: #2b2a26; }
  @media (prefers-color-scheme: dark) {
    .bg { fill: #1a1917; }
    .grid { stroke: #2e2c28; }
    .grid-major { stroke: #3d3a35; }
    .box { fill: #232220; stroke: #dedbd3; }
    .box-label { fill: #dedbd3; }
    .free-text { fill: #9a968d; }
    .stroke { fill: #dedbd3; }
    .hop { stroke: #dedbd3; }
  }

</style>
<defs>

  <!-- Grey earned by pattern rather than assumed. The stipple is drawn at the
       5px quadrant so a dimmed element is made of the same units as every
       other mark on the page. -->
  <pattern id="tp-stipple" width="10" height="10" patternUnits="userSpaceOnUse">
    <rect width="5" height="5" fill="#2b2a26"/>
    <rect x="5" y="5" width="5" height="5" fill="#2b2a26"/>
  </pattern>
</defs>
<rect class="bg" x="0" y="0" width="955" height="745"/>
<g transform="translate(-205,-215)"><line class="grid" x1="180" y1="195" x2="180" y2="980"/><line class="grid" x1="190" y1="195" x2="190" y2="980"/><line class="grid-major" x1="200" y1="195" x2="200" y2="980"/><line class="grid" x1="210" y1="195" x2="210" y2="980"/><line class="grid" x1="220" y1="195" x2="220" y2="980"/><line class="grid" x1="230" y1="195" x2="230" y2="980"/><line class="grid" x1="240" y1="195" x2="240" y2="980"/><line class="grid" x1="250" y1="195" x2="250" y2="980"/><line class="grid" x1="260" y1="195" x2="260" y2="980"/><line class="grid" x1="270" y1="195" x2="270" y2="980"/><line class="grid" x1="280" y1="195" x2="280" y2="980"/><line class="grid" x1="290" y1="195" x2="290" y2="980"/><line class="grid-major" x1="300" y1="195" x2="300" y2="980"/><line class="grid" x1="310" y1="195" x2="310" y2="980"/><line class="grid" x1="320" y1="195" x2="320" y2="980"/><line class="grid" x1="330" y1="195" x2="330" y2="980"/><line class="grid" x1="340" y1="195" x2="340" y2="980"/><line class="grid" x1="350" y1="195" x2="350" y2="980"/><line class="grid" x1="360" y1="195" x2="360" y2="980"/><line class="grid" x1="370" y1="195" x2="370" y2="980"/><line class="grid" x1="380" y1="195" x2="380" y2="980"/><line class="grid" x1="390" y1="195" x2="390" y2="980"/><line class="grid-major" x1="400" y1="195" x2="400" y2="980"/><line class="grid" x1="410" y1="195" x2="410" y2="980"/><line class="grid" x1="420" y1="195" x2="420" y2="980"/><line class="grid" x1="430" y1="195" x2="430" y2="980"/><line class="grid" x1="440" y1="195" x2="440" y2="980"/><line class="grid" x1="450" y1="195" x2="450" y2="980"/><line class="grid" x1="460" y1="195" x2="460" y2="980"/><line class="grid" x1="470" y1="195" x2="470" y2="980"/><line class="grid" x1="480" y1="195" x2="480" y2="980"/><line class="grid" x1="490" y1="195" x2="490" y2="980"/><line class="grid-major" x1="500" y1="195" x2="500" y2="980"/><line class="grid" x1="510" y1="195" x2="510" y2="980"/><line class="grid" x1="520" y1="195" x2="520" y2="980"/><line class="grid" x1="530" y1="195" x2="530" y2="980"/><line class="grid" x1="540" y1="195" x2="540" y2="980"/><line class="grid" x1="550" y1="195" x2="550" y2="980"/><line class="grid" x1="560" y1="195" x2="560" y2="980"/><line class="grid" x1="570" y1="195" x2="570" y2="980"/><line class="grid" x1="580" y1="195" x2="580" y2="980"/><line class="grid" x1="590" y1="195" x2="590" y2="980"/><line class="grid-major" x1="600" y1="195" x2="600" y2="980"/><line class="grid" x1="610" y1="195" x2="610" y2="980"/><line class="grid" x1="620" y1="195" x2="620" y2="980"/><line class="grid" x1="630" y1="195" x2="630" y2="980"/><line class="grid" x1="640" y1="195" x2="640" y2="980"/><line class="grid" x1="650" y1="195" x2="650" y2="980"/><line class="grid" x1="660" y1="195" x2="660" y2="980"/><line class="grid" x1="670" y1="195" x2="670" y2="980"/><line class="grid" x1="680" y1="195" x2="680" y2="980"/><line class="grid" x1="690" y1="195" x2="690" y2="980"/><line class="grid-major" x1="700" y1="195" x2="700" y2="980"/><line class="grid" x1="710" y1="195" x2="710" y2="980"/><line class="grid" x1="720" y1="195" x2="720" y2="980"/><line class="grid" x1="730" y1="195" x2="730" y2="980"/><line class="grid" x1="740" y1="195" x2="740" y2="980"/><line class="grid" x1="750" y1="195" x2="750" y2="980"/><line class="grid" x1="760" y1="195" x2="760" y2="980"/><line class="grid" x1="770" y1="195" x2="770" y2="980"/><line class="grid" x1="780" y1="195" x2="780" y2="980"/><line class="grid" x1="790" y1="195" x2="790" y2="980"/><line class="grid-major" x1="800" y1="195" x2="800" y2="980"/><line class="grid" x1="810" y1="195" x2="810" y2="980"/><line class="grid" x1="820" y1="195" x2="820" y2="980"/><line class="grid" x1="830" y1="195" x2="830" y2="980"/><line class="grid" x1="840" y1="195" x2="840" y2="980"/><line class="grid" x1="850" y1="195" x2="850" y2="980"/><line class="grid" x1="860" y1="195" x2="860" y2="980"/><line class="grid" x1="870" y1="195" x2="870" y2="980"/><line class="grid" x1="880" y1="195" x2="880" y2="980"/><line class="grid" x1="890" y1="195" x2="890" y2="980"/><line class="grid-major" x1="900" y1="195" x2="900" y2="980"/><line class="grid" x1="910" y1="195" x2="910" y2="980"/><line class="grid" x1="920" y1="195" x2="920" y2="980"/><line class="grid" x1="930" y1="195" x2="930" y2="980"/><line class="grid" x1="940" y1="195" x2="940" y2="980"/><line class="grid" x1="950" y1="195" x2="950" y2="980"/><line class="grid" x1="960" y1="195" x2="960" y2="980"/><line class="grid" x1="970" y1="195" x2="970" y2="980"/><line class="grid" x1="980" y1="195" x2="980" y2="980"/><line class="grid" x1="990" y1="195" x2="990" y2="980"/><line class="grid-major" x1="1000" y1="195" x2="1000" y2="980"/><line class="grid" x1="1010" y1="195" x2="1010" y2="980"/><line class="grid" x1="1020" y1="195" x2="1020" y2="980"/><line class="grid" x1="1030" y1="195" x2="1030" y2="980"/><line class="grid" x1="1040" y1="195" x2="1040" y2="980"/><line class="grid" x1="1050" y1="195" x2="1050" y2="980"/><line class="grid" x1="1060" y1="195" x2="1060" y2="980"/><line class="grid" x1="1070" y1="195" x2="1070" y2="980"/><line class="grid" x1="1080" y1="195" x2="1080" y2="980"/><line class="grid" x1="1090" y1="195" x2="1090" y2="980"/><line class="grid-major" x1="1100" y1="195" x2="1100" y2="980"/><line class="grid" x1="1110" y1="195" x2="1110" y2="980"/><line class="grid" x1="1120" y1="195" x2="1120" y2="980"/><line class="grid" x1="1130" y1="195" x2="1130" y2="980"/><line class="grid" x1="1140" y1="195" x2="1140" y2="980"/><line class="grid" x1="1150" y1="195" x2="1150" y2="980"/><line class="grid" x1="1160" y1="195" x2="1160" y2="980"/><line class="grid" x1="1170" y1="195" x2="1170" y2="980"/><line class="grid" x1="1180" y1="195" x2="1180" y2="980"/><line class="grid" x1="185" y1="190" x2="1180" y2="190"/><line class="grid-major" x1="185" y1="200" x2="1180" y2="200"/><line class="grid" x1="185" y1="210" x2="1180" y2="210"/><line class="grid" x1="185" y1="220" x2="1180" y2="220"/><line class="grid" x1="185" y1="230" x2="1180" y2="230"/><line class="grid" x1="185" y1="240" x2="1180" y2="240"/><line class="grid" x1="185" y1="250" x2="1180" y2="250"/><line class="grid" x1="185" y1="260" x2="1180" y2="260"/><line class="grid" x1="185" y1="270" x2="1180" y2="270"/><line class="grid" x1="185" y1="280" x2="1180" y2="280"/><line class="grid" x1="185" y1="290" x2="1180" y2="290"/><line class="grid-major" x1="185" y1="300" x2="1180" y2="300"/><line class="grid" x1="185" y1="310" x2="1180" y2="310"/><line class="grid" x1="185" y1="320" x2="1180" y2="320"/><line class="grid" x1="185" y1="330" x2="1180" y2="330"/><line class="grid" x1="185" y1="340" x2="1180" y2="340"/><line class="grid" x1="185" y1="350" x2="1180" y2="350"/><line class="grid" x1="185" y1="360" x2="1180" y2="360"/><line class="grid" x1="185" y1="370" x2="1180" y2="370"/><line class="grid" x1="185" y1="380" x2="1180" y2="380"/><line class="grid" x1="185" y1="390" x2="1180" y2="390"/><line class="grid-major" x1="185" y1="400" x2="1180" y2="400"/><line class="grid" x1="185" y1="410" x2="1180" y2="410"/><line class="grid" x1="185" y1="420" x2="1180" y2="420"/><line class="grid" x1="185" y1="430" x2="1180" y2="430"/><line class="grid" x1="185" y1="440" x2="1180" y2="440"/><line class="grid" x1="185" y1="450" x2="1180" y2="450"/><line class="grid" x1="185" y1="460" x2="1180" y2="460"/><line class="grid" x1="185" y1="470" x2="1180" y2="470"/><line class="grid" x1="185" y1="480" x2="1180" y2="480"/><line class="grid" x1="185" y1="490" x2="1180" y2="490"/><line class="grid-major" x1="185" y1="500" x2="1180" y2="500"/><line class="grid" x1="185" y1="510" x2="1180" y2="510"/><line class="grid" x1="185" y1="520" x2="1180" y2="520"/><line class="grid" x1="185" y1="530" x2="1180" y2="530"/><line class="grid" x1="185" y1="540" x2="1180" y2="540"/><line class="grid" x1="185" y1="550" x2="1180" y2="550"/><line class="grid" x1="185" y1="560" x2="1180" y2="560"/><line class="grid" x1="185" y1="570" x2="1180" y2="570"/><line class="grid" x1="185" y1="580" x2="1180" y2="580"/><line class="grid" x1="185" y1="590" x2="1180" y2="590"/><line class="grid-major" x1="185" y1="600" x2="1180" y2="600"/><line class="grid" x1="185" y1="610" x2="1180" y2="610"/><line class="grid" x1="185" y1="620" x2="1180" y2="620"/><line class="grid" x1="185" y1="630" x2="1180" y2="630"/><line class="grid" x1="185" y1="640" x2="1180" y2="640"/><line class="grid" x1="185" y1="650" x2="1180" y2="650"/><line class="grid" x1="185" y1="660" x2="1180" y2="660"/><line class="grid" x1="185" y1="670" x2="1180" y2="670"/><line class="grid" x1="185" y1="680" x2="1180" y2="680"/><line class="grid" x1="185" y1="690" x2="1180" y2="690"/><line class="grid-major" x1="185" y1="700" x2="1180" y2="700"/><line class="grid" x1="185" y1="710" x2="1180" y2="710"/><line class="grid" x1="185" y1="720" x2="1180" y2="720"/><line class="grid" x1="185" y1="730" x2="1180" y2="730"/><line class="grid" x1="185" y1="740" x2="1180" y2="740"/><line class="grid" x1="185" y1="750" x2="1180" y2="750"/><line class="grid" x1="185" y1="760" x2="1180" y2="760"/><line class="grid" x1="185" y1="770" x2="1180" y2="770"/><line class="grid" x1="185" y1="780" x2="1180" y2="780"/><line class="grid" x1="185" y1="790" x2="1180" y2="790"/><line class="grid-major" x1="185" y1="800" x2="1180" y2="800"/><line class="grid" x1="185" y1="810" x2="1180" y2="810"/><line class="grid" x1="185" y1="820" x2="1180" y2="820"/><line class="grid" x1="185" y1="830" x2="1180" y2="830"/><line class="grid" x1="185" y1="840" x2="1180" y2="840"/><line class="grid" x1="185" y1="850" x2="1180" y2="850"/><line class="grid" x1="185" y1="860" x2="1180" y2="860"/><line class="grid" x1="185" y1="870" x2="1180" y2="870"/><line class="grid" x1="185" y1="880" x2="1180" y2="880"/><line class="grid" x1="185" y1="890" x2="1180" y2="890"/><line class="grid-major" x1="185" y1="900" x2="1180" y2="900"/><line class="grid" x1="185" y1="910" x2="1180" y2="910"/><line class="grid" x1="185" y1="920" x2="1180" y2="920"/><line class="grid" x1="185" y1="930" x2="1180" y2="930"/><line class="grid" x1="185" y1="940" x2="1180" y2="940"/><line class="grid" x1="185" y1="950" x2="1180" y2="950"/><line class="grid" x1="185" y1="960" x2="1180" y2="960"/><line class="grid" x1="185" y1="970" x2="1180" y2="970"/><line class="grid" x1="185" y1="980" x2="1180" y2="980"/></g>
<g transform="translate(-205,-215)">
<g data-page="base" data-z="0" opacity="1">
<g data-element="turtle-silhouette" role="group" aria-label="path turtle-silhouette: Native turtle silhouette assembled with boolean union">
<g data-id="turtle-silhouette" data-kind="path" data-role="artwork" data-paint="cells"><rect x="565" y="235" width="5" height="5" fill="#0b1f33"/><rect x="525" y="240" width="85" height="5" fill="#0b1f33"/><rect x="510" y="245" width="115" height="5" fill="#0b1f33"/><rect x="500" y="250" width="135" height="5" fill="#0b1f33"/><rect x="485" y="255" width="165" height="5" fill="#0b1f33"/><rect x="480" y="260" width="175" height="5" fill="#0b1f33"/><rect x="470" y="265" width="195" height="5" fill="#0b1f33"/><rect x="465" y="270" width="205" height="5" fill="#0b1f33"/><rect x="460" y="275" width="215" height="5" fill="#0b1f33"/><rect x="450" y="280" width="235" height="5" fill="#0b1f33"/><rect x="445" y="285" width="245" height="5" fill="#0b1f33"/><rect x="440" y="290" width="255" height="5" fill="#0b1f33"/><rect x="440" y="295" width="255" height="5" fill="#0b1f33"/><rect x="435" y="300" width="265" height="5" fill="#0b1f33"/><rect x="430" y="305" width="275" height="5" fill="#0b1f33"/><rect x="425" y="310" width="285" height="5" fill="#0b1f33"/><rect x="425" y="315" width="285" height="5" fill="#0b1f33"/><rect x="420" y="320" width="295" height="5" fill="#0b1f33"/><rect x="415" y="325" width="305" height="5" fill="#0b1f33"/><rect x="415" y="330" width="305" height="5" fill="#0b1f33"/><rect x="335" y="335" width="5" height="5" fill="#0b1f33"/><rect x="415" y="335" width="305" height="5" fill="#0b1f33"/><rect x="325" y="340" width="15" height="5" fill="#0b1f33"/><rect x="410" y="340" width="315" height="5" fill="#0b1f33"/><rect x="320" y="345" width="5" height="5" fill="#0b1f33"/><rect x="335" y="345" width="5" height="5" fill="#0b1f33"/><rect x="410" y="345" width="315" height="5" fill="#0b1f33"/><rect x="310" y="350" width="10" height="5" fill="#0b1f33"/><rect x="335" y="350" width="5" height="5" fill="#0b1f33"/><rect x="405" y="350" width="325" height="5" fill="#0b1f33"/><rect x="865" y="350" width="5" height="5" fill="#0b1f33"/><rect x="300" y="355" width="10" height="5" fill="#0b1f33"/><rect x="335" y="355" width="5" height="5" fill="#0b1f33"/><rect x="405" y="355" width="325" height="5" fill="#0b1f33"/><rect x="845" y="355" width="45" height="5" fill="#0b1f33"/><rect x="295" y="360" width="5" height="5" fill="#0b1f33"/><rect x="335" y="360" width="5" height="5" fill="#0b1f33"/><rect x="405" y="360" width="325" height="5" fill="#0b1f33"/><rect x="835" y="360" width="65" height="5" fill="#0b1f33"/><rect x="285" y="365" width="10" height="5" fill="#0b1f33"/><rect x="335" y="365" width="5" height="5" fill="#0b1f33"/><rect x="400" y="365" width="335" height="5" fill="#0b1f33"/><rect x="830" y="365" width="75" height="5" fill="#0b1f33"/><rect x="280" y="370" width="5" height="5" fill="#0b1f33"/><rect x="335" y="370" width="5" height="5" fill="#0b1f33"/><rect x="400" y="370" width="335" height="5" fill="#0b1f33"/><rect x="825" y="370" width="85" height="5" fill="#0b1f33"/><rect x="270" y="375" width="10" height="5" fill="#0b1f33"/><rect x="335" y="375" width="5" height="5" fill="#0b1f33"/><rect x="400" y="375" width="335" height="5" fill="#0b1f33"/><rect x="820" y="375" width="95" height="5" fill="#0b1f33"/><rect x="265" y="380" width="5" height="5" fill="#0b1f33"/><rect x="335" y="380" width="5" height="5" fill="#0b1f33"/><rect x="400" y="380" width="335" height="5" fill="#0b1f33"/><rect x="820" y="380" width="95" height="5" fill="#0b1f33"/><rect x="255" y="385" width="10" height="5" fill="#0b1f33"/><rect x="335" y="385" width="5" height="5" fill="#0b1f33"/><rect x="400" y="385" width="335" height="5" fill="#0b1f33"/><rect x="815" y="385" width="105" height="5" fill="#0b1f33"/><rect x="245" y="390" width="10" height="5" fill="#0b1f33"/><rect x="335" y="390" width="5" height="5" fill="#0b1f33"/><rect x="400" y="390" width="335" height="5" fill="#0b1f33"/><rect x="815" y="390" width="105" height="5" fill="#0b1f33"/><rect x="240" y="395" width="5" height="5" fill="#0b1f33"/><rect x="335" y="395" width="5" height="5" fill="#0b1f33"/><rect x="400" y="395" width="335" height="5" fill="#0b1f33"/><rect x="810" y="395" width="110" height="5" fill="#0b1f33"/><rect x="230" y="400" width="10" height="5" fill="#0b1f33"/><rect x="335" y="400" width="5" height="5" fill="#0b1f33"/><rect x="400" y="400" width="335" height="5" fill="#0b1f33"/><rect x="800" y="400" width="10" height="5" fill="#0b1f33"/><rect x="815" y="400" width="105" height="5" fill="#0b1f33"/><rect x="225" y="405" width="5" height="5" fill="#0b1f33"/><rect x="335" y="405" width="5" height="5" fill="#0b1f33"/><rect x="395" y="405" width="345" height="5" fill="#0b1f33"/><rect x="795" y="405" width="5" height="5" fill="#0b1f33"/><rect x="810" y="405" width="115" height="5" fill="#0b1f33"/><rect x="230" y="410" width="10" height="5" fill="#0b1f33"/><rect x="335" y="410" width="5" height="5" fill="#0b1f33"/><rect x="400" y="410" width="335" height="5" fill="#0b1f33"/><rect x="785" y="410" width="10" height="5" fill="#0b1f33"/><rect x="815" y="410" width="105" height="5" fill="#0b1f33"/><rect x="240" y="415" width="5" height="5" fill="#0b1f33"/><rect x="335" y="415" width="5" height="5" fill="#0b1f33"/><rect x="400" y="415" width="335" height="5" fill="#0b1f33"/><rect x="780" y="415" width="5" height="5" fill="#0b1f33"/><rect x="815" y="415" width="105" height="5" fill="#0b1f33"/><rect x="245" y="420" width="10" height="5" fill="#0b1f33"/><rect x="335" y="420" width="5" height="5" fill="#0b1f33"/><rect x="400" y="420" width="335" height="5" fill="#0b1f33"/><rect x="775" y="420" width="5" height="5" fill="#0b1f33"/><rect x="815" y="420" width="105" height="5" fill="#0b1f33"/><rect x="255" y="425" width="10" height="5" fill="#0b1f33"/><rect x="335" y="425" width="5" height="5" fill="#0b1f33"/><rect x="400" y="425" width="335" height="5" fill="#0b1f33"/><rect x="765" y="425" width="10" height="5" fill="#0b1f33"/><rect x="815" y="425" width="105" height="5" fill="#0b1f33"/><rect x="265" y="430" width="5" height="5" fill="#0b1f33"/><rect x="335" y="430" width="5" height="5" fill="#0b1f33"/><rect x="400" y="430" width="335" height="5" fill="#0b1f33"/><rect x="760" y="430" width="5" height="5" fill="#0b1f33"/><rect x="820" y="430" width="95" height="5" fill="#0b1f33"/><rect x="270" y="435" width="10" height="5" fill="#0b1f33"/><rect x="335" y="435" width="5" height="5" fill="#0b1f33"/><rect x="400" y="435" width="335" height="5" fill="#0b1f33"/><rect x="750" y="435" width="10" height="5" fill="#0b1f33"/><rect x="820" y="435" width="95" height="5" fill="#0b1f33"/><rect x="280" y="440" width="5" height="5" fill="#0b1f33"/><rect x="335" y="440" width="5" height="5" fill="#0b1f33"/><rect x="400" y="440" width="335" height="5" fill="#0b1f33"/><rect x="745" y="440" width="5" height="5" fill="#0b1f33"/><rect x="825" y="440" width="85" height="5" fill="#0b1f33"/><rect x="285" y="445" width="10" height="5" fill="#0b1f33"/><rect x="335" y="445" width="5" height="5" fill="#0b1f33"/><rect x="400" y="445" width="335" height="5" fill="#0b1f33"/><rect x="740" y="445" width="5" height="5" fill="#0b1f33"/><rect x="830" y="445" width="75" height="5" fill="#0b1f33"/><rect x="295" y="450" width="5" height="5" fill="#0b1f33"/><rect x="335" y="450" width="5" height="5" fill="#0b1f33"/><rect x="405" y="450" width="335" height="5" fill="#0b1f33"/><rect x="835" y="450" width="65" height="5" fill="#0b1f33"/><rect x="300" y="455" width="10" height="5" fill="#0b1f33"/><rect x="335" y="455" width="5" height="5" fill="#0b1f33"/><rect x="405" y="455" width="485" height="5" fill="#0b1f33"/><rect x="310" y="460" width="10" height="5" fill="#0b1f33"/><rect x="335" y="460" width="5" height="5" fill="#0b1f33"/><rect x="405" y="460" width="325" height="5" fill="#0b1f33"/><rect x="865" y="460" width="5" height="5" fill="#0b1f33"/><rect x="320" y="465" width="5" height="5" fill="#0b1f33"/><rect x="335" y="465" width="5" height="5" fill="#0b1f33"/><rect x="410" y="465" width="315" height="5" fill="#0b1f33"/><rect x="325" y="470" width="15" height="5" fill="#0b1f33"/><rect x="410" y="470" width="315" height="5" fill="#0b1f33"/><rect x="335" y="475" width="5" height="5" fill="#0b1f33"/><rect x="415" y="475" width="305" height="5" fill="#0b1f33"/><rect x="415" y="480" width="305" height="5" fill="#0b1f33"/><rect x="415" y="485" width="305" height="5" fill="#0b1f33"/><rect x="420" y="490" width="295" height="5" fill="#0b1f33"/><rect x="425" y="495" width="285" height="5" fill="#0b1f33"/><rect x="425" y="500" width="285" height="5" fill="#0b1f33"/><rect x="430" y="505" width="275" height="5" fill="#0b1f33"/><rect x="435" y="510" width="265" height="5" fill="#0b1f33"/><rect x="440" y="515" width="255" height="5" fill="#0b1f33"/><rect x="440" y="520" width="255" height="5" fill="#0b1f33"/><rect x="445" y="525" width="245" height="5" fill="#0b1f33"/><rect x="450" y="530" width="235" height="5" fill="#0b1f33"/><rect x="460" y="535" width="215" height="5" fill="#0b1f33"/><rect x="465" y="540" width="205" height="5" fill="#0b1f33"/><rect x="470" y="545" width="195" height="5" fill="#0b1f33"/><rect x="480" y="550" width="175" height="5" fill="#0b1f33"/><rect x="485" y="555" width="165" height="5" fill="#0b1f33"/><rect x="500" y="560" width="145" height="5" fill="#0b1f33"/><rect x="490" y="565" width="10" height="5" fill="#0b1f33"/><rect x="510" y="565" width="115" height="5" fill="#0b1f33"/><rect x="645" y="565" width="10" height="5" fill="#0b1f33"/><rect x="480" y="570" width="10" height="5" fill="#0b1f33"/><rect x="525" y="570" width="85" height="5" fill="#0b1f33"/><rect x="620" y="570" width="5" height="5" fill="#0b1f33"/><rect x="655" y="570" width="10" height="5" fill="#0b1f33"/><rect x="470" y="575" width="10" height="5" fill="#0b1f33"/><rect x="525" y="575" width="5" height="5" fill="#0b1f33"/><rect x="565" y="575" width="5" height="5" fill="#0b1f33"/><rect x="625" y="575" width="5" height="5" fill="#0b1f33"/><rect x="665" y="575" width="10" height="5" fill="#0b1f33"/><rect x="460" y="580" width="10" height="5" fill="#0b1f33"/><rect x="525" y="580" width="5" height="5" fill="#0b1f33"/><rect x="630" y="580" width="5" height="5" fill="#0b1f33"/><rect x="675" y="580" width="10" height="5" fill="#0b1f33"/><rect x="450" y="585" width="10" height="5" fill="#0b1f33"/><rect x="525" y="585" width="5" height="5" fill="#0b1f33"/><rect x="630" y="585" width="5" height="5" fill="#0b1f33"/><rect x="685" y="585" width="10" height="5" fill="#0b1f33"/><rect x="445" y="590" width="5" height="5" fill="#0b1f33"/><rect x="520" y="590" width="5" height="5" fill="#0b1f33"/><rect x="635" y="590" width="5" height="5" fill="#0b1f33"/><rect x="695" y="590" width="10" height="5" fill="#0b1f33"/><rect x="435" y="595" width="10" height="5" fill="#0b1f33"/><rect x="520" y="595" width="5" height="5" fill="#0b1f33"/><rect x="640" y="595" width="5" height="5" fill="#0b1f33"/><rect x="705" y="595" width="15" height="5" fill="#0b1f33"/><rect x="425" y="600" width="10" height="5" fill="#0b1f33"/><rect x="515" y="600" width="5" height="5" fill="#0b1f33"/><rect x="640" y="600" width="5" height="5" fill="#0b1f33"/><rect x="720" y="600" width="10" height="5" fill="#0b1f33"/><rect x="415" y="605" width="10" height="5" fill="#0b1f33"/><rect x="515" y="605" width="5" height="5" fill="#0b1f33"/><rect x="645" y="605" width="5" height="5" fill="#0b1f33"/><rect x="730" y="605" width="10" height="5" fill="#0b1f33"/><rect x="405" y="610" width="10" height="5" fill="#0b1f33"/><rect x="510" y="610" width="5" height="5" fill="#0b1f33"/><rect x="650" y="610" width="5" height="5" fill="#0b1f33"/><rect x="740" y="610" width="10" height="5" fill="#0b1f33"/><rect x="400" y="615" width="5" height="5" fill="#0b1f33"/><rect x="510" y="615" width="5" height="5" fill="#0b1f33"/><rect x="650" y="615" width="5" height="5" fill="#0b1f33"/><rect x="750" y="615" width="10" height="5" fill="#0b1f33"/><rect x="390" y="620" width="10" height="5" fill="#0b1f33"/><rect x="505" y="620" width="5" height="5" fill="#0b1f33"/><rect x="655" y="620" width="5" height="5" fill="#0b1f33"/><rect x="760" y="620" width="10" height="5" fill="#0b1f33"/><rect x="380" y="625" width="10" height="5" fill="#0b1f33"/><rect x="485" y="625" width="25" height="5" fill="#0b1f33"/><rect x="660" y="625" width="5" height="5" fill="#0b1f33"/><rect x="770" y="625" width="10" height="5" fill="#0b1f33"/><rect x="370" y="630" width="10" height="5" fill="#0b1f33"/><rect x="445" y="630" width="40" height="5" fill="#0b1f33"/><rect x="660" y="630" width="5" height="5" fill="#0b1f33"/><rect x="780" y="630" width="10" height="5" fill="#0b1f33"/><rect x="360" y="635" width="10" height="5" fill="#0b1f33"/><rect x="405" y="635" width="40" height="5" fill="#0b1f33"/><rect x="665" y="635" width="40" height="5" fill="#0b1f33"/><rect x="790" y="635" width="10" height="5" fill="#0b1f33"/><rect x="350" y="640" width="10" height="5" fill="#0b1f33"/><rect x="365" y="640" width="40" height="5" fill="#0b1f33"/><rect x="705" y="640" width="75" height="5" fill="#0b1f33"/><rect x="800" y="640" width="10" height="5" fill="#0b1f33"/><rect x="345" y="645" width="20" height="5" fill="#0b1f33"/><rect x="780" y="645" width="40" height="5" fill="#0b1f33"/></g>
</g>
</g>
<g data-page="shell" data-z="1" opacity="0.92">
<g data-element="shell-ring-left" role="group" aria-label="path shell-ring-left">
<g data-id="shell-ring-left" data-kind="path" data-role="artwork" data-paint="cells"><rect x="530" y="265" width="30" height="5" fill="#8edb54"/><rect x="515" y="270" width="45" height="5" fill="#8edb54"/><rect x="505" y="275" width="55" height="5" fill="#8edb54"/><rect x="495" y="280" width="65" height="5" fill="#8edb54"/><rect x="485" y="285" width="75" height="5" fill="#8edb54"/><rect x="480" y="290" width="55" height="5" fill="#8edb54"/><rect x="475" y="295" width="45" height="5" fill="#8edb54"/><rect x="465" y="300" width="45" height="5" fill="#8edb54"/><rect x="460" y="305" width="40" height="5" fill="#8edb54"/><rect x="460" y="310" width="35" height="5" fill="#8edb54"/><rect x="455" y="315" width="35" height="5" fill="#8edb54"/><rect x="450" y="320" width="35" height="5" fill="#8edb54"/><rect x="445" y="325" width="35" height="5" fill="#8edb54"/><rect x="445" y="330" width="30" height="5" fill="#8edb54"/><rect x="440" y="335" width="30" height="5" fill="#8edb54"/><rect x="440" y="340" width="25" height="5" fill="#8edb54"/><rect x="435" y="345" width="30" height="5" fill="#8edb54"/><rect x="435" y="350" width="25" height="5" fill="#8edb54"/><rect x="430" y="355" width="30" height="5" fill="#8edb54"/><rect x="430" y="360" width="25" height="5" fill="#8edb54"/><rect x="430" y="365" width="25" height="5" fill="#8edb54"/><rect x="425" y="370" width="30" height="5" fill="#8edb54"/><rect x="425" y="375" width="25" height="5" fill="#8edb54"/><rect x="425" y="380" width="25" height="5" fill="#8edb54"/><rect x="425" y="385" width="25" height="5" fill="#8edb54"/><rect x="425" y="390" width="25" height="5" fill="#8edb54"/><rect x="425" y="395" width="25" height="5" fill="#8edb54"/><rect x="425" y="400" width="25" height="5" fill="#8edb54"/><rect x="420" y="405" width="25" height="5" fill="#8edb54"/><rect x="425" y="410" width="25" height="5" fill="#8edb54"/><rect x="425" y="415" width="25" height="5" fill="#8edb54"/><rect x="425" y="420" width="25" height="5" fill="#8edb54"/><rect x="425" y="425" width="25" height="5" fill="#8edb54"/><rect x="425" y="430" width="25" height="5" fill="#8edb54"/><rect x="425" y="435" width="25" height="5" fill="#8edb54"/><rect x="425" y="440" width="30" height="5" fill="#8edb54"/><rect x="430" y="445" width="25" height="5" fill="#8edb54"/><rect x="430" y="450" width="25" height="5" fill="#8edb54"/><rect x="430" y="455" width="30" height="5" fill="#8edb54"/><rect x="435" y="460" width="25" height="5" fill="#8edb54"/><rect x="435" y="465" width="30" height="5" fill="#8edb54"/><rect x="440" y="470" width="25" height="5" fill="#8edb54"/><rect x="440" y="475" width="30" height="5" fill="#8edb54"/><rect x="445" y="480" width="30" height="5" fill="#8edb54"/><rect x="445" y="485" width="35" height="5" fill="#8edb54"/><rect x="450" y="490" width="35" height="5" fill="#8edb54"/><rect x="455" y="495" width="35" height="5" fill="#8edb54"/><rect x="460" y="500" width="35" height="5" fill="#8edb54"/><rect x="460" y="505" width="40" height="5" fill="#8edb54"/><rect x="465" y="510" width="45" height="5" fill="#8edb54"/><rect x="475" y="515" width="45" height="5" fill="#8edb54"/><rect x="480" y="520" width="55" height="5" fill="#8edb54"/><rect x="485" y="525" width="75" height="5" fill="#8edb54"/><rect x="495" y="530" width="65" height="5" fill="#8edb54"/><rect x="505" y="535" width="55" height="5" fill="#8edb54"/><rect x="515" y="540" width="45" height="5" fill="#8edb54"/><rect x="530" y="545" width="30" height="5" fill="#8edb54"/></g>
</g>
<g data-element="shell-ring-right" role="group" aria-label="path shell-ring-right">
<g data-id="shell-ring-right" data-kind="path" data-role="artwork" data-paint="cells"><rect x="565" y="260" width="5" height="5" fill="#8edb54"/><rect x="560" y="265" width="45" height="5" fill="#8edb54"/><rect x="560" y="270" width="60" height="5" fill="#8edb54"/><rect x="560" y="275" width="70" height="5" fill="#8edb54"/><rect x="560" y="280" width="80" height="5" fill="#8edb54"/><rect x="560" y="285" width="5" height="5" fill="#8edb54"/><rect x="570" y="285" width="80" height="5" fill="#8edb54"/><rect x="600" y="290" width="55" height="5" fill="#8edb54"/><rect x="615" y="295" width="45" height="5" fill="#8edb54"/><rect x="625" y="300" width="45" height="5" fill="#8edb54"/><rect x="635" y="305" width="40" height="5" fill="#8edb54"/><rect x="640" y="310" width="35" height="5" fill="#8edb54"/><rect x="645" y="315" width="35" height="5" fill="#8edb54"/><rect x="650" y="320" width="35" height="5" fill="#8edb54"/><rect x="655" y="325" width="35" height="5" fill="#8edb54"/><rect x="660" y="330" width="30" height="5" fill="#8edb54"/><rect x="665" y="335" width="30" height="5" fill="#8edb54"/><rect x="670" y="340" width="25" height="5" fill="#8edb54"/><rect x="670" y="345" width="30" height="5" fill="#8edb54"/><rect x="675" y="350" width="25" height="5" fill="#8edb54"/><rect x="675" y="355" width="30" height="5" fill="#8edb54"/><rect x="680" y="360" width="25" height="5" fill="#8edb54"/><rect x="680" y="365" width="25" height="5" fill="#8edb54"/><rect x="680" y="370" width="30" height="5" fill="#8edb54"/><rect x="685" y="375" width="25" height="5" fill="#8edb54"/><rect x="685" y="380" width="25" height="5" fill="#8edb54"/><rect x="685" y="385" width="25" height="5" fill="#8edb54"/><rect x="685" y="390" width="25" height="5" fill="#8edb54"/><rect x="685" y="395" width="25" height="5" fill="#8edb54"/><rect x="685" y="400" width="25" height="5" fill="#8edb54"/><rect x="690" y="405" width="25" height="5" fill="#8edb54"/><rect x="685" y="410" width="25" height="5" fill="#8edb54"/><rect x="685" y="415" width="25" height="5" fill="#8edb54"/><rect x="685" y="420" width="25" height="5" fill="#8edb54"/><rect x="685" y="425" width="25" height="5" fill="#8edb54"/><rect x="685" y="430" width="25" height="5" fill="#8edb54"/><rect x="685" y="435" width="25" height="5" fill="#8edb54"/><rect x="680" y="440" width="30" height="5" fill="#8edb54"/><rect x="680" y="445" width="25" height="5" fill="#8edb54"/><rect x="680" y="450" width="25" height="5" fill="#8edb54"/><rect x="675" y="455" width="30" height="5" fill="#8edb54"/><rect x="675" y="460" width="25" height="5" fill="#8edb54"/><rect x="670" y="465" width="30" height="5" fill="#8edb54"/><rect x="670" y="470" width="25" height="5" fill="#8edb54"/><rect x="665" y="475" width="30" height="5" fill="#8edb54"/><rect x="660" y="480" width="30" height="5" fill="#8edb54"/><rect x="655" y="485" width="35" height="5" fill="#8edb54"/><rect x="650" y="490" width="35" height="5" fill="#8edb54"/><rect x="645" y="495" width="35" height="5" fill="#8edb54"/><rect x="640" y="500" width="35" height="5" fill="#8edb54"/><rect x="635" y="505" width="40" height="5" fill="#8edb54"/><rect x="625" y="510" width="45" height="5" fill="#8edb54"/><rect x="615" y="515" width="45" height="5" fill="#8edb54"/><rect x="600" y="520" width="55" height="5" fill="#8edb54"/><rect x="560" y="525" width="5" height="5" fill="#8edb54"/><rect x="570" y="525" width="80" height="5" fill="#8edb54"/><rect x="560" y="530" width="80" height="5" fill="#8edb54"/><rect x="560" y="535" width="70" height="5" fill="#8edb54"/><rect x="560" y="540" width="60" height="5" fill="#8edb54"/><rect x="560" y="545" width="45" height="5" fill="#8edb54"/><rect x="565" y="550" width="5" height="5" fill="#8edb54"/></g>
</g>
<g data-element="shell-field" role="group" aria-label="path shell-field">
<g data-id="shell-field" data-kind="path" data-role="artwork" data-paint="cells"><rect x="565" y="295" width="5" height="5" fill="#18b6a4"/><rect x="535" y="300" width="65" height="5" fill="#18b6a4"/><rect x="520" y="305" width="95" height="5" fill="#18b6a4"/><rect x="510" y="310" width="115" height="5" fill="#18b6a4"/><rect x="505" y="315" width="125" height="5" fill="#18b6a4"/><rect x="500" y="320" width="135" height="5" fill="#18b6a4"/><rect x="490" y="325" width="155" height="5" fill="#18b6a4"/><rect x="485" y="330" width="165" height="5" fill="#18b6a4"/><rect x="485" y="335" width="165" height="5" fill="#18b6a4"/><rect x="480" y="340" width="175" height="5" fill="#18b6a4"/><rect x="475" y="345" width="185" height="5" fill="#18b6a4"/><rect x="470" y="350" width="195" height="5" fill="#18b6a4"/><rect x="470" y="355" width="195" height="5" fill="#18b6a4"/><rect x="465" y="360" width="205" height="5" fill="#18b6a4"/><rect x="465" y="365" width="205" height="5" fill="#18b6a4"/><rect x="465" y="370" width="205" height="5" fill="#18b6a4"/><rect x="460" y="375" width="215" height="5" fill="#18b6a4"/><rect x="460" y="380" width="215" height="5" fill="#18b6a4"/><rect x="460" y="385" width="215" height="5" fill="#18b6a4"/><rect x="460" y="390" width="215" height="5" fill="#18b6a4"/><rect x="460" y="395" width="215" height="5" fill="#18b6a4"/><rect x="460" y="400" width="215" height="5" fill="#18b6a4"/><rect x="455" y="405" width="225" height="5" fill="#18b6a4"/><rect x="460" y="410" width="215" height="5" fill="#18b6a4"/><rect x="460" y="415" width="215" height="5" fill="#18b6a4"/><rect x="460" y="420" width="215" height="5" fill="#18b6a4"/><rect x="460" y="425" width="215" height="5" fill="#18b6a4"/><rect x="460" y="430" width="215" height="5" fill="#18b6a4"/><rect x="460" y="435" width="215" height="5" fill="#18b6a4"/><rect x="465" y="440" width="205" height="5" fill="#18b6a4"/><rect x="465" y="445" width="205" height="5" fill="#18b6a4"/><rect x="465" y="450" width="205" height="5" fill="#18b6a4"/><rect x="470" y="455" width="195" height="5" fill="#18b6a4"/><rect x="470" y="460" width="195" height="5" fill="#18b6a4"/><rect x="475" y="465" width="185" height="5" fill="#18b6a4"/><rect x="480" y="470" width="175" height="5" fill="#18b6a4"/><rect x="485" y="475" width="165" height="5" fill="#18b6a4"/><rect x="485" y="480" width="165" height="5" fill="#18b6a4"/><rect x="490" y="485" width="155" height="5" fill="#18b6a4"/><rect x="500" y="490" width="135" height="5" fill="#18b6a4"/><rect x="505" y="495" width="125" height="5" fill="#18b6a4"/><rect x="510" y="500" width="115" height="5" fill="#18b6a4"/><rect x="520" y="505" width="95" height="5" fill="#18b6a4"/><rect x="535" y="510" width="65" height="5" fill="#18b6a4"/><rect x="565" y="515" width="5" height="5" fill="#18b6a4"/></g>
</g>
</g>
<g data-page="facets" data-z="2" opacity="0.92">
<g data-element="shell-facet" role="group" aria-label="path shell-facet">
<g data-id="shell-facet" data-kind="path" data-role="artwork"><polyline points="697,337 697,477 692,482 637,507 627,517 567,547 437,477 437,337 692,337" fill="none" stroke="#fff8e8" stroke-width="3" stroke-linecap="round" stroke-linejoin="round"/></g>
</g>
</g>
<g data-page="grid" data-z="3" opacity="0.92">
<g data-element="facet-cross" role="group" aria-label="path facet-cross">
<g data-id="facet-cross" data-kind="path" data-role="artwork"><polyline points="437,407 697,407" fill="none" stroke="#fff8e8" stroke-width="2" stroke-linecap="round" stroke-linejoin="round"/><polyline points="567,267 567,547" fill="none" stroke="#fff8e8" stroke-width="2" stroke-linecap="round" stroke-linejoin="round"/></g>
</g>
</g>
<g data-page="nodes" data-z="4" opacity="0.92">
<g data-element="anchor-node" role="group" aria-label="path anchor-node">
<g data-id="anchor-node" data-kind="path" data-role="artwork" data-paint="cells"><rect x="465" y="305" width="5" height="5" fill="#fff8e8"/><rect x="460" y="310" width="15" height="5" fill="#fff8e8"/><rect x="455" y="315" width="25" height="5" fill="#fff8e8"/><rect x="460" y="320" width="15" height="5" fill="#fff8e8"/><rect x="465" y="325" width="5" height="5" fill="#fff8e8"/></g>
</g>
<g data-element="anchor-1" role="group" aria-label="path anchor-1">
<g data-id="anchor-1" data-kind="path" data-role="artwork" data-paint="cells"><rect x="565" y="305" width="5" height="5" fill="#fff8e8"/><rect x="560" y="310" width="15" height="5" fill="#fff8e8"/><rect x="555" y="315" width="25" height="5" fill="#fff8e8"/><rect x="560" y="320" width="15" height="5" fill="#fff8e8"/><rect x="565" y="325" width="5" height="5" fill="#fff8e8"/></g>
</g>
<g data-element="anchor-2" role="group" aria-label="path anchor-2">
<g data-id="anchor-2" data-kind="path" data-role="artwork" data-paint="cells"><rect x="665" y="305" width="5" height="5" fill="#fff8e8"/><rect x="660" y="310" width="15" height="5" fill="#fff8e8"/><rect x="655" y="315" width="25" height="5" fill="#fff8e8"/><rect x="660" y="320" width="15" height="5" fill="#fff8e8"/><rect x="665" y="325" width="5" height="5" fill="#fff8e8"/></g>
</g>
<g data-element="anchor-3" role="group" aria-label="path anchor-3">
<g data-id="anchor-3" data-kind="path" data-role="artwork" data-paint="cells"><rect x="465" y="395" width="5" height="5" fill="#fff8e8"/><rect x="460" y="400" width="15" height="5" fill="#fff8e8"/><rect x="455" y="405" width="25" height="5" fill="#fff8e8"/><rect x="460" y="410" width="15" height="5" fill="#fff8e8"/><rect x="465" y="415" width="5" height="5" fill="#fff8e8"/></g>
</g>
<g data-element="anchor-4" role="group" aria-label="path anchor-4">
<g data-id="anchor-4" data-kind="path" data-role="artwork" data-paint="cells"><rect x="565" y="395" width="5" height="5" fill="#fff8e8"/><rect x="560" y="400" width="15" height="5" fill="#fff8e8"/><rect x="555" y="405" width="25" height="5" fill="#fff8e8"/><rect x="560" y="410" width="15" height="5" fill="#fff8e8"/><rect x="565" y="415" width="5" height="5" fill="#fff8e8"/></g>
</g>
<g data-element="anchor-5" role="group" aria-label="path anchor-5">
<g data-id="anchor-5" data-kind="path" data-role="artwork" data-paint="cells"><rect x="665" y="395" width="5" height="5" fill="#fff8e8"/><rect x="660" y="400" width="15" height="5" fill="#fff8e8"/><rect x="655" y="405" width="25" height="5" fill="#fff8e8"/><rect x="660" y="410" width="15" height="5" fill="#fff8e8"/><rect x="665" y="415" width="5" height="5" fill="#fff8e8"/></g>
</g>
<g data-element="anchor-top" role="group" aria-label="path anchor-top">
<g data-id="anchor-top" data-kind="path" data-role="artwork" data-paint="cells"><rect x="565" y="255" width="5" height="5" fill="#fff8e8"/><rect x="560" y="260" width="15" height="5" fill="#fff8e8"/><rect x="555" y="265" width="25" height="5" fill="#fff8e8"/><rect x="560" y="270" width="15" height="5" fill="#fff8e8"/><rect x="565" y="275" width="5" height="5" fill="#fff8e8"/></g>
</g>
<g data-element="anchor-bottom" role="group" aria-label="path anchor-bottom">
<g data-id="anchor-bottom" data-kind="path" data-role="artwork" data-paint="cells"><rect x="565" y="535" width="5" height="5" fill="#fff8e8"/><rect x="560" y="540" width="15" height="5" fill="#fff8e8"/><rect x="555" y="545" width="25" height="5" fill="#fff8e8"/><rect x="560" y="550" width="15" height="5" fill="#fff8e8"/><rect x="565" y="555" width="5" height="5" fill="#fff8e8"/></g>
</g>
<g data-element="nib-hole" role="group" aria-label="path nib-hole">
<g data-id="nib-hole" data-kind="path" data-role="artwork" data-paint="cells"><rect x="955" y="435" width="5" height="5" fill="#0b1f33"/><rect x="950" y="440" width="15" height="5" fill="#0b1f33"/><rect x="945" y="445" width="25" height="5" fill="#0b1f33"/><rect x="950" y="450" width="15" height="5" fill="#0b1f33"/><rect x="955" y="455" width="5" height="5" fill="#0b1f33"/></g>
</g>
<g data-element="eye" role="group" aria-label="path eye">
<g data-id="eye" data-kind="path" data-role="artwork" data-paint="cells"><rect x="885" y="375" width="5" height="5" fill="#fff8e8"/><rect x="880" y="380" width="15" height="5" fill="#fff8e8"/><rect x="875" y="385" width="25" height="5" fill="#fff8e8"/><rect x="880" y="390" width="15" height="5" fill="#fff8e8"/><rect x="885" y="395" width="5" height="5" fill="#fff8e8"/></g>
</g>
<g data-element="mcp-port" role="group" aria-label="path mcp-port">
<g data-id="mcp-port" data-kind="path" data-role="artwork" data-paint="cells"><rect x="475" y="595" width="5" height="5" fill="#35c6f4"/><rect x="470" y="600" width="15" height="5" fill="#35c6f4"/><rect x="465" y="605" width="25" height="5" fill="#35c6f4"/><rect x="470" y="610" width="15" height="5" fill="#35c6f4"/><rect x="475" y="615" width="5" height="5" fill="#35c6f4"/></g>
</g>
<g data-element="mcp-port-1" role="group" aria-label="path mcp-port-1">
<g data-id="mcp-port-1" data-kind="path" data-role="artwork" data-paint="cells"><rect x="565" y="595" width="5" height="5" fill="#35c6f4"/><rect x="560" y="600" width="15" height="5" fill="#35c6f4"/><rect x="555" y="605" width="25" height="5" fill="#35c6f4"/><rect x="560" y="610" width="15" height="5" fill="#35c6f4"/><rect x="565" y="615" width="5" height="5" fill="#35c6f4"/></g>
</g>
<g data-element="mcp-port-2" role="group" aria-label="path mcp-port-2">
<g data-id="mcp-port-2" data-kind="path" data-role="artwork" data-paint="cells"><rect x="655" y="595" width="5" height="5" fill="#35c6f4"/><rect x="650" y="600" width="15" height="5" fill="#35c6f4"/><rect x="645" y="605" width="25" height="5" fill="#35c6f4"/><rect x="650" y="610" width="15" height="5" fill="#35c6f4"/><rect x="655" y="615" width="5" height="5" fill="#35c6f4"/></g>
</g>
</g>
<g data-page="nib" data-z="5" opacity="0.92">
<g data-element="pen-nib" role="group" aria-label="path pen-nib">
<g data-id="pen-nib" data-kind="path" data-role="artwork" data-paint="cells"><rect x="945" y="445" width="105" height="5" fill="#ff6b5f"/><rect x="945" y="450" width="5" height="5" fill="#ff6b5f"/><rect x="1030" y="450" width="10" height="5" fill="#ff6b5f"/><rect x="940" y="455" width="5" height="5" fill="#ff6b5f"/><rect x="1020" y="455" width="10" height="5" fill="#ff6b5f"/><rect x="940" y="460" width="5" height="5" fill="#ff6b5f"/><rect x="1010" y="460" width="10" height="5" fill="#ff6b5f"/><rect x="935" y="465" width="5" height="5" fill="#ff6b5f"/><rect x="1000" y="465" width="10" height="5" fill="#ff6b5f"/><rect x="935" y="470" width="5" height="5" fill="#ff6b5f"/><rect x="990" y="470" width="10" height="5" fill="#ff6b5f"/><rect x="930" y="475" width="5" height="5" fill="#ff6b5f"/><rect x="975" y="475" width="15" height="5" fill="#ff6b5f"/><rect x="930" y="480" width="5" height="5" fill="#ff6b5f"/><rect x="965" y="480" width="10" height="5" fill="#ff6b5f"/><rect x="925" y="485" width="5" height="5" fill="#ff6b5f"/><rect x="955" y="485" width="10" height="5" fill="#ff6b5f"/><rect x="925" y="490" width="5" height="5" fill="#ff6b5f"/><rect x="945" y="490" width="10" height="5" fill="#ff6b5f"/><rect x="920" y="495" width="5" height="5" fill="#ff6b5f"/><rect x="935" y="495" width="10" height="5" fill="#ff6b5f"/><rect x="920" y="500" width="15" height="5" fill="#ff6b5f"/><rect x="915" y="505" width="10" height="5" fill="#ff6b5f"/></g>
</g>
</g>
<g data-page="trail" data-z="6" opacity="0.92">
<g data-element="editable-ink" role="group" aria-label="path editable-ink: Drawing flourish converted from stroke to exact editable lattice artwork">
<g data-id="editable-ink" data-kind="path" data-role="artwork" data-paint="cells"><rect x="1045" y="445" width="5" height="5" fill="#7a5af8"/><rect x="1050" y="450" width="5" height="5" fill="#7a5af8"/><rect x="1055" y="455" width="5" height="5" fill="#7a5af8"/><rect x="1060" y="460" width="10" height="5" fill="#7a5af8"/><rect x="1070" y="465" width="5" height="5" fill="#7a5af8"/><rect x="1075" y="470" width="5" height="5" fill="#7a5af8"/><rect x="1080" y="475" width="5" height="5" fill="#7a5af8"/><rect x="1085" y="480" width="5" height="5" fill="#7a5af8"/><rect x="1090" y="485" width="5" height="5" fill="#7a5af8"/><rect x="1095" y="490" width="10" height="5" fill="#7a5af8"/><rect x="1105" y="495" width="5" height="5" fill="#7a5af8"/><rect x="1110" y="500" width="5" height="5" fill="#7a5af8"/><rect x="1115" y="505" width="5" height="5" fill="#7a5af8"/><rect x="1110" y="510" width="5" height="5" fill="#7a5af8"/><rect x="1105" y="515" width="5" height="5" fill="#7a5af8"/><rect x="1100" y="520" width="5" height="5" fill="#7a5af8"/><rect x="1100" y="525" width="5" height="5" fill="#7a5af8"/><rect x="1095" y="530" width="5" height="5" fill="#7a5af8"/><rect x="1090" y="535" width="5" height="5" fill="#7a5af8"/><rect x="1085" y="540" width="5" height="5" fill="#7a5af8"/><rect x="1080" y="545" width="5" height="5" fill="#7a5af8"/><rect x="1075" y="550" width="5" height="5" fill="#7a5af8"/><rect x="1070" y="555" width="5" height="5" fill="#7a5af8"/><rect x="1070" y="560" width="5" height="5" fill="#7a5af8"/><rect x="1065" y="565" width="5" height="5" fill="#7a5af8"/><rect x="1060" y="570" width="5" height="5" fill="#7a5af8"/><rect x="1055" y="575" width="5" height="5" fill="#7a5af8"/><rect x="1060" y="580" width="5" height="5" fill="#7a5af8"/><rect x="1065" y="585" width="5" height="5" fill="#7a5af8"/><rect x="1070" y="590" width="5" height="5" fill="#7a5af8"/><rect x="1075" y="595" width="10" height="5" fill="#7a5af8"/><rect x="1085" y="600" width="5" height="5" fill="#7a5af8"/><rect x="1090" y="605" width="5" height="5" fill="#7a5af8"/><rect x="1095" y="610" width="5" height="5" fill="#7a5af8"/><rect x="1100" y="615" width="5" height="5" fill="#7a5af8"/><rect x="1105" y="620" width="5" height="5" fill="#7a5af8"/><rect x="1110" y="625" width="5" height="5" fill="#7a5af8"/><rect x="1115" y="630" width="10" height="5" fill="#7a5af8"/><rect x="1125" y="635" width="5" height="5" fill="#7a5af8"/><rect x="1130" y="640" width="5" height="5" fill="#7a5af8"/><rect x="1135" y="645" width="5" height="5" fill="#7a5af8"/><rect x="1130" y="650" width="5" height="5" fill="#7a5af8"/><rect x="1125" y="655" width="5" height="5" fill="#7a5af8"/><rect x="1115" y="660" width="10" height="5" fill="#7a5af8"/><rect x="1110" y="665" width="5" height="5" fill="#7a5af8"/><rect x="1105" y="670" width="5" height="5" fill="#7a5af8"/><rect x="1100" y="675" width="5" height="5" fill="#7a5af8"/><rect x="1095" y="680" width="5" height="5" fill="#7a5af8"/><rect x="1090" y="685" width="5" height="5" fill="#7a5af8"/><rect x="1080" y="690" width="10" height="5" fill="#7a5af8"/><rect x="1075" y="695" width="5" height="5" fill="#7a5af8"/><rect x="1070" y="700" width="5" height="5" fill="#7a5af8"/><rect x="1065" y="705" width="5" height="5" fill="#7a5af8"/></g>
</g>
<g data-element="brand-rule" role="group" aria-label="path brand-rule">
<g data-id="brand-rule" data-kind="path" data-role="artwork"><polyline points="377,937 777,937" fill="none" stroke="#18b6a4" stroke-width="4" stroke-linecap="round" stroke-linejoin="round"/></g>
</g>
</g>
<g data-page="type" data-z="7" opacity="0.92">
<g data-element="turtlepen-wordmark" role="group" aria-label="text turtlepen-wordmark: TurtlePen">
<text class="free-text" x="444" y="819" font-size="46" font-weight="900" textLength="252" lengthAdjust="spacingAndGlyphs" style="fill:#0b1f33" xml:space="preserve">TurtlePen</text>
</g>
<g data-element="mcp-wordmark" role="group" aria-label="text mcp-wordmark: MCP">
<text class="free-text" x="549" y="896" font-size="24" font-weight="900" textLength="42" lengthAdjust="spacingAndGlyphs" style="fill:#7a5af8" xml:space="preserve">MCP</text>
</g>
</g>
</g>
</svg>