<svg xmlns="http://www.w3.org/2000/svg" width="540" height="960" viewBox="0 0 540 960" font-family="ui-monospace, SFMono-Regular, &quot;Cascadia Mono&quot;, Menlo, Consolas, monospace">
<style>
  .bg { fill: #f4f3ef; }
  .grid { stroke: #dedbd3; stroke-width: 0.5; }
  .grid-major { stroke: #cbc7bd; stroke-width: 0.5; }
  .box { fill: #e9e7e1; stroke: #2b2a26; stroke-width: 1; }
  .box-label { fill: #2b2a26; }
  .stroke { fill: #2b2a26; }
  .hop { stroke: #2b2a26; }
  .free-text { fill: #6b6862; }
  .hit-S0 { fill: #8a5b56; opacity: 0.30; }
  .hit-S1 { fill: #96755c; opacity: 0.28; }
  .hit-S2 { fill: #87805a; opacity: 0.24; }
  .hit-S3 { fill: #4a6572; opacity: 0.20; }
  .dimmed { fill: url(#tp-stipple); }
  .dither-run { fill: #2b2a26; }
  .simplify-run { fill: #2b2a26; }
  @media (prefers-color-scheme: dark) {
    .bg { fill: #1a1917; }
    .grid { stroke: #2e2c28; }
    .grid-major { stroke: #3d3a35; }
    .box { fill: #232220; stroke: #dedbd3; }
    .box-label { fill: #dedbd3; }
    .free-text { fill: #9a968d; }
    .stroke { fill: #dedbd3; }
    .hop { stroke: #dedbd3; }
  }
</style>
<defs>

  <!-- Grey earned by pattern rather than assumed. The stipple is drawn at the
       5px quadrant so a dimmed element is made of the same units as every
       other mark on the page. -->
  <pattern id="tp-stipple" width="10" height="10" patternUnits="userSpaceOnUse">
    <rect width="5" height="5" fill="#2b2a26"/>
    <rect x="5" y="5" width="5" height="5" fill="#2b2a26"/>
  </pattern>
</defs>
<rect class="bg" x="0" y="0" width="540" height="960"/>
<g transform="translate(0,0)">
<g data-page="base" data-z="0" opacity="1">
<g data-element="branches">
<g data-id="branches" data-kind="path" data-role="artwork"><polyline points="272,497 272,422 242,367" fill="none" stroke="#84635b" stroke-width="2" stroke-linecap="round" stroke-linejoin="round"/><polyline points="272,422 302,367" fill="none" stroke="#84635b" stroke-width="2" stroke-linecap="round" stroke-linejoin="round"/><polyline points="242,367 242,317 222,282 222,227 197,212" fill="none" stroke="#84635b" stroke-width="2" stroke-linecap="round" stroke-linejoin="round"/><polyline points="222,227 242,197" fill="none" stroke="#84635b" stroke-width="2" stroke-linecap="round" stroke-linejoin="round"/><polyline points="242,317 222,312 217,307 207,307 192,297 182,277 182,237 167,222" fill="none" stroke="#84635b" stroke-width="2" stroke-linecap="round" stroke-linejoin="round"/><polyline points="182,237 157,247" fill="none" stroke="#84635b" stroke-width="2" stroke-linecap="round" stroke-linejoin="round"/><polyline points="197,302 167,302 142,282 122,277" fill="none" stroke="#84635b" stroke-width="2" stroke-linecap="round" stroke-linejoin="round"/><polyline points="142,282 132,262" fill="none" stroke="#84635b" stroke-width="2" stroke-linecap="round" stroke-linejoin="round"/><polyline points="167,302 137,332 117,342 132,367" fill="none" stroke="#84635b" stroke-width="2" stroke-linecap="round" stroke-linejoin="round"/><polyline points="117,342 102,332" fill="none" stroke="#84635b" stroke-width="2" stroke-linecap="round" stroke-linejoin="round"/><polyline points="242,367 197,342 167,342 142,327" fill="none" stroke="#84635b" stroke-width="2" stroke-linecap="round" stroke-linejoin="round"/><polyline points="167,342 137,372 127,392" fill="none" stroke="#84635b" stroke-width="2" stroke-linecap="round" stroke-linejoin="round"/><polyline points="302,367 302,317 322,282 322,232 302,212" fill="none" stroke="#84635b" stroke-width="2" stroke-linecap="round" stroke-linejoin="round"/><polyline points="322,232 347,222" fill="none" stroke="#84635b" stroke-width="2" stroke-linecap="round" stroke-linejoin="round"/><polyline points="302,317 347,302 352,282 357,277 357,237 382,222" fill="none" stroke="#84635b" stroke-width="2" stroke-linecap="round" stroke-linejoin="round"/><polyline points="357,237 342,217" fill="none" stroke="#84635b" stroke-width="2" stroke-linecap="round" stroke-linejoin="round"/><polyline points="347,302 382,302 402,282 422,287" fill="none" stroke="#84635b" stroke-width="2" stroke-linecap="round" stroke-linejoin="round"/><polyline points="402,282 412,262" fill="none" stroke="#84635b" stroke-width="2" stroke-linecap="round" stroke-linejoin="round"/><polyline points="382,302 397,322 397,327 407,337 427,347 412,372" fill="none" stroke="#84635b" stroke-width="2" stroke-linecap="round" stroke-linejoin="round"/><polyline points="427,347 442,372" fill="none" stroke="#84635b" stroke-width="2" stroke-linecap="round" stroke-linejoin="round"/><polyline points="302,367 342,342 382,342 402,332" fill="none" stroke="#84635b" stroke-width="2" stroke-linecap="round" stroke-linejoin="round"/><polyline points="382,342 407,367" fill="none" stroke="#84635b" stroke-width="2" stroke-linecap="round" stroke-linejoin="round"/><polyline points="242,317 272,277 272,227 257,207" fill="none" stroke="#84635b" stroke-width="2" stroke-linecap="round" stroke-linejoin="round"/><polyline points="272,227 287,207" fill="none" stroke="#84635b" stroke-width="2" stroke-linecap="round" stroke-linejoin="round"/><polyline points="272,277 302,242 302,212" fill="none" stroke="#84635b" stroke-width="2" stroke-linecap="round" stroke-linejoin="round"/><polyline points="302,242 322,222" fill="none" stroke="#84635b" stroke-width="2" stroke-linecap="round" stroke-linejoin="round"/><polyline points="222,277 247,242 247,212" fill="none" stroke="#84635b" stroke-width="2" stroke-linecap="round" stroke-linejoin="round"/><polyline points="247,242 262,222" fill="none" stroke="#84635b" stroke-width="2" stroke-linecap="round" stroke-linejoin="round"/><polyline points="197,212 192,192" fill="none" stroke="#84635b" stroke-width="2" stroke-linecap="round" stroke-linejoin="round"/><polyline points="242,197 232,182" fill="none" stroke="#84635b" stroke-width="2" stroke-linecap="round" stroke-linejoin="round"/><polyline points="257,207 252,187" fill="none" stroke="#84635b" stroke-width="2" stroke-linecap="round" stroke-linejoin="round"/><polyline points="287,207 292,187" fill="none" stroke="#84635b" stroke-width="2" stroke-linecap="round" stroke-linejoin="round"/><polyline points="302,212 317,192" fill="none" stroke="#84635b" stroke-width="2" stroke-linecap="round" stroke-linejoin="round"/><polyline points="342,217 347,197" fill="none" stroke="#84635b" stroke-width="2" stroke-linecap="round" stroke-linejoin="round"/><polyline points="382,222 392,202" fill="none" stroke="#84635b" stroke-width="2" stroke-linecap="round" stroke-linejoin="round"/></g>
</g>
</g>
<g data-page="leaves" data-z="1" opacity="0.92">
<g data-element="leaves">
<g data-id="leaves" data-kind="path" data-role="artwork"><polyline points="127,392 122,397" fill="none" stroke="#168b2a" stroke-width="5" stroke-linecap="round" stroke-linejoin="round"/><polyline points="132,367 137,372" fill="none" stroke="#168b2a" stroke-width="5" stroke-linecap="round" stroke-linejoin="round"/><polyline points="102,332 97,332" fill="none" stroke="#168b2a" stroke-width="5" stroke-linecap="round" stroke-linejoin="round"/><polyline points="117,342 112,342" fill="none" stroke="#168b2a" stroke-width="5" stroke-linecap="round" stroke-linejoin="round"/><polyline points="122,277 117,277" fill="none" stroke="#168b2a" stroke-width="5" stroke-linecap="round" stroke-linejoin="round"/><polyline points="132,262 127,257" fill="none" stroke="#168b2a" stroke-width="5" stroke-linecap="round" stroke-linejoin="round"/><polyline points="157,247 152,247" fill="none" stroke="#168b2a" stroke-width="5" stroke-linecap="round" stroke-linejoin="round"/><polyline points="167,222 162,217" fill="none" stroke="#168b2a" stroke-width="5" stroke-linecap="round" stroke-linejoin="round"/><polyline points="192,192 187,187" fill="none" stroke="#168b2a" stroke-width="5" stroke-linecap="round" stroke-linejoin="round"/><polyline points="197,212 192,212" fill="none" stroke="#168b2a" stroke-width="5" stroke-linecap="round" stroke-linejoin="round"/><polyline points="222,197 222,192" fill="none" stroke="#168b2a" stroke-width="5" stroke-linecap="round" stroke-linejoin="round"/><polyline points="232,182 232,177" fill="none" stroke="#168b2a" stroke-width="5" stroke-linecap="round" stroke-linejoin="round"/><polyline points="242,197 252,187 252,182" fill="none" stroke="#168b2a" stroke-width="5" stroke-linecap="round" stroke-linejoin="round"/><polyline points="257,207 252,207" fill="none" stroke="#168b2a" stroke-width="5" stroke-linecap="round" stroke-linejoin="round"/><polyline points="262,222 267,217" fill="none" stroke="#168b2a" stroke-width="5" stroke-linecap="round" stroke-linejoin="round"/><polyline points="272,227 277,227" fill="none" stroke="#168b2a" stroke-width="5" stroke-linecap="round" stroke-linejoin="round"/><polyline points="287,207 292,202" fill="none" stroke="#168b2a" stroke-width="5" stroke-linecap="round" stroke-linejoin="round"/><polyline points="292,187 292,182" fill="none" stroke="#168b2a" stroke-width="5" stroke-linecap="round" stroke-linejoin="round"/><polyline points="302,212 297,212" fill="none" stroke="#168b2a" stroke-width="5" stroke-linecap="round" stroke-linejoin="round"/><polyline points="317,192 322,187" fill="none" stroke="#168b2a" stroke-width="5" stroke-linecap="round" stroke-linejoin="round"/><polyline points="322,222 327,222" fill="none" stroke="#168b2a" stroke-width="5" stroke-linecap="round" stroke-linejoin="round"/><polyline points="342,217 337,217" fill="none" stroke="#168b2a" stroke-width="5" stroke-linecap="round" stroke-linejoin="round"/><polyline points="347,197 352,192" fill="none" stroke="#168b2a" stroke-width="5" stroke-linecap="round" stroke-linejoin="round"/><polyline points="347,222 352,222" fill="none" stroke="#168b2a" stroke-width="5" stroke-linecap="round" stroke-linejoin="round"/><polyline points="357,237 362,237" fill="none" stroke="#168b2a" stroke-width="5" stroke-linecap="round" stroke-linejoin="round"/><polyline points="382,222 387,217" fill="none" stroke="#168b2a" stroke-width="5" stroke-linecap="round" stroke-linejoin="round"/><polyline points="392,202 397,197" fill="none" stroke="#168b2a" stroke-width="5" stroke-linecap="round" stroke-linejoin="round"/><polyline points="412,262 417,257" fill="none" stroke="#168b2a" stroke-width="5" stroke-linecap="round" stroke-linejoin="round"/><polyline points="422,287 427,287" fill="none" stroke="#168b2a" stroke-width="5" stroke-linecap="round" stroke-linejoin="round"/><polyline points="402,282 407,277" fill="none" stroke="#168b2a" stroke-width="5" stroke-linecap="round" stroke-linejoin="round"/><polyline points="412,372 407,377" fill="none" stroke="#168b2a" stroke-width="5" stroke-linecap="round" stroke-linejoin="round"/><polyline points="442,372 447,377" fill="none" stroke="#168b2a" stroke-width="5" stroke-linecap="round" stroke-linejoin="round"/><polyline points="427,347 432,347" fill="none" stroke="#168b2a" stroke-width="5" stroke-linecap="round" stroke-linejoin="round"/><polyline points="407,367 412,372" fill="none" stroke="#168b2a" stroke-width="5" stroke-linecap="round" stroke-linejoin="round"/><polyline points="402,332 407,327" fill="none" stroke="#168b2a" stroke-width="5" stroke-linecap="round" stroke-linejoin="round"/><polyline points="142,367 137,367" fill="none" stroke="#168b2a" stroke-width="5" stroke-linecap="round" stroke-linejoin="round"/><polyline points="142,327 137,332" fill="none" stroke="#168b2a" stroke-width="5" stroke-linecap="round" stroke-linejoin="round"/><polyline points="167,302 162,302" fill="none" stroke="#168b2a" stroke-width="5" stroke-linecap="round" stroke-linejoin="round"/><polyline points="182,277 177,277" fill="none" stroke="#168b2a" stroke-width="5" stroke-linecap="round" stroke-linejoin="round"/><polyline points="182,237 177,237" fill="none" stroke="#168b2a" stroke-width="5" stroke-linecap="round" stroke-linejoin="round"/><polyline points="222,227 217,227" fill="none" stroke="#168b2a" stroke-width="5" stroke-linecap="round" stroke-linejoin="round"/><polyline points="247,212 247,207" fill="none" stroke="#168b2a" stroke-width="5" stroke-linecap="round" stroke-linejoin="round"/><polyline points="272,277 267,277" fill="none" stroke="#168b2a" stroke-width="5" stroke-linecap="round" stroke-linejoin="round"/><polyline points="302,242 307,242" fill="none" stroke="#168b2a" stroke-width="5" stroke-linecap="round" stroke-linejoin="round"/><polyline points="322,232 327,232" fill="none" stroke="#168b2a" stroke-width="5" stroke-linecap="round" stroke-linejoin="round"/><polyline points="347,302 352,302" fill="none" stroke="#168b2a" stroke-width="5" stroke-linecap="round" stroke-linejoin="round"/><polyline points="382,302 387,302" fill="none" stroke="#168b2a" stroke-width="5" stroke-linecap="round" stroke-linejoin="round"/><polyline points="382,342 387,342" fill="none" stroke="#168b2a" stroke-width="5" stroke-linecap="round" stroke-linejoin="round"/><polyline points="342,342 347,337" fill="none" stroke="#168b2a" stroke-width="5" stroke-linecap="round" stroke-linejoin="round"/></g>
</g>
</g>
</g></svg>