<svg xmlns="http://www.w3.org/2000/svg" width="1040" height="680" viewBox="0 0 1040 680" font-family="ui-monospace, SFMono-Regular, &quot;Cascadia Mono&quot;, Menlo, Consolas, monospace" role="img" aria-labelledby="tp-title tp-desc">
<title id="tp-title">Quantum Neural Processor</title>
<desc id="tp-desc">13 diagram elements across 2 visible page(s)</desc>
<metadata>{"schema":3,"name":"Quantum Neural Processor","view":null,"elements":13}</metadata>
<style>
  .bg { fill: #f4f3ef; }
  .grid { stroke: #dedbd3; stroke-width: 0.5; }
  .grid-major { stroke: #cbc7bd; stroke-width: 0.5; }
  .box { fill: #e9e7e1; stroke: #2b2a26; stroke-width: 1; }
  .box-label, .key-title, .key-label { fill: #2b2a26; }
  .stroke { fill: #2b2a26; }
  .hop { stroke: #2b2a26; }
  .free-text { fill: #6b6862; }
  .hit-S0 { fill: #8a5b56; opacity: 0.30; }
  .hit-S1 { fill: #96755c; opacity: 0.28; }
  .hit-S2 { fill: #87805a; opacity: 0.24; }
  .hit-S3 { fill: #4a6572; opacity: 0.20; }
  .dimmed { fill: url(#tp-stipple); }
  .dither-run { fill: #2b2a26; }
  .simplify-run { fill: #2b2a26; }
  @media (prefers-color-scheme: dark) {
    .bg { fill: #1a1917; }
    .grid { stroke: #2e2c28; }
    .grid-major { stroke: #3d3a35; }
    .box { fill: #232220; stroke: #dedbd3; }
    .box-label { fill: #dedbd3; }
    .free-text { fill: #9a968d; }
    .stroke { fill: #dedbd3; }
    .hop { stroke: #dedbd3; }
  }

</style>
<defs>

  <!-- Grey earned by pattern rather than assumed. The stipple is drawn at the
       5px quadrant so a dimmed element is made of the same units as every
       other mark on the page. -->
  <pattern id="tp-stipple" width="10" height="10" patternUnits="userSpaceOnUse">
    <rect width="5" height="5" fill="#2b2a26"/>
    <rect x="5" y="5" width="5" height="5" fill="#2b2a26"/>
  </pattern>
</defs>
<rect class="bg" x="0" y="0" width="1040" height="680"/>
<g transform="translate(-10,-10)"><line class="grid" x1="-10" y1="-10" x2="-10" y2="710"/><line class="grid-major" x1="0" y1="-10" x2="0" y2="710"/><line class="grid" x1="10" y1="-10" x2="10" y2="710"/><line class="grid" x1="20" y1="-10" x2="20" y2="710"/><line class="grid" x1="30" y1="-10" x2="30" y2="710"/><line class="grid" x1="40" y1="-10" x2="40" y2="710"/><line class="grid" x1="50" y1="-10" x2="50" y2="710"/><line class="grid" x1="60" y1="-10" x2="60" y2="710"/><line class="grid" x1="70" y1="-10" x2="70" y2="710"/><line class="grid" x1="80" y1="-10" x2="80" y2="710"/><line class="grid" x1="90" y1="-10" x2="90" y2="710"/><line class="grid-major" x1="100" y1="-10" x2="100" y2="710"/><line class="grid" x1="110" y1="-10" x2="110" y2="710"/><line class="grid" x1="120" y1="-10" x2="120" y2="710"/><line class="grid" x1="130" y1="-10" x2="130" y2="710"/><line class="grid" x1="140" y1="-10" x2="140" y2="710"/><line class="grid" x1="150" y1="-10" x2="150" y2="710"/><line class="grid" x1="160" y1="-10" x2="160" y2="710"/><line class="grid" x1="170" y1="-10" x2="170" y2="710"/><line class="grid" x1="180" y1="-10" x2="180" y2="710"/><line class="grid" x1="190" y1="-10" x2="190" y2="710"/><line class="grid-major" x1="200" y1="-10" x2="200" y2="710"/><line class="grid" x1="210" y1="-10" x2="210" y2="710"/><line class="grid" x1="220" y1="-10" x2="220" y2="710"/><line class="grid" x1="230" y1="-10" x2="230" y2="710"/><line class="grid" x1="240" y1="-10" x2="240" y2="710"/><line class="grid" x1="250" y1="-10" x2="250" y2="710"/><line class="grid" x1="260" y1="-10" x2="260" y2="710"/><line class="grid" x1="270" y1="-10" x2="270" y2="710"/><line class="grid" x1="280" y1="-10" x2="280" y2="710"/><line class="grid" x1="290" y1="-10" x2="290" y2="710"/><line class="grid-major" x1="300" y1="-10" x2="300" y2="710"/><line class="grid" x1="310" y1="-10" x2="310" y2="710"/><line class="grid" x1="320" y1="-10" x2="320" y2="710"/><line class="grid" x1="330" y1="-10" x2="330" y2="710"/><line class="grid" x1="340" y1="-10" x2="340" y2="710"/><line class="grid" x1="350" y1="-10" x2="350" y2="710"/><line class="grid" x1="360" y1="-10" x2="360" y2="710"/><line class="grid" x1="370" y1="-10" x2="370" y2="710"/><line class="grid" x1="380" y1="-10" x2="380" y2="710"/><line class="grid" x1="390" y1="-10" x2="390" y2="710"/><line class="grid-major" x1="400" y1="-10" x2="400" y2="710"/><line class="grid" x1="410" y1="-10" x2="410" y2="710"/><line class="grid" x1="420" y1="-10" x2="420" y2="710"/><line class="grid" x1="430" y1="-10" x2="430" y2="710"/><line class="grid" x1="440" y1="-10" x2="440" y2="710"/><line class="grid" x1="450" y1="-10" x2="450" y2="710"/><line class="grid" x1="460" y1="-10" x2="460" y2="710"/><line class="grid" x1="470" y1="-10" x2="470" y2="710"/><line class="grid" x1="480" y1="-10" x2="480" y2="710"/><line class="grid" x1="490" y1="-10" x2="490" y2="710"/><line class="grid-major" x1="500" y1="-10" x2="500" y2="710"/><line class="grid" x1="510" y1="-10" x2="510" y2="710"/><line class="grid" x1="520" y1="-10" x2="520" y2="710"/><line class="grid" x1="530" y1="-10" x2="530" y2="710"/><line class="grid" x1="540" y1="-10" x2="540" y2="710"/><line class="grid" x1="550" y1="-10" x2="550" y2="710"/><line class="grid" x1="560" y1="-10" x2="560" y2="710"/><line class="grid" x1="570" y1="-10" x2="570" y2="710"/><line class="grid" x1="580" y1="-10" x2="580" y2="710"/><line class="grid" x1="590" y1="-10" x2="590" y2="710"/><line class="grid-major" x1="600" y1="-10" x2="600" y2="710"/><line class="grid" x1="610" y1="-10" x2="610" y2="710"/><line class="grid" x1="620" y1="-10" x2="620" y2="710"/><line class="grid" x1="630" y1="-10" x2="630" y2="710"/><line class="grid" x1="640" y1="-10" x2="640" y2="710"/><line class="grid" x1="650" y1="-10" x2="650" y2="710"/><line class="grid" x1="660" y1="-10" x2="660" y2="710"/><line class="grid" x1="670" y1="-10" x2="670" y2="710"/><line class="grid" x1="680" y1="-10" x2="680" y2="710"/><line class="grid" x1="690" y1="-10" x2="690" y2="710"/><line class="grid-major" x1="700" y1="-10" x2="700" y2="710"/><line class="grid" x1="710" y1="-10" x2="710" y2="710"/><line class="grid" x1="720" y1="-10" x2="720" y2="710"/><line class="grid" x1="730" y1="-10" x2="730" y2="710"/><line class="grid" x1="740" y1="-10" x2="740" y2="710"/><line class="grid" x1="750" y1="-10" x2="750" y2="710"/><line class="grid" x1="760" y1="-10" x2="760" y2="710"/><line class="grid" x1="770" y1="-10" x2="770" y2="710"/><line class="grid" x1="780" y1="-10" x2="780" y2="710"/><line class="grid" x1="790" y1="-10" x2="790" y2="710"/><line class="grid-major" x1="800" y1="-10" x2="800" y2="710"/><line class="grid" x1="810" y1="-10" x2="810" y2="710"/><line class="grid" x1="820" y1="-10" x2="820" y2="710"/><line class="grid" x1="830" y1="-10" x2="830" y2="710"/><line class="grid" x1="840" y1="-10" x2="840" y2="710"/><line class="grid" x1="850" y1="-10" x2="850" y2="710"/><line class="grid" x1="860" y1="-10" x2="860" y2="710"/><line class="grid" x1="870" y1="-10" x2="870" y2="710"/><line class="grid" x1="880" y1="-10" x2="880" y2="710"/><line class="grid" x1="890" y1="-10" x2="890" y2="710"/><line class="grid-major" x1="900" y1="-10" x2="900" y2="710"/><line class="grid" x1="910" y1="-10" x2="910" y2="710"/><line class="grid" x1="920" y1="-10" x2="920" y2="710"/><line class="grid" x1="930" y1="-10" x2="930" y2="710"/><line class="grid" x1="940" y1="-10" x2="940" y2="710"/><line class="grid" x1="950" y1="-10" x2="950" y2="710"/><line class="grid" x1="960" y1="-10" x2="960" y2="710"/><line class="grid" x1="970" y1="-10" x2="970" y2="710"/><line class="grid" x1="980" y1="-10" x2="980" y2="710"/><line class="grid" x1="990" y1="-10" x2="990" y2="710"/><line class="grid-major" x1="1000" y1="-10" x2="1000" y2="710"/><line class="grid" x1="1010" y1="-10" x2="1010" y2="710"/><line class="grid" x1="1020" y1="-10" x2="1020" y2="710"/><line class="grid" x1="1030" y1="-10" x2="1030" y2="710"/><line class="grid" x1="1040" y1="-10" x2="1040" y2="710"/><line class="grid" x1="1050" y1="-10" x2="1050" y2="710"/><line class="grid" x1="1060" y1="-10" x2="1060" y2="710"/><line class="grid" x1="1070" y1="-10" x2="1070" y2="710"/><line class="grid" x1="-10" y1="-10" x2="1070" y2="-10"/><line class="grid-major" x1="-10" y1="0" x2="1070" y2="0"/><line class="grid" x1="-10" y1="10" x2="1070" y2="10"/><line class="grid" x1="-10" y1="20" x2="1070" y2="20"/><line class="grid" x1="-10" y1="30" x2="1070" y2="30"/><line class="grid" x1="-10" y1="40" x2="1070" y2="40"/><line class="grid" x1="-10" y1="50" x2="1070" y2="50"/><line class="grid" x1="-10" y1="60" x2="1070" y2="60"/><line class="grid" x1="-10" y1="70" x2="1070" y2="70"/><line class="grid" x1="-10" y1="80" x2="1070" y2="80"/><line class="grid" x1="-10" y1="90" x2="1070" y2="90"/><line class="grid-major" x1="-10" y1="100" x2="1070" y2="100"/><line class="grid" x1="-10" y1="110" x2="1070" y2="110"/><line class="grid" x1="-10" y1="120" x2="1070" y2="120"/><line class="grid" x1="-10" y1="130" x2="1070" y2="130"/><line class="grid" x1="-10" y1="140" x2="1070" y2="140"/><line class="grid" x1="-10" y1="150" x2="1070" y2="150"/><line class="grid" x1="-10" y1="160" x2="1070" y2="160"/><line class="grid" x1="-10" y1="170" x2="1070" y2="170"/><line class="grid" x1="-10" y1="180" x2="1070" y2="180"/><line class="grid" x1="-10" y1="190" x2="1070" y2="190"/><line class="grid-major" x1="-10" y1="200" x2="1070" y2="200"/><line class="grid" x1="-10" y1="210" x2="1070" y2="210"/><line class="grid" x1="-10" y1="220" x2="1070" y2="220"/><line class="grid" x1="-10" y1="230" x2="1070" y2="230"/><line class="grid" x1="-10" y1="240" x2="1070" y2="240"/><line class="grid" x1="-10" y1="250" x2="1070" y2="250"/><line class="grid" x1="-10" y1="260" x2="1070" y2="260"/><line class="grid" x1="-10" y1="270" x2="1070" y2="270"/><line class="grid" x1="-10" y1="280" x2="1070" y2="280"/><line class="grid" x1="-10" y1="290" x2="1070" y2="290"/><line class="grid-major" x1="-10" y1="300" x2="1070" y2="300"/><line class="grid" x1="-10" y1="310" x2="1070" y2="310"/><line class="grid" x1="-10" y1="320" x2="1070" y2="320"/><line class="grid" x1="-10" y1="330" x2="1070" y2="330"/><line class="grid" x1="-10" y1="340" x2="1070" y2="340"/><line class="grid" x1="-10" y1="350" x2="1070" y2="350"/><line class="grid" x1="-10" y1="360" x2="1070" y2="360"/><line class="grid" x1="-10" y1="370" x2="1070" y2="370"/><line class="grid" x1="-10" y1="380" x2="1070" y2="380"/><line class="grid" x1="-10" y1="390" x2="1070" y2="390"/><line class="grid-major" x1="-10" y1="400" x2="1070" y2="400"/><line class="grid" x1="-10" y1="410" x2="1070" y2="410"/><line class="grid" x1="-10" y1="420" x2="1070" y2="420"/><line class="grid" x1="-10" y1="430" x2="1070" y2="430"/><line class="grid" x1="-10" y1="440" x2="1070" y2="440"/><line class="grid" x1="-10" y1="450" x2="1070" y2="450"/><line class="grid" x1="-10" y1="460" x2="1070" y2="460"/><line class="grid" x1="-10" y1="470" x2="1070" y2="470"/><line class="grid" x1="-10" y1="480" x2="1070" y2="480"/><line class="grid" x1="-10" y1="490" x2="1070" y2="490"/><line class="grid-major" x1="-10" y1="500" x2="1070" y2="500"/><line class="grid" x1="-10" y1="510" x2="1070" y2="510"/><line class="grid" x1="-10" y1="520" x2="1070" y2="520"/><line class="grid" x1="-10" y1="530" x2="1070" y2="530"/><line class="grid" x1="-10" y1="540" x2="1070" y2="540"/><line class="grid" x1="-10" y1="550" x2="1070" y2="550"/><line class="grid" x1="-10" y1="560" x2="1070" y2="560"/><line class="grid" x1="-10" y1="570" x2="1070" y2="570"/><line class="grid" x1="-10" y1="580" x2="1070" y2="580"/><line class="grid" x1="-10" y1="590" x2="1070" y2="590"/><line class="grid-major" x1="-10" y1="600" x2="1070" y2="600"/><line class="grid" x1="-10" y1="610" x2="1070" y2="610"/><line class="grid" x1="-10" y1="620" x2="1070" y2="620"/><line class="grid" x1="-10" y1="630" x2="1070" y2="630"/><line class="grid" x1="-10" y1="640" x2="1070" y2="640"/><line class="grid" x1="-10" y1="650" x2="1070" y2="650"/><line class="grid" x1="-10" y1="660" x2="1070" y2="660"/><line class="grid" x1="-10" y1="670" x2="1070" y2="670"/><line class="grid" x1="-10" y1="680" x2="1070" y2="680"/><line class="grid" x1="-10" y1="690" x2="1070" y2="690"/><line class="grid-major" x1="-10" y1="700" x2="1070" y2="700"/><line class="grid" x1="-10" y1="710" x2="1070" y2="710"/></g>
<g transform="translate(-10,-10)">
<g data-page="die_bg" data-z="-1" opacity="0.92">
<g data-element="die-outer" role="group" aria-label="box die-outer: PROCESSOR DIE (4nm Q-CMOS)">
<path class="box" d="M30,90 H1030 V630 H30 Z" data-id="die-outer" style="fill:#0f172a"/><text class="box-label" x="35" y="364" font-size="10" textLength="156" lengthAdjust="spacingAndGlyphs" xml:space="preserve">PROCESSOR DIE (4nm Q-CMOS)</text>
</g>
</g>
<g data-page="base" data-z="0" opacity="1">
<g data-element="title" role="group" aria-label="box title: QN-64X QUANTUM NEURAL PROCESSOR DIE ARCHITECTURE">
<path class="box" d="M35,30 H1025 L1030,35 V65 L1025,70 H35 L30,65 V35 Z" data-id="title" style="fill:#1e293b"/><text class="box-label" x="362" y="55" font-size="12" textLength="336" lengthAdjust="spacingAndGlyphs" xml:space="preserve">QN-64X QUANTUM NEURAL PROCESSOR DIE ARCHITECTURE</text>
</g>
<g data-element="core-q1" role="group" aria-label="box core-q1: Q-CORE CLUSTER 0 (Cores 0-15)
16x SQUID Qubits | Cryo-Control">
<path class="box" d="M75,150 H425 A5,5 0 0 1 430,155 V305 A5,5 0 0 1 425,310 H75 A5,5 0 0 1 70,305 V155 A5,5 0 0 1 75,150 Z" data-id="core-q1" style="fill:#1e1b4b"/><text class="box-label" x="163" y="226" font-size="10" textLength="174" lengthAdjust="spacingAndGlyphs" xml:space="preserve">Q-CORE CLUSTER 0 (Cores 0-15)</text><text class="box-label" x="157" y="241" font-size="10" textLength="186" lengthAdjust="spacingAndGlyphs" xml:space="preserve">16x SQUID Qubits | Cryo-Control</text>
</g>
<g data-element="core-q2" role="group" aria-label="box core-q2: Q-CORE CLUSTER 1 (Cores 16-31)
16x SQUID Qubits | Cryo-Control">
<path class="box" d="M575,150 H925 A5,5 0 0 1 930,155 V305 A5,5 0 0 1 925,310 H575 A5,5 0 0 1 570,305 V155 A5,5 0 0 1 575,150 Z" data-id="core-q2" style="fill:#1e1b4b"/><text class="box-label" x="660" y="226" font-size="10" textLength="180" lengthAdjust="spacingAndGlyphs" xml:space="preserve">Q-CORE CLUSTER 1 (Cores 16-31)</text><text class="box-label" x="657" y="241" font-size="10" textLength="186" lengthAdjust="spacingAndGlyphs" xml:space="preserve">16x SQUID Qubits | Cryo-Control</text>
</g>
<g data-element="core-q3" role="group" aria-label="box core-q3: Q-CORE CLUSTER 2 (Cores 32-47)
16x SQUID Qubits | Cryo-Control">
<path class="box" d="M75,430 H425 A5,5 0 0 1 430,435 V585 A5,5 0 0 1 425,590 H75 A5,5 0 0 1 70,585 V435 A5,5 0 0 1 75,430 Z" data-id="core-q3" style="fill:#1e1b4b"/><text class="box-label" x="160" y="506" font-size="10" textLength="180" lengthAdjust="spacingAndGlyphs" xml:space="preserve">Q-CORE CLUSTER 2 (Cores 32-47)</text><text class="box-label" x="157" y="521" font-size="10" textLength="186" lengthAdjust="spacingAndGlyphs" xml:space="preserve">16x SQUID Qubits | Cryo-Control</text>
</g>
<g data-element="core-q4" role="group" aria-label="box core-q4: Q-CORE CLUSTER 3 (Cores 48-63)
16x SQUID Qubits | Cryo-Control">
<path class="box" d="M575,430 H925 A5,5 0 0 1 930,435 V585 A5,5 0 0 1 925,590 H575 A5,5 0 0 1 570,585 V435 A5,5 0 0 1 575,430 Z" data-id="core-q4" style="fill:#1e1b4b"/><text class="box-label" x="660" y="506" font-size="10" textLength="180" lengthAdjust="spacingAndGlyphs" xml:space="preserve">Q-CORE CLUSTER 3 (Cores 48-63)</text><text class="box-label" x="657" y="521" font-size="10" textLength="186" lengthAdjust="spacingAndGlyphs" xml:space="preserve">16x SQUID Qubits | Cryo-Control</text>
</g>
<g data-element="hub" role="group" aria-label="box hub: PHOTONIC MESH
INTERCONNECT">
<path class="box" d="M455,330 H605 L610,335 V405 L605,410 H455 L450,405 V335 Z" data-id="hub" style="fill:#431407"/><text class="box-label" x="491" y="366" font-size="10" textLength="78" lengthAdjust="spacingAndGlyphs" xml:space="preserve">PHOTONIC MESH</text><text class="box-label" x="494" y="381" font-size="10" textLength="72" lengthAdjust="spacingAndGlyphs" xml:space="preserve">INTERCONNECT</text>
</g>
<g data-element="bus-q1" role="group" aria-label="path bus-q1">
<g data-id="bus-q1" data-kind="path" data-role="connector"><polyline points="252,312 252,372 447,372" fill="none" stroke="#ff6600" stroke-width="2" stroke-linecap="butt" stroke-linejoin="round"/><path d="M445,370 L450,372.5 L445,375 Z" fill="#ff6600" stroke="none"/></g>
</g>
<g data-element="bus-q2" role="group" aria-label="path bus-q2">
<g data-id="bus-q2" data-kind="path" data-role="connector"><polyline points="752,312 752,372 612,372" fill="none" stroke="#ff6600" stroke-width="2" stroke-linecap="butt" stroke-linejoin="round"/><path d="M615,370 L610,372.5 L615,375 Z" fill="#ff6600" stroke="none"/></g>
</g>
<g data-element="bus-q3" role="group" aria-label="path bus-q3">
<g data-id="bus-q3" data-kind="path" data-role="connector"><polyline points="252,427 252,372 447,372" fill="none" stroke="#ff6600" stroke-width="2" stroke-linecap="butt" stroke-linejoin="round"/><path d="M445,370 L450,372.5 L445,375 Z" fill="#ff6600" stroke="none"/></g>
</g>
<g data-element="bus-q4" role="group" aria-label="path bus-q4">
<g data-id="bus-q4" data-kind="path" data-role="connector"><polyline points="752,427 752,372 612,372" fill="none" stroke="#ff6600" stroke-width="2" stroke-linecap="butt" stroke-linejoin="round"/><path d="M615,370 L610,372.5 L615,375 Z" fill="#ff6600" stroke="none"/></g>
</g>
<g data-element="pcie" role="group" aria-label="box pcie: HIGH-SPEED CRYOGENIC PCIe Gen 6 INTERFACE">
<path class="box" d="M30,640 H480 V670 H30 Z" data-id="pcie" style="fill:#064e3b"/><text class="box-label" x="132" y="659" font-size="10" textLength="246" lengthAdjust="spacingAndGlyphs" xml:space="preserve">HIGH-SPEED CRYOGENIC PCIe Gen 6 INTERFACE</text>
</g>
<g data-element="mem-ctrl" role="group" aria-label="box mem-ctrl: HBM3e QUANTUM MEMORY CONTROLLER (1 TB/s)">
<path class="box" d="M550,640 H1000 V670 H550 Z" data-id="mem-ctrl" style="fill:#064e3b"/><text class="box-label" x="655" y="659" font-size="10" textLength="240" lengthAdjust="spacingAndGlyphs" xml:space="preserve">HBM3e QUANTUM MEMORY CONTROLLER (1 TB/s)</text>
</g>
</g>
</g>
</svg>