<svg xmlns="http://www.w3.org/2000/svg" width="385" height="445" viewBox="0 0 385 445" font-family="ui-monospace, SFMono-Regular, &quot;Cascadia Mono&quot;, Menlo, Consolas, monospace" role="img" aria-labelledby="tp-title tp-desc">
<title id="tp-title">Celestial Starmap</title>
<desc id="tp-desc">17 diagram elements across 4 visible page(s)</desc>
<metadata>{"schema":3,"name":"Celestial Starmap","view":null,"elements":17}</metadata>
<style>
  .bg { fill: #f4f3ef; }
  .grid { stroke: #dedbd3; stroke-width: 0.5; }
  .grid-major { stroke: #cbc7bd; stroke-width: 0.5; }
  .box { fill: #e9e7e1; stroke: #2b2a26; stroke-width: 1; }
  .box-label, .key-title, .key-label { fill: #2b2a26; }
  .stroke { fill: #2b2a26; }
  .hop { stroke: #2b2a26; }
  .free-text { fill: #6b6862; }
  .hit-S0 { fill: #8a5b56; opacity: 0.30; }
  .hit-S1 { fill: #96755c; opacity: 0.28; }
  .hit-S2 { fill: #87805a; opacity: 0.24; }
  .hit-S3 { fill: #4a6572; opacity: 0.20; }
  .dimmed { fill: url(#tp-stipple); }
  .dither-run { fill: #2b2a26; }
  .simplify-run { fill: #2b2a26; }
  @media (prefers-color-scheme: dark) {
    .bg { fill: #1a1917; }
    .grid { stroke: #2e2c28; }
    .grid-major { stroke: #3d3a35; }
    .box { fill: #232220; stroke: #dedbd3; }
    .box-label { fill: #dedbd3; }
    .free-text { fill: #9a968d; }
    .stroke { fill: #dedbd3; }
    .hop { stroke: #dedbd3; }
  }

</style>
<defs>

  <!-- Grey earned by pattern rather than assumed. The stipple is drawn at the
       5px quadrant so a dimmed element is made of the same units as every
       other mark on the page. -->
  <pattern id="tp-stipple" width="10" height="10" patternUnits="userSpaceOnUse">
    <rect width="5" height="5" fill="#2b2a26"/>
    <rect x="5" y="5" width="5" height="5" fill="#2b2a26"/>
  </pattern>
</defs>
<rect class="bg" x="0" y="0" width="385" height="445"/>
<g transform="translate(-205,-145)"><line class="grid" x1="180" y1="125" x2="180" y2="610"/><line class="grid" x1="190" y1="125" x2="190" y2="610"/><line class="grid-major" x1="200" y1="125" x2="200" y2="610"/><line class="grid" x1="210" y1="125" x2="210" y2="610"/><line class="grid" x1="220" y1="125" x2="220" y2="610"/><line class="grid" x1="230" y1="125" x2="230" y2="610"/><line class="grid" x1="240" y1="125" x2="240" y2="610"/><line class="grid" x1="250" y1="125" x2="250" y2="610"/><line class="grid" x1="260" y1="125" x2="260" y2="610"/><line class="grid" x1="270" y1="125" x2="270" y2="610"/><line class="grid" x1="280" y1="125" x2="280" y2="610"/><line class="grid" x1="290" y1="125" x2="290" y2="610"/><line class="grid-major" x1="300" y1="125" x2="300" y2="610"/><line class="grid" x1="310" y1="125" x2="310" y2="610"/><line class="grid" x1="320" y1="125" x2="320" y2="610"/><line class="grid" x1="330" y1="125" x2="330" y2="610"/><line class="grid" x1="340" y1="125" x2="340" y2="610"/><line class="grid" x1="350" y1="125" x2="350" y2="610"/><line class="grid" x1="360" y1="125" x2="360" y2="610"/><line class="grid" x1="370" y1="125" x2="370" y2="610"/><line class="grid" x1="380" y1="125" x2="380" y2="610"/><line class="grid" x1="390" y1="125" x2="390" y2="610"/><line class="grid-major" x1="400" y1="125" x2="400" y2="610"/><line class="grid" x1="410" y1="125" x2="410" y2="610"/><line class="grid" x1="420" y1="125" x2="420" y2="610"/><line class="grid" x1="430" y1="125" x2="430" y2="610"/><line class="grid" x1="440" y1="125" x2="440" y2="610"/><line class="grid" x1="450" y1="125" x2="450" y2="610"/><line class="grid" x1="460" y1="125" x2="460" y2="610"/><line class="grid" x1="470" y1="125" x2="470" y2="610"/><line class="grid" x1="480" y1="125" x2="480" y2="610"/><line class="grid" x1="490" y1="125" x2="490" y2="610"/><line class="grid-major" x1="500" y1="125" x2="500" y2="610"/><line class="grid" x1="510" y1="125" x2="510" y2="610"/><line class="grid" x1="520" y1="125" x2="520" y2="610"/><line class="grid" x1="530" y1="125" x2="530" y2="610"/><line class="grid" x1="540" y1="125" x2="540" y2="610"/><line class="grid" x1="550" y1="125" x2="550" y2="610"/><line class="grid" x1="560" y1="125" x2="560" y2="610"/><line class="grid" x1="570" y1="125" x2="570" y2="610"/><line class="grid" x1="580" y1="125" x2="580" y2="610"/><line class="grid" x1="590" y1="125" x2="590" y2="610"/><line class="grid-major" x1="600" y1="125" x2="600" y2="610"/><line class="grid" x1="610" y1="125" x2="610" y2="610"/><line class="grid" x1="185" y1="120" x2="610" y2="120"/><line class="grid" x1="185" y1="130" x2="610" y2="130"/><line class="grid" x1="185" y1="140" x2="610" y2="140"/><line class="grid" x1="185" y1="150" x2="610" y2="150"/><line class="grid" x1="185" y1="160" x2="610" y2="160"/><line class="grid" x1="185" y1="170" x2="610" y2="170"/><line class="grid" x1="185" y1="180" x2="610" y2="180"/><line class="grid" x1="185" y1="190" x2="610" y2="190"/><line class="grid-major" x1="185" y1="200" x2="610" y2="200"/><line class="grid" x1="185" y1="210" x2="610" y2="210"/><line class="grid" x1="185" y1="220" x2="610" y2="220"/><line class="grid" x1="185" y1="230" x2="610" y2="230"/><line class="grid" x1="185" y1="240" x2="610" y2="240"/><line class="grid" x1="185" y1="250" x2="610" y2="250"/><line class="grid" x1="185" y1="260" x2="610" y2="260"/><line class="grid" x1="185" y1="270" x2="610" y2="270"/><line class="grid" x1="185" y1="280" x2="610" y2="280"/><line class="grid" x1="185" y1="290" x2="610" y2="290"/><line class="grid-major" x1="185" y1="300" x2="610" y2="300"/><line class="grid" x1="185" y1="310" x2="610" y2="310"/><line class="grid" x1="185" y1="320" x2="610" y2="320"/><line class="grid" x1="185" y1="330" x2="610" y2="330"/><line class="grid" x1="185" y1="340" x2="610" y2="340"/><line class="grid" x1="185" y1="350" x2="610" y2="350"/><line class="grid" x1="185" y1="360" x2="610" y2="360"/><line class="grid" x1="185" y1="370" x2="610" y2="370"/><line class="grid" x1="185" y1="380" x2="610" y2="380"/><line class="grid" x1="185" y1="390" x2="610" y2="390"/><line class="grid-major" x1="185" y1="400" x2="610" y2="400"/><line class="grid" x1="185" y1="410" x2="610" y2="410"/><line class="grid" x1="185" y1="420" x2="610" y2="420"/><line class="grid" x1="185" y1="430" x2="610" y2="430"/><line class="grid" x1="185" y1="440" x2="610" y2="440"/><line class="grid" x1="185" y1="450" x2="610" y2="450"/><line class="grid" x1="185" y1="460" x2="610" y2="460"/><line class="grid" x1="185" y1="470" x2="610" y2="470"/><line class="grid" x1="185" y1="480" x2="610" y2="480"/><line class="grid" x1="185" y1="490" x2="610" y2="490"/><line class="grid-major" x1="185" y1="500" x2="610" y2="500"/><line class="grid" x1="185" y1="510" x2="610" y2="510"/><line class="grid" x1="185" y1="520" x2="610" y2="520"/><line class="grid" x1="185" y1="530" x2="610" y2="530"/><line class="grid" x1="185" y1="540" x2="610" y2="540"/><line class="grid" x1="185" y1="550" x2="610" y2="550"/><line class="grid" x1="185" y1="560" x2="610" y2="560"/><line class="grid" x1="185" y1="570" x2="610" y2="570"/><line class="grid" x1="185" y1="580" x2="610" y2="580"/><line class="grid" x1="185" y1="590" x2="610" y2="590"/><line class="grid-major" x1="185" y1="600" x2="610" y2="600"/><line class="grid" x1="185" y1="610" x2="610" y2="610"/></g>
<g transform="translate(-205,-145)">
<g data-page="constellations" data-z="-1" opacity="0.92">
<g data-element="star-alpha" role="group" aria-label="path star-alpha">
<g data-id="star-alpha" data-kind="path" data-role="artwork" data-paint="cells"><rect x="275" y="180" width="5" height="5" fill="#fef08a"/><rect x="265" y="185" width="25" height="5" fill="#fef08a"/><rect x="265" y="190" width="25" height="5" fill="#fef08a"/><rect x="260" y="195" width="35" height="5" fill="#fef08a"/><rect x="265" y="200" width="25" height="5" fill="#fef08a"/><rect x="265" y="205" width="25" height="5" fill="#fef08a"/><rect x="275" y="210" width="5" height="5" fill="#fef08a"/></g>
</g>
<g data-element="star-beta" role="group" aria-label="path star-beta">
<g data-id="star-beta" data-kind="path" data-role="artwork" data-paint="cells"><rect x="355" y="165" width="5" height="5" fill="#ffffff"/><rect x="350" y="170" width="15" height="5" fill="#ffffff"/><rect x="345" y="175" width="25" height="5" fill="#ffffff"/><rect x="350" y="180" width="15" height="5" fill="#ffffff"/><rect x="355" y="185" width="5" height="5" fill="#ffffff"/></g>
</g>
<g data-element="star-gamma" role="group" aria-label="path star-gamma">
<g data-id="star-gamma" data-kind="path" data-role="artwork" data-paint="cells"><rect x="455" y="200" width="5" height="5" fill="#fef08a"/><rect x="445" y="205" width="25" height="5" fill="#fef08a"/><rect x="445" y="210" width="25" height="5" fill="#fef08a"/><rect x="440" y="215" width="35" height="5" fill="#fef08a"/><rect x="445" y="220" width="25" height="5" fill="#fef08a"/><rect x="445" y="225" width="25" height="5" fill="#fef08a"/><rect x="455" y="230" width="5" height="5" fill="#fef08a"/></g>
</g>
<g data-element="star-delta" role="group" aria-label="path star-delta">
<g data-id="star-delta" data-kind="path" data-role="artwork" data-paint="cells"><rect x="515" y="265" width="5" height="5" fill="#ffffff"/><rect x="510" y="270" width="15" height="5" fill="#ffffff"/><rect x="505" y="275" width="25" height="5" fill="#ffffff"/><rect x="510" y="280" width="15" height="5" fill="#ffffff"/><rect x="515" y="285" width="5" height="5" fill="#ffffff"/></g>
</g>
<g data-element="const-line1" role="group" aria-label="path const-line1">
<g data-id="const-line1" data-kind="path" data-role="artwork"><polyline points="277,197 357,177" fill="none" stroke="#fbbf24" stroke-width="1" stroke-linecap="butt" stroke-linejoin="round"/></g>
</g>
<g data-element="const-line2" role="group" aria-label="path const-line2">
<g data-id="const-line2" data-kind="path" data-role="artwork"><polyline points="357,177 457,217" fill="none" stroke="#fbbf24" stroke-width="1" stroke-linecap="butt" stroke-linejoin="round"/></g>
</g>
<g data-element="const-line3" role="group" aria-label="path const-line3">
<g data-id="const-line3" data-kind="path" data-role="artwork"><polyline points="457,217 517,277" fill="none" stroke="#fbbf24" stroke-width="1" stroke-linecap="butt" stroke-linejoin="round"/></g>
</g>
</g>
<g data-page="base" data-z="0" opacity="1">
</g>
<g data-page="zodiac_ring" data-z="1" opacity="0.92">
<g data-element="z-ring1" role="group" aria-label="path z-ring1">
<g data-id="z-ring1" data-kind="path" data-role="artwork"><polyline points="227,397 227,372 232,367 232,352 237,347 242,322 252,312 262,292 292,262 297,262 322,242 332,242 352,232 367,232 372,227 422,227 427,232 442,232 447,237 472,242 482,252 502,262 532,292 532,297 552,322 552,332 562,352 562,367 567,372 567,422 562,427 562,442 557,447 552,472 542,482 532,502 502,532 497,532 472,552 462,552 442,562 427,562 422,567 372,567 367,562 352,562 347,557 322,552 312,542 292,532 262,502 262,497 242,472 242,462 232,442 232,427 227,422 227,402" fill="none" stroke="#d97706" stroke-width="2" stroke-linecap="butt" stroke-linejoin="round"/></g>
</g>
<g data-element="z-ring2" role="group" aria-label="path z-ring2">
<g data-id="z-ring2" data-kind="path" data-role="artwork"><polyline points="247,397 247,372 252,367 252,352 272,312 312,272 317,272 327,262 337,262 352,252 367,252 372,247 422,247 427,252 442,252 457,262 467,262 477,272 482,272 522,312 522,317 532,327 532,337 542,352 542,367 547,372 547,422 542,427 542,442 532,457 532,467 522,477 522,482 482,522 477,522 467,532 457,532 442,542 427,542 422,547 372,547 367,542 352,542 337,532 327,532 317,522 312,522 272,482 272,477 262,467 262,457 252,442 252,427 247,422 247,402" fill="none" stroke="#b45309" stroke-width="1" stroke-linecap="butt" stroke-linejoin="round"/></g>
</g>
<g data-element="z-ring3" role="group" aria-label="path z-ring3">
<g data-id="z-ring3" data-kind="path" data-role="artwork"><polyline points="297,397 297,377 302,372 302,362 312,342 342,312 362,302 372,302 377,297 417,297 422,302 432,302 452,312 482,342 492,362 492,372 497,377 497,417 492,422 492,432 482,452 452,482 432,492 422,492 417,497 377,497 372,492 362,492 342,482 312,452 302,432 302,422 297,417 297,402" fill="none" stroke="#92400e" stroke-width="1" stroke-linecap="butt" stroke-linejoin="round"/></g>
</g>
<g data-element="ray-n" role="group" aria-label="path ray-n">
<g data-id="ray-n" data-kind="path" data-role="artwork"><polyline points="397,397 397,232" fill="none" stroke="#f59e0b" stroke-width="1" stroke-linecap="butt" stroke-linejoin="round"/></g>
</g>
<g data-element="ray-s" role="group" aria-label="path ray-s">
<g data-id="ray-s" data-kind="path" data-role="artwork"><polyline points="397,397 397,562" fill="none" stroke="#f59e0b" stroke-width="1" stroke-linecap="butt" stroke-linejoin="round"/></g>
</g>
<g data-element="ray-e" role="group" aria-label="path ray-e">
<g data-id="ray-e" data-kind="path" data-role="artwork"><polyline points="397,397 562,397" fill="none" stroke="#f59e0b" stroke-width="1" stroke-linecap="butt" stroke-linejoin="round"/></g>
</g>
<g data-element="ray-w" role="group" aria-label="path ray-w">
<g data-id="ray-w" data-kind="path" data-role="artwork"><polyline points="397,397 232,397" fill="none" stroke="#f59e0b" stroke-width="1" stroke-linecap="butt" stroke-linejoin="round"/></g>
</g>
</g>
<g data-page="center_icon" data-z="2" opacity="0.92">
<g data-element="sun-disc" role="group" aria-label="path sun-disc">
<g data-id="sun-disc" data-kind="path" data-role="artwork" data-paint="cells"><rect x="395" y="355" width="5" height="5" fill="#f59e0b"/><rect x="380" y="360" width="35" height="5" fill="#f59e0b"/><rect x="370" y="365" width="55" height="5" fill="#f59e0b"/><rect x="365" y="370" width="65" height="5" fill="#f59e0b"/><rect x="365" y="375" width="65" height="5" fill="#f59e0b"/><rect x="360" y="380" width="75" height="5" fill="#f59e0b"/><rect x="360" y="385" width="75" height="5" fill="#f59e0b"/><rect x="360" y="390" width="75" height="5" fill="#f59e0b"/><rect x="355" y="395" width="85" height="5" fill="#f59e0b"/><rect x="360" y="400" width="75" height="5" fill="#f59e0b"/><rect x="360" y="405" width="75" height="5" fill="#f59e0b"/><rect x="360" y="410" width="75" height="5" fill="#f59e0b"/><rect x="365" y="415" width="65" height="5" fill="#f59e0b"/><rect x="365" y="420" width="65" height="5" fill="#f59e0b"/><rect x="370" y="425" width="55" height="5" fill="#f59e0b"/><rect x="380" y="430" width="35" height="5" fill="#f59e0b"/><rect x="395" y="435" width="5" height="5" fill="#f59e0b"/></g>
</g>
<g data-element="moon-mask" role="group" aria-label="path moon-mask">
<g data-id="moon-mask" data-kind="path" data-role="artwork" data-paint="cells"><rect x="415" y="350" width="5" height="5" fill="#0f172a"/><rect x="400" y="355" width="35" height="5" fill="#0f172a"/><rect x="395" y="360" width="45" height="5" fill="#0f172a"/><rect x="390" y="365" width="55" height="5" fill="#0f172a"/><rect x="385" y="370" width="65" height="5" fill="#0f172a"/><rect x="385" y="375" width="65" height="5" fill="#0f172a"/><rect x="385" y="380" width="65" height="5" fill="#0f172a"/><rect x="380" y="385" width="75" height="5" fill="#0f172a"/><rect x="385" y="390" width="65" height="5" fill="#0f172a"/><rect x="385" y="395" width="65" height="5" fill="#0f172a"/><rect x="385" y="400" width="65" height="5" fill="#0f172a"/><rect x="390" y="405" width="55" height="5" fill="#0f172a"/><rect x="395" y="410" width="45" height="5" fill="#0f172a"/><rect x="400" y="415" width="35" height="5" fill="#0f172a"/><rect x="415" y="420" width="5" height="5" fill="#0f172a"/></g>
</g>
<g data-element="sun-rays" role="group" aria-label="path sun-rays">
<g data-id="sun-rays" data-kind="path" data-role="artwork"><polyline points="347,397 347,382 352,372 372,352 382,347 412,347 422,352 442,372 447,382 447,412 442,422 422,442 412,447 382,447 372,442 352,422 347,402" fill="none" stroke="#fef08a" stroke-width="2" stroke-linecap="butt" stroke-linejoin="round"/></g>
</g>
</g>
</g>
</svg>