<svg xmlns="http://www.w3.org/2000/svg" width="530" height="370" viewBox="0 0 530 370" font-family="ui-monospace, SFMono-Regular, &quot;Cascadia Mono&quot;, Menlo, Consolas, monospace" role="img" aria-labelledby="tp-title tp-desc">
<title id="tp-title">minisplit</title>
<desc id="tp-desc">19 diagram elements across 1 visible page(s)</desc>
<metadata>{"schema":3,"name":"minisplit","view":null,"elements":19}</metadata>
<style>
  .bg { fill: #f4f3ef; }
  .grid { stroke: #dedbd3; stroke-width: 0.5; }
  .grid-major { stroke: #cbc7bd; stroke-width: 0.5; }
  .box { fill: #e9e7e1; stroke: #2b2a26; stroke-width: 1; }
  .box-label, .key-title, .key-label { fill: #2b2a26; }
  .stroke { fill: #2b2a26; }
  .hop { stroke: #2b2a26; }
  .free-text { fill: #6b6862; }
  .hit-S0 { fill: #8a5b56; opacity: 0.30; }
  .hit-S1 { fill: #96755c; opacity: 0.28; }
  .hit-S2 { fill: #87805a; opacity: 0.24; }
  .hit-S3 { fill: #4a6572; opacity: 0.20; }
  .dimmed { fill: url(#tp-stipple); }
  .dither-run { fill: #2b2a26; }
  .simplify-run { fill: #2b2a26; }
  @media (prefers-color-scheme: dark) {
    .bg { fill: #1a1917; }
    .grid { stroke: #2e2c28; }
    .grid-major { stroke: #3d3a35; }
    .box { fill: #232220; stroke: #dedbd3; }
    .box-label { fill: #dedbd3; }
    .free-text { fill: #9a968d; }
    .stroke { fill: #dedbd3; }
    .hop { stroke: #dedbd3; }
  }

</style>
<defs>

  <!-- Grey earned by pattern rather than assumed. The stipple is drawn at the
       5px quadrant so a dimmed element is made of the same units as every
       other mark on the page. -->
  <pattern id="tp-stipple" width="10" height="10" patternUnits="userSpaceOnUse">
    <rect width="5" height="5" fill="#2b2a26"/>
    <rect x="5" y="5" width="5" height="5" fill="#2b2a26"/>
  </pattern>
</defs>
<rect class="bg" x="0" y="0" width="530" height="370"/>
<g transform="translate(15,15)"><line class="grid" x1="-40" y1="-35" x2="-40" y2="375"/><line class="grid" x1="-30" y1="-35" x2="-30" y2="375"/><line class="grid" x1="-20" y1="-35" x2="-20" y2="375"/><line class="grid" x1="-10" y1="-35" x2="-10" y2="375"/><line class="grid-major" x1="0" y1="-35" x2="0" y2="375"/><line class="grid" x1="10" y1="-35" x2="10" y2="375"/><line class="grid" x1="20" y1="-35" x2="20" y2="375"/><line class="grid" x1="30" y1="-35" x2="30" y2="375"/><line class="grid" x1="40" y1="-35" x2="40" y2="375"/><line class="grid" x1="50" y1="-35" x2="50" y2="375"/><line class="grid" x1="60" y1="-35" x2="60" y2="375"/><line class="grid" x1="70" y1="-35" x2="70" y2="375"/><line class="grid" x1="80" y1="-35" x2="80" y2="375"/><line class="grid" x1="90" y1="-35" x2="90" y2="375"/><line class="grid-major" x1="100" y1="-35" x2="100" y2="375"/><line class="grid" x1="110" y1="-35" x2="110" y2="375"/><line class="grid" x1="120" y1="-35" x2="120" y2="375"/><line class="grid" x1="130" y1="-35" x2="130" y2="375"/><line class="grid" x1="140" y1="-35" x2="140" y2="375"/><line class="grid" x1="150" y1="-35" x2="150" y2="375"/><line class="grid" x1="160" y1="-35" x2="160" y2="375"/><line class="grid" x1="170" y1="-35" x2="170" y2="375"/><line class="grid" x1="180" y1="-35" x2="180" y2="375"/><line class="grid" x1="190" y1="-35" x2="190" y2="375"/><line class="grid-major" x1="200" y1="-35" x2="200" y2="375"/><line class="grid" x1="210" y1="-35" x2="210" y2="375"/><line class="grid" x1="220" y1="-35" x2="220" y2="375"/><line class="grid" x1="230" y1="-35" x2="230" y2="375"/><line class="grid" x1="240" y1="-35" x2="240" y2="375"/><line class="grid" x1="250" y1="-35" x2="250" y2="375"/><line class="grid" x1="260" y1="-35" x2="260" y2="375"/><line class="grid" x1="270" y1="-35" x2="270" y2="375"/><line class="grid" x1="280" y1="-35" x2="280" y2="375"/><line class="grid" x1="290" y1="-35" x2="290" y2="375"/><line class="grid-major" x1="300" y1="-35" x2="300" y2="375"/><line class="grid" x1="310" y1="-35" x2="310" y2="375"/><line class="grid" x1="320" y1="-35" x2="320" y2="375"/><line class="grid" x1="330" y1="-35" x2="330" y2="375"/><line class="grid" x1="340" y1="-35" x2="340" y2="375"/><line class="grid" x1="350" y1="-35" x2="350" y2="375"/><line class="grid" x1="360" y1="-35" x2="360" y2="375"/><line class="grid" x1="370" y1="-35" x2="370" y2="375"/><line class="grid" x1="380" y1="-35" x2="380" y2="375"/><line class="grid" x1="390" y1="-35" x2="390" y2="375"/><line class="grid-major" x1="400" y1="-35" x2="400" y2="375"/><line class="grid" x1="410" y1="-35" x2="410" y2="375"/><line class="grid" x1="420" y1="-35" x2="420" y2="375"/><line class="grid" x1="430" y1="-35" x2="430" y2="375"/><line class="grid" x1="440" y1="-35" x2="440" y2="375"/><line class="grid" x1="450" y1="-35" x2="450" y2="375"/><line class="grid" x1="460" y1="-35" x2="460" y2="375"/><line class="grid" x1="470" y1="-35" x2="470" y2="375"/><line class="grid" x1="480" y1="-35" x2="480" y2="375"/><line class="grid" x1="490" y1="-35" x2="490" y2="375"/><line class="grid-major" x1="500" y1="-35" x2="500" y2="375"/><line class="grid" x1="510" y1="-35" x2="510" y2="375"/><line class="grid" x1="520" y1="-35" x2="520" y2="375"/><line class="grid" x1="530" y1="-35" x2="530" y2="375"/><line class="grid" x1="-35" y1="-40" x2="535" y2="-40"/><line class="grid" x1="-35" y1="-30" x2="535" y2="-30"/><line class="grid" x1="-35" y1="-20" x2="535" y2="-20"/><line class="grid" x1="-35" y1="-10" x2="535" y2="-10"/><line class="grid-major" x1="-35" y1="0" x2="535" y2="0"/><line class="grid" x1="-35" y1="10" x2="535" y2="10"/><line class="grid" x1="-35" y1="20" x2="535" y2="20"/><line class="grid" x1="-35" y1="30" x2="535" y2="30"/><line class="grid" x1="-35" y1="40" x2="535" y2="40"/><line class="grid" x1="-35" y1="50" x2="535" y2="50"/><line class="grid" x1="-35" y1="60" x2="535" y2="60"/><line class="grid" x1="-35" y1="70" x2="535" y2="70"/><line class="grid" x1="-35" y1="80" x2="535" y2="80"/><line class="grid" x1="-35" y1="90" x2="535" y2="90"/><line class="grid-major" x1="-35" y1="100" x2="535" y2="100"/><line class="grid" x1="-35" y1="110" x2="535" y2="110"/><line class="grid" x1="-35" y1="120" x2="535" y2="120"/><line class="grid" x1="-35" y1="130" x2="535" y2="130"/><line class="grid" x1="-35" y1="140" x2="535" y2="140"/><line class="grid" x1="-35" y1="150" x2="535" y2="150"/><line class="grid" x1="-35" y1="160" x2="535" y2="160"/><line class="grid" x1="-35" y1="170" x2="535" y2="170"/><line class="grid" x1="-35" y1="180" x2="535" y2="180"/><line class="grid" x1="-35" y1="190" x2="535" y2="190"/><line class="grid-major" x1="-35" y1="200" x2="535" y2="200"/><line class="grid" x1="-35" y1="210" x2="535" y2="210"/><line class="grid" x1="-35" y1="220" x2="535" y2="220"/><line class="grid" x1="-35" y1="230" x2="535" y2="230"/><line class="grid" x1="-35" y1="240" x2="535" y2="240"/><line class="grid" x1="-35" y1="250" x2="535" y2="250"/><line class="grid" x1="-35" y1="260" x2="535" y2="260"/><line class="grid" x1="-35" y1="270" x2="535" y2="270"/><line class="grid" x1="-35" y1="280" x2="535" y2="280"/><line class="grid" x1="-35" y1="290" x2="535" y2="290"/><line class="grid-major" x1="-35" y1="300" x2="535" y2="300"/><line class="grid" x1="-35" y1="310" x2="535" y2="310"/><line class="grid" x1="-35" y1="320" x2="535" y2="320"/><line class="grid" x1="-35" y1="330" x2="535" y2="330"/><line class="grid" x1="-35" y1="340" x2="535" y2="340"/><line class="grid" x1="-35" y1="350" x2="535" y2="350"/><line class="grid" x1="-35" y1="360" x2="535" y2="360"/><line class="grid" x1="-35" y1="370" x2="535" y2="370"/></g>
<g transform="translate(15,15)">
<g data-page="base" data-z="0" opacity="1">
<g data-element="wall_n" role="group" aria-label="box wall_n">
<path class="box" d="M5,5 H495 V10 H5 Z" data-id="wall_n"/>
</g>
<g data-element="wall_s" role="group" aria-label="box wall_s">
<path class="box" d="M5,330 H495 V335 H5 Z" data-id="wall_s"/>
</g>
<g data-element="wall_w" role="group" aria-label="box wall_w">
<path class="box" d="M5,10 H10 V330 H5 Z" data-id="wall_w"/>
</g>
<g data-element="wall_e" role="group" aria-label="box wall_e">
<path class="box" d="M490,10 H495 V330 H490 Z" data-id="wall_e"/>
</g>
<g data-element="STAIR" role="group" aria-label="box STAIR: STAIR">
<path class="box" d="M20,150 H180 V330 H20 Z" data-id="STAIR"/><text class="box-label" x="25" y="244" font-size="10" textLength="30" lengthAdjust="spacingAndGlyphs" xml:space="preserve">STAIR</text>
</g>
<g data-element="COND" role="group" aria-label="box COND: COND">
<path class="box" d="M190,135 H250 V180 H190 Z" data-id="COND"/><text class="box-label" x="195" y="161" font-size="10" textLength="24" lengthAdjust="spacingAndGlyphs" xml:space="preserve">COND</text>
</g>
<g data-element="COND_clr_n" role="group" aria-label="box COND_clr_n">
<path class="box" d="M175,115 H265 L270,120 V130 L265,135 H175 L170,130 V120 Z" data-id="COND_clr_n"/>
</g>
<g data-element="COND_clr_s" role="group" aria-label="box COND_clr_s">
<path class="box" d="M175,180 H265 L270,185 V195 L265,200 H175 L170,195 V185 Z" data-id="COND_clr_s"/>
</g>
<g data-element="COND_clr_w" role="group" aria-label="box COND_clr_w">
<path class="box" d="M175,135 H185 L190,140 V175 L185,180 H175 L170,175 V140 Z" data-id="COND_clr_w"/>
</g>
<g data-element="COND_clr_e" role="group" aria-label="box COND_clr_e">
<path class="box" d="M255,135 H265 L270,140 V175 L265,180 H255 L250,175 V140 Z" data-id="COND_clr_e"/>
</g>
<g data-element="DISC" role="group" aria-label="box DISC: DISC">
<path class="box" d="M200,225 H215 V240 H200 Z" data-id="DISC"/><text class="box-label" x="205" y="241" font-size="10" textLength="24" lengthAdjust="spacingAndGlyphs" xml:space="preserve">DISC</text>
</g>
<g data-element="DISC_clr_n" role="group" aria-label="box DISC_clr_n">
<path class="box" d="M155,175 H260 L265,180 V220 L260,225 H155 L150,220 V180 Z" data-id="DISC_clr_n"/>
</g>
<g data-element="DISC_clr_s" role="group" aria-label="box DISC_clr_s">
<path class="box" d="M155,240 H260 L265,245 V285 L260,290 H155 L150,285 V245 Z" data-id="DISC_clr_s"/>
</g>
<g data-element="DISC_clr_w" role="group" aria-label="box DISC_clr_w">
<path class="box" d="M155,225 H195 L200,230 V235 L195,240 H155 L150,235 V230 Z" data-id="DISC_clr_w"/>
</g>
<g data-element="DISC_clr_e" role="group" aria-label="box DISC_clr_e">
<path class="box" d="M220,225 H260 L265,230 V235 L260,240 H220 L215,235 V230 Z" data-id="DISC_clr_e"/>
</g>
<g data-element="HEAD" role="group" aria-label="box HEAD: HEAD">
<path class="box" d="M290,100 H345 V120 H290 Z" data-id="HEAD"/><text class="box-label" x="295" y="116" font-size="10" textLength="24" lengthAdjust="spacingAndGlyphs" xml:space="preserve">HEAD</text>
</g>
<g data-element="BINS" role="group" aria-label="box BINS: BINS">
<path class="box" d="M270,255 H490 V330 H270 Z" data-id="BINS"/><text class="box-label" x="275" y="296" font-size="10" textLength="24" lengthAdjust="spacingAndGlyphs" xml:space="preserve">BINS</text>
</g>
<g data-element="LS1" role="group" aria-label="path LS1">
<g data-id="LS1" data-kind="path"><rect class="stroke" x="220" y="135" width="5" height="5"/><rect class="stroke" x="220" y="130" width="5" height="5"/><rect class="stroke" x="220" y="125" width="5" height="5"/><rect class="stroke" x="220" y="120" width="5" height="5"/><rect class="stroke" x="220" y="115" width="5" height="5"/><rect class="stroke" x="220" y="110" width="5" height="5"/><rect class="stroke" x="220" y="105" width="5" height="5"/><rect class="stroke" x="220" y="100" width="5" height="5"/><rect class="stroke" x="220" y="95" width="5" height="5"/><rect class="stroke" x="220" y="90" width="5" height="5"/><rect class="stroke" x="220" y="85" width="5" height="5"/><rect class="stroke" x="220" y="80" width="5" height="5"/><rect class="stroke" x="220" y="75" width="5" height="5"/><rect class="stroke" x="220" y="70" width="5" height="5"/><rect class="stroke" x="220" y="70" width="5" height="5"/><rect class="stroke" x="225" y="70" width="5" height="5"/><rect class="stroke" x="230" y="70" width="5" height="5"/><rect class="stroke" x="235" y="70" width="5" height="5"/><rect class="stroke" x="240" y="70" width="5" height="5"/><rect class="stroke" x="245" y="70" width="5" height="5"/><rect class="stroke" x="250" y="70" width="5" height="5"/><rect class="stroke" x="255" y="70" width="5" height="5"/><rect class="stroke" x="260" y="70" width="5" height="5"/><rect class="stroke" x="265" y="70" width="5" height="5"/><rect class="stroke" x="270" y="70" width="5" height="5"/><rect class="stroke" x="275" y="70" width="5" height="5"/><rect class="stroke" x="280" y="70" width="5" height="5"/><rect class="stroke" x="285" y="70" width="5" height="5"/><rect class="stroke" x="290" y="70" width="5" height="5"/><rect class="stroke" x="295" y="70" width="5" height="5"/><rect class="stroke" x="300" y="70" width="5" height="5"/><rect class="stroke" x="305" y="70" width="5" height="5"/><rect class="stroke" x="310" y="70" width="5" height="5"/><rect class="stroke" x="315" y="70" width="5" height="5"/><rect class="stroke" x="320" y="70" width="5" height="5"/><rect class="stroke" x="320" y="70" width="5" height="5"/><rect class="stroke" x="320" y="75" width="5" height="5"/><rect class="stroke" x="320" y="80" width="5" height="5"/><rect class="stroke" x="320" y="85" width="5" height="5"/><rect class="stroke" x="320" y="90" width="5" height="5"/><rect class="stroke" x="320" y="95" width="5" height="5"/><rect class="stroke" x="320" y="100" width="5" height="5"/><rect class="stroke" x="320" y="105" width="5" height="5"/><rect class="stroke" x="320" y="110" width="5" height="5"/></g>
</g>
<g data-element="PWR1" role="group" aria-label="path PWR1">
<g data-id="PWR1" data-kind="path"><rect class="stroke" x="205" y="225" width="5" height="5"/><rect class="stroke" x="205" y="220" width="5" height="5"/><rect class="stroke" x="205" y="215" width="5" height="5"/><rect class="stroke" x="205" y="210" width="5" height="5"/><rect class="stroke" x="205" y="205" width="5" height="5"/><rect class="stroke" x="205" y="200" width="5" height="5"/><rect class="stroke" x="205" y="195" width="5" height="5"/></g>
</g>
</g>
</g>
</svg>