<svg xmlns="http://www.w3.org/2000/svg" width="880" height="660" viewBox="0 0 880 660" font-family="ui-monospace, SFMono-Regular, &quot;Cascadia Mono&quot;, Menlo, Consolas, monospace" role="img" aria-labelledby="tp-title tp-desc">
<title id="tp-title">Deep Sea Explorer</title>
<desc id="tp-desc">14 diagram elements across 14 visible page(s)</desc>
<metadata>{"schema":3,"name":"Deep Sea Explorer","view":null,"elements":14}</metadata>
<style>
  .bg { fill: #f4f3ef; }
  .grid { stroke: #dedbd3; stroke-width: 0.5; }
  .grid-major { stroke: #cbc7bd; stroke-width: 0.5; }
  .box { fill: #e9e7e1; stroke: #2b2a26; stroke-width: 1; }
  .box-label, .key-title, .key-label { fill: #2b2a26; }
  .stroke { fill: #2b2a26; }
  .hop { stroke: #2b2a26; }
  .free-text { fill: #6b6862; }
  .hit-S0 { fill: #8a5b56; opacity: 0.30; }
  .hit-S1 { fill: #96755c; opacity: 0.28; }
  .hit-S2 { fill: #87805a; opacity: 0.24; }
  .hit-S3 { fill: #4a6572; opacity: 0.20; }
  .dimmed { fill: url(#tp-stipple); }
  .dither-run { fill: #2b2a26; }
  .simplify-run { fill: #2b2a26; }
  @media (prefers-color-scheme: dark) {
    .bg { fill: #1a1917; }
    .grid { stroke: #2e2c28; }
    .grid-major { stroke: #3d3a35; }
    .box { fill: #232220; stroke: #dedbd3; }
    .box-label { fill: #dedbd3; }
    .free-text { fill: #9a968d; }
    .stroke { fill: #dedbd3; }
    .hop { stroke: #dedbd3; }
  }

</style>
<defs>

  <!-- Grey earned by pattern rather than assumed. The stipple is drawn at the
       5px quadrant so a dimmed element is made of the same units as every
       other mark on the page. -->
  <pattern id="tp-stipple" width="10" height="10" patternUnits="userSpaceOnUse">
    <rect width="5" height="5" fill="#2b2a26"/>
    <rect x="5" y="5" width="5" height="5" fill="#2b2a26"/>
  </pattern>
</defs>
<rect class="bg" x="0" y="0" width="880" height="660"/>
<g transform="translate(20,20)"><line class="grid" x1="-40" y1="-40" x2="-40" y2="660"/><line class="grid" x1="-30" y1="-40" x2="-30" y2="660"/><line class="grid" x1="-20" y1="-40" x2="-20" y2="660"/><line class="grid" x1="-10" y1="-40" x2="-10" y2="660"/><line class="grid-major" x1="0" y1="-40" x2="0" y2="660"/><line class="grid" x1="10" y1="-40" x2="10" y2="660"/><line class="grid" x1="20" y1="-40" x2="20" y2="660"/><line class="grid" x1="30" y1="-40" x2="30" y2="660"/><line class="grid" x1="40" y1="-40" x2="40" y2="660"/><line class="grid" x1="50" y1="-40" x2="50" y2="660"/><line class="grid" x1="60" y1="-40" x2="60" y2="660"/><line class="grid" x1="70" y1="-40" x2="70" y2="660"/><line class="grid" x1="80" y1="-40" x2="80" y2="660"/><line class="grid" x1="90" y1="-40" x2="90" y2="660"/><line class="grid-major" x1="100" y1="-40" x2="100" y2="660"/><line class="grid" x1="110" y1="-40" x2="110" y2="660"/><line class="grid" x1="120" y1="-40" x2="120" y2="660"/><line class="grid" x1="130" y1="-40" x2="130" y2="660"/><line class="grid" x1="140" y1="-40" x2="140" y2="660"/><line class="grid" x1="150" y1="-40" x2="150" y2="660"/><line class="grid" x1="160" y1="-40" x2="160" y2="660"/><line class="grid" x1="170" y1="-40" x2="170" y2="660"/><line class="grid" x1="180" y1="-40" x2="180" y2="660"/><line class="grid" x1="190" y1="-40" x2="190" y2="660"/><line class="grid-major" x1="200" y1="-40" x2="200" y2="660"/><line class="grid" x1="210" y1="-40" x2="210" y2="660"/><line class="grid" x1="220" y1="-40" x2="220" y2="660"/><line class="grid" x1="230" y1="-40" x2="230" y2="660"/><line class="grid" x1="240" y1="-40" x2="240" y2="660"/><line class="grid" x1="250" y1="-40" x2="250" y2="660"/><line class="grid" x1="260" y1="-40" x2="260" y2="660"/><line class="grid" x1="270" y1="-40" x2="270" y2="660"/><line class="grid" x1="280" y1="-40" x2="280" y2="660"/><line class="grid" x1="290" y1="-40" x2="290" y2="660"/><line class="grid-major" x1="300" y1="-40" x2="300" y2="660"/><line class="grid" x1="310" y1="-40" x2="310" y2="660"/><line class="grid" x1="320" y1="-40" x2="320" y2="660"/><line class="grid" x1="330" y1="-40" x2="330" y2="660"/><line class="grid" x1="340" y1="-40" x2="340" y2="660"/><line class="grid" x1="350" y1="-40" x2="350" y2="660"/><line class="grid" x1="360" y1="-40" x2="360" y2="660"/><line class="grid" x1="370" y1="-40" x2="370" y2="660"/><line class="grid" x1="380" y1="-40" x2="380" y2="660"/><line class="grid" x1="390" y1="-40" x2="390" y2="660"/><line class="grid-major" x1="400" y1="-40" x2="400" y2="660"/><line class="grid" x1="410" y1="-40" x2="410" y2="660"/><line class="grid" x1="420" y1="-40" x2="420" y2="660"/><line class="grid" x1="430" y1="-40" x2="430" y2="660"/><line class="grid" x1="440" y1="-40" x2="440" y2="660"/><line class="grid" x1="450" y1="-40" x2="450" y2="660"/><line class="grid" x1="460" y1="-40" x2="460" y2="660"/><line class="grid" x1="470" y1="-40" x2="470" y2="660"/><line class="grid" x1="480" y1="-40" x2="480" y2="660"/><line class="grid" x1="490" y1="-40" x2="490" y2="660"/><line class="grid-major" x1="500" y1="-40" x2="500" y2="660"/><line class="grid" x1="510" y1="-40" x2="510" y2="660"/><line class="grid" x1="520" y1="-40" x2="520" y2="660"/><line class="grid" x1="530" y1="-40" x2="530" y2="660"/><line class="grid" x1="540" y1="-40" x2="540" y2="660"/><line class="grid" x1="550" y1="-40" x2="550" y2="660"/><line class="grid" x1="560" y1="-40" x2="560" y2="660"/><line class="grid" x1="570" y1="-40" x2="570" y2="660"/><line class="grid" x1="580" y1="-40" x2="580" y2="660"/><line class="grid" x1="590" y1="-40" x2="590" y2="660"/><line class="grid-major" x1="600" y1="-40" x2="600" y2="660"/><line class="grid" x1="610" y1="-40" x2="610" y2="660"/><line class="grid" x1="620" y1="-40" x2="620" y2="660"/><line class="grid" x1="630" y1="-40" x2="630" y2="660"/><line class="grid" x1="640" y1="-40" x2="640" y2="660"/><line class="grid" x1="650" y1="-40" x2="650" y2="660"/><line class="grid" x1="660" y1="-40" x2="660" y2="660"/><line class="grid" x1="670" y1="-40" x2="670" y2="660"/><line class="grid" x1="680" y1="-40" x2="680" y2="660"/><line class="grid" x1="690" y1="-40" x2="690" y2="660"/><line class="grid-major" x1="700" y1="-40" x2="700" y2="660"/><line class="grid" x1="710" y1="-40" x2="710" y2="660"/><line class="grid" x1="720" y1="-40" x2="720" y2="660"/><line class="grid" x1="730" y1="-40" x2="730" y2="660"/><line class="grid" x1="740" y1="-40" x2="740" y2="660"/><line class="grid" x1="750" y1="-40" x2="750" y2="660"/><line class="grid" x1="760" y1="-40" x2="760" y2="660"/><line class="grid" x1="770" y1="-40" x2="770" y2="660"/><line class="grid" x1="780" y1="-40" x2="780" y2="660"/><line class="grid" x1="790" y1="-40" x2="790" y2="660"/><line class="grid-major" x1="800" y1="-40" x2="800" y2="660"/><line class="grid" x1="810" y1="-40" x2="810" y2="660"/><line class="grid" x1="820" y1="-40" x2="820" y2="660"/><line class="grid" x1="830" y1="-40" x2="830" y2="660"/><line class="grid" x1="840" y1="-40" x2="840" y2="660"/><line class="grid" x1="850" y1="-40" x2="850" y2="660"/><line class="grid" x1="860" y1="-40" x2="860" y2="660"/><line class="grid" x1="870" y1="-40" x2="870" y2="660"/><line class="grid" x1="880" y1="-40" x2="880" y2="660"/><line class="grid" x1="-40" y1="-40" x2="880" y2="-40"/><line class="grid" x1="-40" y1="-30" x2="880" y2="-30"/><line class="grid" x1="-40" y1="-20" x2="880" y2="-20"/><line class="grid" x1="-40" y1="-10" x2="880" y2="-10"/><line class="grid-major" x1="-40" y1="0" x2="880" y2="0"/><line class="grid" x1="-40" y1="10" x2="880" y2="10"/><line class="grid" x1="-40" y1="20" x2="880" y2="20"/><line class="grid" x1="-40" y1="30" x2="880" y2="30"/><line class="grid" x1="-40" y1="40" x2="880" y2="40"/><line class="grid" x1="-40" y1="50" x2="880" y2="50"/><line class="grid" x1="-40" y1="60" x2="880" y2="60"/><line class="grid" x1="-40" y1="70" x2="880" y2="70"/><line class="grid" x1="-40" y1="80" x2="880" y2="80"/><line class="grid" x1="-40" y1="90" x2="880" y2="90"/><line class="grid-major" x1="-40" y1="100" x2="880" y2="100"/><line class="grid" x1="-40" y1="110" x2="880" y2="110"/><line class="grid" x1="-40" y1="120" x2="880" y2="120"/><line class="grid" x1="-40" y1="130" x2="880" y2="130"/><line class="grid" x1="-40" y1="140" x2="880" y2="140"/><line class="grid" x1="-40" y1="150" x2="880" y2="150"/><line class="grid" x1="-40" y1="160" x2="880" y2="160"/><line class="grid" x1="-40" y1="170" x2="880" y2="170"/><line class="grid" x1="-40" y1="180" x2="880" y2="180"/><line class="grid" x1="-40" y1="190" x2="880" y2="190"/><line class="grid-major" x1="-40" y1="200" x2="880" y2="200"/><line class="grid" x1="-40" y1="210" x2="880" y2="210"/><line class="grid" x1="-40" y1="220" x2="880" y2="220"/><line class="grid" x1="-40" y1="230" x2="880" y2="230"/><line class="grid" x1="-40" y1="240" x2="880" y2="240"/><line class="grid" x1="-40" y1="250" x2="880" y2="250"/><line class="grid" x1="-40" y1="260" x2="880" y2="260"/><line class="grid" x1="-40" y1="270" x2="880" y2="270"/><line class="grid" x1="-40" y1="280" x2="880" y2="280"/><line class="grid" x1="-40" y1="290" x2="880" y2="290"/><line class="grid-major" x1="-40" y1="300" x2="880" y2="300"/><line class="grid" x1="-40" y1="310" x2="880" y2="310"/><line class="grid" x1="-40" y1="320" x2="880" y2="320"/><line class="grid" x1="-40" y1="330" x2="880" y2="330"/><line class="grid" x1="-40" y1="340" x2="880" y2="340"/><line class="grid" x1="-40" y1="350" x2="880" y2="350"/><line class="grid" x1="-40" y1="360" x2="880" y2="360"/><line class="grid" x1="-40" y1="370" x2="880" y2="370"/><line class="grid" x1="-40" y1="380" x2="880" y2="380"/><line class="grid" x1="-40" y1="390" x2="880" y2="390"/><line class="grid-major" x1="-40" y1="400" x2="880" y2="400"/><line class="grid" x1="-40" y1="410" x2="880" y2="410"/><line class="grid" x1="-40" y1="420" x2="880" y2="420"/><line class="grid" x1="-40" y1="430" x2="880" y2="430"/><line class="grid" x1="-40" y1="440" x2="880" y2="440"/><line class="grid" x1="-40" y1="450" x2="880" y2="450"/><line class="grid" x1="-40" y1="460" x2="880" y2="460"/><line class="grid" x1="-40" y1="470" x2="880" y2="470"/><line class="grid" x1="-40" y1="480" x2="880" y2="480"/><line class="grid" x1="-40" y1="490" x2="880" y2="490"/><line class="grid-major" x1="-40" y1="500" x2="880" y2="500"/><line class="grid" x1="-40" y1="510" x2="880" y2="510"/><line class="grid" x1="-40" y1="520" x2="880" y2="520"/><line class="grid" x1="-40" y1="530" x2="880" y2="530"/><line class="grid" x1="-40" y1="540" x2="880" y2="540"/><line class="grid" x1="-40" y1="550" x2="880" y2="550"/><line class="grid" x1="-40" y1="560" x2="880" y2="560"/><line class="grid" x1="-40" y1="570" x2="880" y2="570"/><line class="grid" x1="-40" y1="580" x2="880" y2="580"/><line class="grid" x1="-40" y1="590" x2="880" y2="590"/><line class="grid-major" x1="-40" y1="600" x2="880" y2="600"/><line class="grid" x1="-40" y1="610" x2="880" y2="610"/><line class="grid" x1="-40" y1="620" x2="880" y2="620"/><line class="grid" x1="-40" y1="630" x2="880" y2="630"/><line class="grid" x1="-40" y1="640" x2="880" y2="640"/><line class="grid" x1="-40" y1="650" x2="880" y2="650"/><line class="grid" x1="-40" y1="660" x2="880" y2="660"/></g>
<g transform="translate(20,20)">
<g data-page="base" data-z="0" opacity="1">
<g data-element="background" role="group" aria-label="box background">
<path class="box" d="M0,0 H840 V620 H0 Z" data-id="background" style="fill:#195669"/>
</g>
</g>
<g data-page="title" data-z="1" opacity="0.92">
<g data-element="title" role="group" aria-label="text title: DEEP SEA EXPLORER">
<text class="free-text" x="335" y="49" font-size="16" font-weight="700" textLength="170" lengthAdjust="spacingAndGlyphs" style="fill:#f5f1df" xml:space="preserve">DEEP SEA EXPLORER</text>
</g>
</g>
<g data-page="water-glints" data-z="2" opacity="0.92">
<g data-element="water-glints-ink" role="group" aria-label="path water-glints-ink">
<g data-id="water-glints-ink" data-kind="path" data-role="artwork"><polyline points="72,127 177,127" fill="none" stroke="#68a9b4" stroke-width="1" stroke-linecap="round" stroke-linejoin="round"/><polyline points="262,167 352,167" fill="none" stroke="#68a9b4" stroke-width="1" stroke-linecap="round" stroke-linejoin="round"/><polyline points="552,122 652,122" fill="none" stroke="#68a9b4" stroke-width="1" stroke-linecap="round" stroke-linejoin="round"/><polyline points="682,227 787,227" fill="none" stroke="#68a9b4" stroke-width="1" stroke-linecap="round" stroke-linejoin="round"/><polyline points="57,292 142,292" fill="none" stroke="#68a9b4" stroke-width="1" stroke-linecap="round" stroke-linejoin="round"/><polyline points="597,362 717,362" fill="none" stroke="#68a9b4" stroke-width="1" stroke-linecap="round" stroke-linejoin="round"/></g>
</g>
</g>
<g data-page="seafloor" data-z="3" opacity="0.92">
<g data-element="seafloor-ink" role="group" aria-label="path seafloor-ink">
<g data-id="seafloor-ink" data-kind="path" data-role="artwork" data-paint="cells"><rect x="120" y="470" width="20" height="5" fill="#193e42"/><rect x="690" y="470" width="15" height="5" fill="#193e42"/><rect x="85" y="475" width="70" height="5" fill="#193e42"/><rect x="675" y="475" width="50" height="5" fill="#193e42"/><rect x="50" y="480" width="120" height="5" fill="#193e42"/><rect x="415" y="480" width="20" height="5" fill="#193e42"/><rect x="660" y="480" width="85" height="5" fill="#193e42"/><rect x="15" y="485" width="170" height="5" fill="#193e42"/><rect x="390" y="485" width="65" height="5" fill="#193e42"/><rect x="645" y="485" width="120" height="5" fill="#193e42"/><rect x="0" y="490" width="195" height="5" fill="#193e42"/><rect x="365" y="490" width="110" height="5" fill="#193e42"/><rect x="630" y="490" width="155" height="5" fill="#193e42"/><rect x="0" y="495" width="210" height="5" fill="#193e42"/><rect x="340" y="495" width="155" height="5" fill="#193e42"/><rect x="615" y="495" width="190" height="5" fill="#193e42"/><rect x="0" y="500" width="225" height="5" fill="#193e42"/><rect x="320" y="500" width="195" height="5" fill="#193e42"/><rect x="600" y="500" width="225" height="5" fill="#193e42"/><rect x="0" y="505" width="240" height="5" fill="#193e42"/><rect x="295" y="505" width="240" height="5" fill="#193e42"/><rect x="585" y="505" width="250" height="5" fill="#193e42"/><rect x="0" y="510" width="255" height="5" fill="#193e42"/><rect x="270" y="510" width="285" height="5" fill="#193e42"/><rect x="570" y="510" width="265" height="5" fill="#193e42"/><rect x="0" y="515" width="835" height="5" fill="#193e42"/><rect x="0" y="520" width="835" height="5" fill="#193e42"/><rect x="0" y="525" width="835" height="5" fill="#193e42"/><rect x="0" y="530" width="835" height="5" fill="#193e42"/><rect x="0" y="535" width="835" height="5" fill="#193e42"/><rect x="0" y="540" width="835" height="5" fill="#193e42"/><rect x="0" y="545" width="835" height="5" fill="#193e42"/><rect x="0" y="550" width="835" height="5" fill="#193e42"/><rect x="0" y="555" width="835" height="5" fill="#193e42"/><rect x="0" y="560" width="835" height="5" fill="#193e42"/><rect x="0" y="565" width="835" height="5" fill="#193e42"/><rect x="0" y="570" width="835" height="5" fill="#193e42"/><rect x="0" y="575" width="835" height="5" fill="#193e42"/><rect x="0" y="580" width="835" height="5" fill="#193e42"/><rect x="0" y="585" width="835" height="5" fill="#193e42"/><rect x="0" y="590" width="835" height="5" fill="#193e42"/><rect x="0" y="595" width="835" height="5" fill="#193e42"/><rect x="0" y="600" width="835" height="5" fill="#193e42"/><rect x="0" y="605" width="835" height="5" fill="#193e42"/><rect x="0" y="610" width="835" height="5" fill="#193e42"/></g>
</g>
</g>
<g data-page="seaweed" data-z="4" opacity="0.92">
<g data-element="seaweed-ink" role="group" aria-label="path seaweed-ink">
<g data-id="seaweed-ink" data-kind="path" data-role="artwork"><polyline points="92,552 77,497 102,452 102,442 97,437 97,427 92,422 87,402" fill="none" stroke="#4f8b62" stroke-width="3" stroke-linecap="round" stroke-linejoin="round"/><polyline points="137,542 152,512 152,502 162,487 162,477 157,472 157,462 152,457 147,437 172,402" fill="none" stroke="#4f8b62" stroke-width="3" stroke-linecap="round" stroke-linejoin="round"/><polyline points="712,547 707,537 707,522 702,517 702,502 697,497 697,492 727,452 712,407" fill="none" stroke="#4f8b62" stroke-width="3" stroke-linecap="round" stroke-linejoin="round"/><polyline points="757,542 767,522 767,512 777,497 777,487 767,472 767,462 757,442 787,397" fill="none" stroke="#4f8b62" stroke-width="3" stroke-linecap="round" stroke-linejoin="round"/></g>
</g>
</g>
<g data-page="submarine-hull" data-z="5" opacity="0.92">
<g data-element="submarine-hull-ink" role="group" aria-label="path submarine-hull-ink">
<g data-id="submarine-hull-ink" data-kind="path" data-role="artwork" data-paint="cells"><rect x="245" y="270" width="315" height="5" fill="#f1c86b"/><rect x="240" y="275" width="325" height="5" fill="#f1c86b"/><rect x="240" y="280" width="330" height="5" fill="#f1c86b"/><rect x="235" y="285" width="345" height="5" fill="#f1c86b"/><rect x="235" y="290" width="350" height="5" fill="#f1c86b"/><rect x="230" y="295" width="360" height="5" fill="#f1c86b"/><rect x="230" y="300" width="365" height="5" fill="#f1c86b"/><rect x="225" y="305" width="380" height="5" fill="#f1c86b"/><rect x="225" y="310" width="385" height="5" fill="#f1c86b"/><rect x="220" y="315" width="395" height="5" fill="#f1c86b"/><rect x="220" y="320" width="400" height="5" fill="#f1c86b"/><rect x="215" y="325" width="405" height="5" fill="#f1c86b"/><rect x="215" y="330" width="405" height="5" fill="#f1c86b"/><rect x="210" y="335" width="410" height="5" fill="#f1c86b"/><rect x="210" y="340" width="405" height="5" fill="#f1c86b"/><rect x="215" y="345" width="395" height="5" fill="#f1c86b"/><rect x="220" y="350" width="385" height="5" fill="#f1c86b"/><rect x="220" y="355" width="375" height="5" fill="#f1c86b"/><rect x="225" y="360" width="365" height="5" fill="#f1c86b"/><rect x="230" y="365" width="355" height="5" fill="#f1c86b"/><rect x="235" y="370" width="345" height="5" fill="#f1c86b"/><rect x="235" y="375" width="335" height="5" fill="#f1c86b"/><rect x="240" y="380" width="325" height="5" fill="#f1c86b"/><rect x="245" y="385" width="315" height="5" fill="#f1c86b"/></g>
</g>
</g>
<g data-page="submarine-cabin" data-z="6" opacity="0.92">
<g data-element="submarine-cabin-ink" role="group" aria-label="path submarine-cabin-ink">
<g data-id="submarine-cabin-ink" data-kind="path" data-role="artwork" data-paint="cells"><rect x="385" y="210" width="95" height="5" fill="#dda947"/><rect x="380" y="215" width="105" height="5" fill="#dda947"/><rect x="380" y="220" width="105" height="5" fill="#dda947"/><rect x="375" y="225" width="115" height="5" fill="#dda947"/><rect x="370" y="230" width="120" height="5" fill="#dda947"/><rect x="370" y="235" width="125" height="5" fill="#dda947"/><rect x="365" y="240" width="130" height="5" fill="#dda947"/><rect x="365" y="245" width="135" height="5" fill="#dda947"/><rect x="360" y="250" width="140" height="5" fill="#dda947"/><rect x="355" y="255" width="150" height="5" fill="#dda947"/><rect x="355" y="260" width="150" height="5" fill="#dda947"/><rect x="350" y="265" width="160" height="5" fill="#dda947"/></g>
</g>
</g>
<g data-page="submarine-portholes" data-z="7" opacity="0.92">
<g data-element="submarine-portholes-ink" role="group" aria-label="path submarine-portholes-ink">
<g data-id="submarine-portholes-ink" data-kind="path" data-role="artwork" data-paint="cells"><rect x="350" y="305" width="5" height="5" fill="#4ea7b5"/><rect x="435" y="305" width="5" height="5" fill="#4ea7b5"/><rect x="520" y="305" width="5" height="5" fill="#4ea7b5"/><rect x="340" y="310" width="25" height="5" fill="#4ea7b5"/><rect x="425" y="310" width="25" height="5" fill="#4ea7b5"/><rect x="510" y="310" width="25" height="5" fill="#4ea7b5"/><rect x="335" y="315" width="35" height="5" fill="#4ea7b5"/><rect x="420" y="315" width="35" height="5" fill="#4ea7b5"/><rect x="505" y="315" width="35" height="5" fill="#4ea7b5"/><rect x="335" y="320" width="35" height="5" fill="#4ea7b5"/><rect x="420" y="320" width="35" height="5" fill="#4ea7b5"/><rect x="505" y="320" width="35" height="5" fill="#4ea7b5"/><rect x="330" y="325" width="45" height="5" fill="#4ea7b5"/><rect x="415" y="325" width="45" height="5" fill="#4ea7b5"/><rect x="500" y="325" width="45" height="5" fill="#4ea7b5"/><rect x="335" y="330" width="35" height="5" fill="#4ea7b5"/><rect x="420" y="330" width="35" height="5" fill="#4ea7b5"/><rect x="505" y="330" width="35" height="5" fill="#4ea7b5"/><rect x="335" y="335" width="35" height="5" fill="#4ea7b5"/><rect x="420" y="335" width="35" height="5" fill="#4ea7b5"/><rect x="505" y="335" width="35" height="5" fill="#4ea7b5"/><rect x="340" y="340" width="25" height="5" fill="#4ea7b5"/><rect x="425" y="340" width="25" height="5" fill="#4ea7b5"/><rect x="510" y="340" width="25" height="5" fill="#4ea7b5"/><rect x="350" y="345" width="5" height="5" fill="#4ea7b5"/><rect x="435" y="345" width="5" height="5" fill="#4ea7b5"/><rect x="520" y="345" width="5" height="5" fill="#4ea7b5"/></g>
</g>
</g>
<g data-page="submarine-outline" data-z="8" opacity="0.92">
<g data-element="submarine-outline-ink" role="group" aria-label="path submarine-outline-ink">
<g data-id="submarine-outline-ink" data-kind="path" data-role="artwork"><polyline points="212,342 247,272 557,272 622,322 622,342 557,392 247,392 212,342" fill="none" stroke="#f8e6a6" stroke-width="2" stroke-linecap="round" stroke-linejoin="round"/><polyline points="252,367 557,367" fill="none" stroke="#f8e6a6" stroke-width="2" stroke-linecap="round" stroke-linejoin="round"/></g>
</g>
</g>
<g data-page="periscope" data-z="9" opacity="0.92">
<g data-element="periscope-ink" role="group" aria-label="path periscope-ink">
<g data-id="periscope-ink" data-kind="path" data-role="artwork"><polyline points="437,212 437,147 502,147 502,177" fill="none" stroke="#e5b653" stroke-width="5" stroke-linecap="round" stroke-linejoin="round"/></g>
</g>
</g>
<g data-page="periscope-glass" data-z="10" opacity="0.92">
<g data-element="periscope-glass-ink" role="group" aria-label="path periscope-glass-ink">
<g data-id="periscope-glass-ink" data-kind="path" data-role="artwork" data-paint="cells"><rect x="500" y="160" width="5" height="5" fill="#274b57"/><rect x="490" y="165" width="25" height="5" fill="#274b57"/><rect x="490" y="170" width="25" height="5" fill="#274b57"/><rect x="485" y="175" width="35" height="5" fill="#274b57"/><rect x="490" y="180" width="25" height="5" fill="#274b57"/><rect x="490" y="185" width="25" height="5" fill="#274b57"/><rect x="500" y="190" width="5" height="5" fill="#274b57"/></g>
</g>
</g>
<g data-page="propeller" data-z="11" opacity="0.92">
<g data-element="propeller-ink" role="group" aria-label="path propeller-ink">
<g data-id="propeller-ink" data-kind="path" data-role="artwork"><polyline points="217,332 162,287" fill="none" stroke="#c68250" stroke-width="3" stroke-linecap="round" stroke-linejoin="round"/><polyline points="217,332 157,332" fill="none" stroke="#c68250" stroke-width="3" stroke-linecap="round" stroke-linejoin="round"/><polyline points="217,332 162,377" fill="none" stroke="#c68250" stroke-width="3" stroke-linecap="round" stroke-linejoin="round"/></g>
</g>
</g>
<g data-page="fish" data-z="12" opacity="0.92">
<g data-element="fish-ink" role="group" aria-label="path fish-ink">
<g data-id="fish-ink" data-kind="path" data-role="artwork" data-paint="cells"><rect x="175" y="360" width="10" height="5" fill="#e48a78"/><rect x="165" y="365" width="25" height="5" fill="#e48a78"/><rect x="160" y="370" width="35" height="5" fill="#e48a78"/><rect x="150" y="375" width="50" height="5" fill="#e48a78"/><rect x="150" y="380" width="50" height="5" fill="#e48a78"/><rect x="160" y="385" width="35" height="5" fill="#e48a78"/><rect x="165" y="390" width="25" height="5" fill="#e48a78"/><rect x="175" y="395" width="10" height="5" fill="#e48a78"/><rect x="725" y="415" width="10" height="5" fill="#e48a78"/><rect x="715" y="420" width="25" height="5" fill="#e48a78"/><rect x="705" y="425" width="40" height="5" fill="#e48a78"/><rect x="695" y="430" width="55" height="5" fill="#e48a78"/><rect x="695" y="435" width="55" height="5" fill="#e48a78"/><rect x="705" y="440" width="40" height="5" fill="#e48a78"/><rect x="715" y="445" width="25" height="5" fill="#e48a78"/><rect x="725" y="450" width="10" height="5" fill="#e48a78"/><rect x="625" y="470" width="10" height="5" fill="#e48a78"/><rect x="610" y="475" width="30" height="5" fill="#e48a78"/><rect x="600" y="480" width="50" height="5" fill="#e48a78"/><rect x="600" y="485" width="50" height="5" fill="#e48a78"/><rect x="610" y="490" width="30" height="5" fill="#e48a78"/><rect x="625" y="495" width="10" height="5" fill="#e48a78"/></g>
</g>
</g>
<g data-page="bubbles" data-z="13" opacity="0.92">
<g data-element="bubbles-ink" role="group" aria-label="path bubbles-ink">
<g data-id="bubbles-ink" data-kind="path" data-role="artwork" data-paint="cells"><rect x="685" y="110" width="5" height="5" fill="#a8d8d5"/><rect x="680" y="115" width="15" height="5" fill="#a8d8d5"/><rect x="685" y="120" width="5" height="5" fill="#a8d8d5"/><rect x="660" y="145" width="5" height="5" fill="#a8d8d5"/><rect x="655" y="150" width="15" height="5" fill="#a8d8d5"/><rect x="650" y="155" width="25" height="5" fill="#a8d8d5"/><rect x="655" y="160" width="15" height="5" fill="#a8d8d5"/><rect x="660" y="165" width="5" height="5" fill="#a8d8d5"/><rect x="620" y="180" width="5" height="5" fill="#a8d8d5"/><rect x="610" y="185" width="25" height="5" fill="#a8d8d5"/><rect x="610" y="190" width="25" height="5" fill="#a8d8d5"/><rect x="605" y="195" width="35" height="5" fill="#a8d8d5"/><rect x="610" y="200" width="25" height="5" fill="#a8d8d5"/><rect x="610" y="205" width="25" height="5" fill="#a8d8d5"/><rect x="620" y="210" width="5" height="5" fill="#a8d8d5"/><rect x="580" y="225" width="5" height="5" fill="#a8d8d5"/><rect x="575" y="230" width="15" height="5" fill="#a8d8d5"/><rect x="570" y="235" width="25" height="5" fill="#a8d8d5"/><rect x="575" y="240" width="15" height="5" fill="#a8d8d5"/><rect x="580" y="245" width="5" height="5" fill="#a8d8d5"/></g>
</g>
</g>
</g>
</svg>