<svg xmlns="http://www.w3.org/2000/svg" width="880" height="660" viewBox="0 0 880 660" font-family="ui-monospace, SFMono-Regular, &quot;Cascadia Mono&quot;, Menlo, Consolas, monospace" role="img" aria-labelledby="tp-title tp-desc">
<title id="tp-title">Botanical Terrarium</title>
<desc id="tp-desc">11 diagram elements across 11 visible page(s)</desc>
<metadata>{"schema":3,"name":"Botanical Terrarium","view":null,"elements":11}</metadata>
<style>
  .bg { fill: #f4f3ef; }
  .grid { stroke: #dedbd3; stroke-width: 0.5; }
  .grid-major { stroke: #cbc7bd; stroke-width: 0.5; }
  .box { fill: #e9e7e1; stroke: #2b2a26; stroke-width: 1; }
  .box-label, .key-title, .key-label { fill: #2b2a26; }
  .stroke { fill: #2b2a26; }
  .hop { stroke: #2b2a26; }
  .free-text { fill: #6b6862; }
  .hit-S0 { fill: #8a5b56; opacity: 0.30; }
  .hit-S1 { fill: #96755c; opacity: 0.28; }
  .hit-S2 { fill: #87805a; opacity: 0.24; }
  .hit-S3 { fill: #4a6572; opacity: 0.20; }
  .dimmed { fill: url(#tp-stipple); }
  .dither-run { fill: #2b2a26; }
  .simplify-run { fill: #2b2a26; }
  @media (prefers-color-scheme: dark) {
    .bg { fill: #1a1917; }
    .grid { stroke: #2e2c28; }
    .grid-major { stroke: #3d3a35; }
    .box { fill: #232220; stroke: #dedbd3; }
    .box-label { fill: #dedbd3; }
    .free-text { fill: #9a968d; }
    .stroke { fill: #dedbd3; }
    .hop { stroke: #dedbd3; }
  }

</style>
<defs>

  <!-- Grey earned by pattern rather than assumed. The stipple is drawn at the
       5px quadrant so a dimmed element is made of the same units as every
       other mark on the page. -->
  <pattern id="tp-stipple" width="10" height="10" patternUnits="userSpaceOnUse">
    <rect width="5" height="5" fill="#2b2a26"/>
    <rect x="5" y="5" width="5" height="5" fill="#2b2a26"/>
  </pattern>
</defs>
<rect class="bg" x="0" y="0" width="880" height="660"/>
<g transform="translate(20,20)"><line class="grid" x1="-40" y1="-40" x2="-40" y2="660"/><line class="grid" x1="-30" y1="-40" x2="-30" y2="660"/><line class="grid" x1="-20" y1="-40" x2="-20" y2="660"/><line class="grid" x1="-10" y1="-40" x2="-10" y2="660"/><line class="grid-major" x1="0" y1="-40" x2="0" y2="660"/><line class="grid" x1="10" y1="-40" x2="10" y2="660"/><line class="grid" x1="20" y1="-40" x2="20" y2="660"/><line class="grid" x1="30" y1="-40" x2="30" y2="660"/><line class="grid" x1="40" y1="-40" x2="40" y2="660"/><line class="grid" x1="50" y1="-40" x2="50" y2="660"/><line class="grid" x1="60" y1="-40" x2="60" y2="660"/><line class="grid" x1="70" y1="-40" x2="70" y2="660"/><line class="grid" x1="80" y1="-40" x2="80" y2="660"/><line class="grid" x1="90" y1="-40" x2="90" y2="660"/><line class="grid-major" x1="100" y1="-40" x2="100" y2="660"/><line class="grid" x1="110" y1="-40" x2="110" y2="660"/><line class="grid" x1="120" y1="-40" x2="120" y2="660"/><line class="grid" x1="130" y1="-40" x2="130" y2="660"/><line class="grid" x1="140" y1="-40" x2="140" y2="660"/><line class="grid" x1="150" y1="-40" x2="150" y2="660"/><line class="grid" x1="160" y1="-40" x2="160" y2="660"/><line class="grid" x1="170" y1="-40" x2="170" y2="660"/><line class="grid" x1="180" y1="-40" x2="180" y2="660"/><line class="grid" x1="190" y1="-40" x2="190" y2="660"/><line class="grid-major" x1="200" y1="-40" x2="200" y2="660"/><line class="grid" x1="210" y1="-40" x2="210" y2="660"/><line class="grid" x1="220" y1="-40" x2="220" y2="660"/><line class="grid" x1="230" y1="-40" x2="230" y2="660"/><line class="grid" x1="240" y1="-40" x2="240" y2="660"/><line class="grid" x1="250" y1="-40" x2="250" y2="660"/><line class="grid" x1="260" y1="-40" x2="260" y2="660"/><line class="grid" x1="270" y1="-40" x2="270" y2="660"/><line class="grid" x1="280" y1="-40" x2="280" y2="660"/><line class="grid" x1="290" y1="-40" x2="290" y2="660"/><line class="grid-major" x1="300" y1="-40" x2="300" y2="660"/><line class="grid" x1="310" y1="-40" x2="310" y2="660"/><line class="grid" x1="320" y1="-40" x2="320" y2="660"/><line class="grid" x1="330" y1="-40" x2="330" y2="660"/><line class="grid" x1="340" y1="-40" x2="340" y2="660"/><line class="grid" x1="350" y1="-40" x2="350" y2="660"/><line class="grid" x1="360" y1="-40" x2="360" y2="660"/><line class="grid" x1="370" y1="-40" x2="370" y2="660"/><line class="grid" x1="380" y1="-40" x2="380" y2="660"/><line class="grid" x1="390" y1="-40" x2="390" y2="660"/><line class="grid-major" x1="400" y1="-40" x2="400" y2="660"/><line class="grid" x1="410" y1="-40" x2="410" y2="660"/><line class="grid" x1="420" y1="-40" x2="420" y2="660"/><line class="grid" x1="430" y1="-40" x2="430" y2="660"/><line class="grid" x1="440" y1="-40" x2="440" y2="660"/><line class="grid" x1="450" y1="-40" x2="450" y2="660"/><line class="grid" x1="460" y1="-40" x2="460" y2="660"/><line class="grid" x1="470" y1="-40" x2="470" y2="660"/><line class="grid" x1="480" y1="-40" x2="480" y2="660"/><line class="grid" x1="490" y1="-40" x2="490" y2="660"/><line class="grid-major" x1="500" y1="-40" x2="500" y2="660"/><line class="grid" x1="510" y1="-40" x2="510" y2="660"/><line class="grid" x1="520" y1="-40" x2="520" y2="660"/><line class="grid" x1="530" y1="-40" x2="530" y2="660"/><line class="grid" x1="540" y1="-40" x2="540" y2="660"/><line class="grid" x1="550" y1="-40" x2="550" y2="660"/><line class="grid" x1="560" y1="-40" x2="560" y2="660"/><line class="grid" x1="570" y1="-40" x2="570" y2="660"/><line class="grid" x1="580" y1="-40" x2="580" y2="660"/><line class="grid" x1="590" y1="-40" x2="590" y2="660"/><line class="grid-major" x1="600" y1="-40" x2="600" y2="660"/><line class="grid" x1="610" y1="-40" x2="610" y2="660"/><line class="grid" x1="620" y1="-40" x2="620" y2="660"/><line class="grid" x1="630" y1="-40" x2="630" y2="660"/><line class="grid" x1="640" y1="-40" x2="640" y2="660"/><line class="grid" x1="650" y1="-40" x2="650" y2="660"/><line class="grid" x1="660" y1="-40" x2="660" y2="660"/><line class="grid" x1="670" y1="-40" x2="670" y2="660"/><line class="grid" x1="680" y1="-40" x2="680" y2="660"/><line class="grid" x1="690" y1="-40" x2="690" y2="660"/><line class="grid-major" x1="700" y1="-40" x2="700" y2="660"/><line class="grid" x1="710" y1="-40" x2="710" y2="660"/><line class="grid" x1="720" y1="-40" x2="720" y2="660"/><line class="grid" x1="730" y1="-40" x2="730" y2="660"/><line class="grid" x1="740" y1="-40" x2="740" y2="660"/><line class="grid" x1="750" y1="-40" x2="750" y2="660"/><line class="grid" x1="760" y1="-40" x2="760" y2="660"/><line class="grid" x1="770" y1="-40" x2="770" y2="660"/><line class="grid" x1="780" y1="-40" x2="780" y2="660"/><line class="grid" x1="790" y1="-40" x2="790" y2="660"/><line class="grid-major" x1="800" y1="-40" x2="800" y2="660"/><line class="grid" x1="810" y1="-40" x2="810" y2="660"/><line class="grid" x1="820" y1="-40" x2="820" y2="660"/><line class="grid" x1="830" y1="-40" x2="830" y2="660"/><line class="grid" x1="840" y1="-40" x2="840" y2="660"/><line class="grid" x1="850" y1="-40" x2="850" y2="660"/><line class="grid" x1="860" y1="-40" x2="860" y2="660"/><line class="grid" x1="870" y1="-40" x2="870" y2="660"/><line class="grid" x1="880" y1="-40" x2="880" y2="660"/><line class="grid" x1="-40" y1="-40" x2="880" y2="-40"/><line class="grid" x1="-40" y1="-30" x2="880" y2="-30"/><line class="grid" x1="-40" y1="-20" x2="880" y2="-20"/><line class="grid" x1="-40" y1="-10" x2="880" y2="-10"/><line class="grid-major" x1="-40" y1="0" x2="880" y2="0"/><line class="grid" x1="-40" y1="10" x2="880" y2="10"/><line class="grid" x1="-40" y1="20" x2="880" y2="20"/><line class="grid" x1="-40" y1="30" x2="880" y2="30"/><line class="grid" x1="-40" y1="40" x2="880" y2="40"/><line class="grid" x1="-40" y1="50" x2="880" y2="50"/><line class="grid" x1="-40" y1="60" x2="880" y2="60"/><line class="grid" x1="-40" y1="70" x2="880" y2="70"/><line class="grid" x1="-40" y1="80" x2="880" y2="80"/><line class="grid" x1="-40" y1="90" x2="880" y2="90"/><line class="grid-major" x1="-40" y1="100" x2="880" y2="100"/><line class="grid" x1="-40" y1="110" x2="880" y2="110"/><line class="grid" x1="-40" y1="120" x2="880" y2="120"/><line class="grid" x1="-40" y1="130" x2="880" y2="130"/><line class="grid" x1="-40" y1="140" x2="880" y2="140"/><line class="grid" x1="-40" y1="150" x2="880" y2="150"/><line class="grid" x1="-40" y1="160" x2="880" y2="160"/><line class="grid" x1="-40" y1="170" x2="880" y2="170"/><line class="grid" x1="-40" y1="180" x2="880" y2="180"/><line class="grid" x1="-40" y1="190" x2="880" y2="190"/><line class="grid-major" x1="-40" y1="200" x2="880" y2="200"/><line class="grid" x1="-40" y1="210" x2="880" y2="210"/><line class="grid" x1="-40" y1="220" x2="880" y2="220"/><line class="grid" x1="-40" y1="230" x2="880" y2="230"/><line class="grid" x1="-40" y1="240" x2="880" y2="240"/><line class="grid" x1="-40" y1="250" x2="880" y2="250"/><line class="grid" x1="-40" y1="260" x2="880" y2="260"/><line class="grid" x1="-40" y1="270" x2="880" y2="270"/><line class="grid" x1="-40" y1="280" x2="880" y2="280"/><line class="grid" x1="-40" y1="290" x2="880" y2="290"/><line class="grid-major" x1="-40" y1="300" x2="880" y2="300"/><line class="grid" x1="-40" y1="310" x2="880" y2="310"/><line class="grid" x1="-40" y1="320" x2="880" y2="320"/><line class="grid" x1="-40" y1="330" x2="880" y2="330"/><line class="grid" x1="-40" y1="340" x2="880" y2="340"/><line class="grid" x1="-40" y1="350" x2="880" y2="350"/><line class="grid" x1="-40" y1="360" x2="880" y2="360"/><line class="grid" x1="-40" y1="370" x2="880" y2="370"/><line class="grid" x1="-40" y1="380" x2="880" y2="380"/><line class="grid" x1="-40" y1="390" x2="880" y2="390"/><line class="grid-major" x1="-40" y1="400" x2="880" y2="400"/><line class="grid" x1="-40" y1="410" x2="880" y2="410"/><line class="grid" x1="-40" y1="420" x2="880" y2="420"/><line class="grid" x1="-40" y1="430" x2="880" y2="430"/><line class="grid" x1="-40" y1="440" x2="880" y2="440"/><line class="grid" x1="-40" y1="450" x2="880" y2="450"/><line class="grid" x1="-40" y1="460" x2="880" y2="460"/><line class="grid" x1="-40" y1="470" x2="880" y2="470"/><line class="grid" x1="-40" y1="480" x2="880" y2="480"/><line class="grid" x1="-40" y1="490" x2="880" y2="490"/><line class="grid-major" x1="-40" y1="500" x2="880" y2="500"/><line class="grid" x1="-40" y1="510" x2="880" y2="510"/><line class="grid" x1="-40" y1="520" x2="880" y2="520"/><line class="grid" x1="-40" y1="530" x2="880" y2="530"/><line class="grid" x1="-40" y1="540" x2="880" y2="540"/><line class="grid" x1="-40" y1="550" x2="880" y2="550"/><line class="grid" x1="-40" y1="560" x2="880" y2="560"/><line class="grid" x1="-40" y1="570" x2="880" y2="570"/><line class="grid" x1="-40" y1="580" x2="880" y2="580"/><line class="grid" x1="-40" y1="590" x2="880" y2="590"/><line class="grid-major" x1="-40" y1="600" x2="880" y2="600"/><line class="grid" x1="-40" y1="610" x2="880" y2="610"/><line class="grid" x1="-40" y1="620" x2="880" y2="620"/><line class="grid" x1="-40" y1="630" x2="880" y2="630"/><line class="grid" x1="-40" y1="640" x2="880" y2="640"/><line class="grid" x1="-40" y1="650" x2="880" y2="650"/><line class="grid" x1="-40" y1="660" x2="880" y2="660"/></g>
<g transform="translate(20,20)">
<g data-page="base" data-z="0" opacity="1">
<g data-element="background" role="group" aria-label="box background">
<path class="box" d="M0,0 H840 V620 H0 Z" data-id="background" style="fill:#e7efe2"/>
</g>
</g>
<g data-page="title" data-z="1" opacity="0.92">
<g data-element="title" role="group" aria-label="text title: BOTANICAL TERRARIUM">
<text class="free-text" x="325" y="49" font-size="16" font-weight="700" textLength="190" lengthAdjust="spacingAndGlyphs" style="fill:#3f665c" xml:space="preserve">BOTANICAL TERRARIUM</text>
</g>
</g>
<g data-page="glass" data-z="2" opacity="0.92">
<g data-element="glass-ink" role="group" aria-label="path glass-ink">
<g data-id="glass-ink" data-kind="path" data-role="artwork" data-paint="cells"><rect x="420" y="170" width="5" height="5" fill="#d5e6e1"/><rect x="380" y="175" width="85" height="5" fill="#d5e6e1"/><rect x="360" y="180" width="125" height="5" fill="#d5e6e1"/><rect x="350" y="185" width="145" height="5" fill="#d5e6e1"/><rect x="340" y="190" width="165" height="5" fill="#d5e6e1"/><rect x="330" y="195" width="185" height="5" fill="#d5e6e1"/><rect x="320" y="200" width="205" height="5" fill="#d5e6e1"/><rect x="315" y="205" width="215" height="5" fill="#d5e6e1"/><rect x="310" y="210" width="225" height="5" fill="#d5e6e1"/><rect x="300" y="215" width="245" height="5" fill="#d5e6e1"/><rect x="295" y="220" width="255" height="5" fill="#d5e6e1"/><rect x="290" y="225" width="265" height="5" fill="#d5e6e1"/><rect x="285" y="230" width="275" height="5" fill="#d5e6e1"/><rect x="280" y="235" width="285" height="5" fill="#d5e6e1"/><rect x="280" y="240" width="285" height="5" fill="#d5e6e1"/><rect x="275" y="245" width="295" height="5" fill="#d5e6e1"/><rect x="270" y="250" width="305" height="5" fill="#d5e6e1"/><rect x="265" y="255" width="315" height="5" fill="#d5e6e1"/><rect x="265" y="260" width="315" height="5" fill="#d5e6e1"/><rect x="260" y="265" width="325" height="5" fill="#d5e6e1"/><rect x="260" y="270" width="325" height="5" fill="#d5e6e1"/><rect x="255" y="275" width="335" height="5" fill="#d5e6e1"/><rect x="255" y="280" width="335" height="5" fill="#d5e6e1"/><rect x="250" y="285" width="345" height="5" fill="#d5e6e1"/><rect x="250" y="290" width="345" height="5" fill="#d5e6e1"/><rect x="245" y="295" width="355" height="5" fill="#d5e6e1"/><rect x="245" y="300" width="355" height="5" fill="#d5e6e1"/><rect x="245" y="305" width="355" height="5" fill="#d5e6e1"/><rect x="245" y="310" width="355" height="5" fill="#d5e6e1"/><rect x="240" y="315" width="365" height="5" fill="#d5e6e1"/><rect x="240" y="320" width="365" height="5" fill="#d5e6e1"/><rect x="240" y="325" width="365" height="5" fill="#d5e6e1"/><rect x="240" y="330" width="365" height="5" fill="#d5e6e1"/><rect x="240" y="335" width="365" height="5" fill="#d5e6e1"/><rect x="240" y="340" width="365" height="5" fill="#d5e6e1"/><rect x="240" y="345" width="365" height="5" fill="#d5e6e1"/><rect x="240" y="350" width="365" height="5" fill="#d5e6e1"/><rect x="235" y="355" width="375" height="5" fill="#d5e6e1"/><rect x="240" y="360" width="365" height="5" fill="#d5e6e1"/><rect x="240" y="365" width="365" height="5" fill="#d5e6e1"/><rect x="240" y="370" width="365" height="5" fill="#d5e6e1"/><rect x="240" y="375" width="365" height="5" fill="#d5e6e1"/><rect x="240" y="380" width="365" height="5" fill="#d5e6e1"/><rect x="240" y="385" width="365" height="5" fill="#d5e6e1"/><rect x="240" y="390" width="365" height="5" fill="#d5e6e1"/><rect x="240" y="395" width="365" height="5" fill="#d5e6e1"/><rect x="245" y="400" width="355" height="5" fill="#d5e6e1"/><rect x="245" y="405" width="355" height="5" fill="#d5e6e1"/><rect x="245" y="410" width="355" height="5" fill="#d5e6e1"/><rect x="245" y="415" width="355" height="5" fill="#d5e6e1"/><rect x="250" y="420" width="345" height="5" fill="#d5e6e1"/><rect x="250" y="425" width="345" height="5" fill="#d5e6e1"/><rect x="255" y="430" width="335" height="5" fill="#d5e6e1"/><rect x="255" y="435" width="335" height="5" fill="#d5e6e1"/><rect x="260" y="440" width="325" height="5" fill="#d5e6e1"/><rect x="260" y="445" width="325" height="5" fill="#d5e6e1"/><rect x="265" y="450" width="315" height="5" fill="#d5e6e1"/><rect x="265" y="455" width="315" height="5" fill="#d5e6e1"/><rect x="270" y="460" width="305" height="5" fill="#d5e6e1"/><rect x="275" y="465" width="295" height="5" fill="#d5e6e1"/><rect x="280" y="470" width="285" height="5" fill="#d5e6e1"/><rect x="280" y="475" width="285" height="5" fill="#d5e6e1"/><rect x="285" y="480" width="275" height="5" fill="#d5e6e1"/><rect x="290" y="485" width="265" height="5" fill="#d5e6e1"/><rect x="295" y="490" width="255" height="5" fill="#d5e6e1"/><rect x="300" y="495" width="245" height="5" fill="#d5e6e1"/><rect x="310" y="500" width="225" height="5" fill="#d5e6e1"/><rect x="315" y="505" width="215" height="5" fill="#d5e6e1"/><rect x="320" y="510" width="205" height="5" fill="#d5e6e1"/><rect x="330" y="515" width="185" height="5" fill="#d5e6e1"/><rect x="340" y="520" width="165" height="5" fill="#d5e6e1"/><rect x="350" y="525" width="145" height="5" fill="#d5e6e1"/><rect x="360" y="530" width="125" height="5" fill="#d5e6e1"/><rect x="380" y="535" width="85" height="5" fill="#d5e6e1"/><rect x="420" y="540" width="5" height="5" fill="#d5e6e1"/></g>
</g>
</g>
<g data-page="soil" data-z="3" opacity="0.92">
<g data-element="soil-ink" role="group" aria-label="path soil-ink">
<g data-id="soil-ink" data-kind="path" data-role="artwork" data-paint="cells"><rect x="300" y="410" width="235" height="5" fill="#89694e"/><rect x="295" y="415" width="245" height="5" fill="#89694e"/><rect x="290" y="420" width="255" height="5" fill="#89694e"/><rect x="285" y="425" width="265" height="5" fill="#89694e"/><rect x="280" y="430" width="275" height="5" fill="#89694e"/><rect x="275" y="435" width="290" height="5" fill="#89694e"/><rect x="270" y="440" width="300" height="5" fill="#89694e"/><rect x="265" y="445" width="310" height="5" fill="#89694e"/><rect x="260" y="450" width="320" height="5" fill="#89694e"/><rect x="255" y="455" width="330" height="5" fill="#89694e"/><rect x="255" y="460" width="325" height="5" fill="#89694e"/><rect x="260" y="465" width="320" height="5" fill="#89694e"/><rect x="260" y="470" width="320" height="5" fill="#89694e"/><rect x="260" y="475" width="315" height="5" fill="#89694e"/><rect x="265" y="480" width="310" height="5" fill="#89694e"/><rect x="265" y="485" width="310" height="5" fill="#89694e"/><rect x="265" y="490" width="305" height="5" fill="#89694e"/><rect x="270" y="495" width="300" height="5" fill="#89694e"/><rect x="270" y="500" width="300" height="5" fill="#89694e"/><rect x="270" y="505" width="295" height="5" fill="#89694e"/><rect x="275" y="510" width="290" height="5" fill="#89694e"/><rect x="275" y="515" width="290" height="5" fill="#89694e"/><rect x="275" y="520" width="285" height="5" fill="#89694e"/><rect x="280" y="525" width="280" height="5" fill="#89694e"/><rect x="280" y="530" width="280" height="5" fill="#89694e"/><rect x="280" y="535" width="275" height="5" fill="#89694e"/><rect x="285" y="540" width="270" height="5" fill="#89694e"/></g>
</g>
</g>
<g data-page="stems" data-z="4" opacity="0.92">
<g data-element="stems-ink" role="group" aria-label="path stems-ink">
<g data-id="stems-ink" data-kind="path" data-role="artwork"><polyline points="422,472 422,237" fill="none" stroke="#3f6d52" stroke-width="3" stroke-linecap="round" stroke-linejoin="round"/><polyline points="422,377 322,292" fill="none" stroke="#3f6d52" stroke-width="3" stroke-linecap="round" stroke-linejoin="round"/><polyline points="422,347 522,262" fill="none" stroke="#3f6d52" stroke-width="3" stroke-linecap="round" stroke-linejoin="round"/><polyline points="382,442 307,382" fill="none" stroke="#3f6d52" stroke-width="3" stroke-linecap="round" stroke-linejoin="round"/><polyline points="462,432 542,372" fill="none" stroke="#3f6d52" stroke-width="3" stroke-linecap="round" stroke-linejoin="round"/></g>
</g>
</g>
<g data-page="leaves" data-z="5" opacity="0.92">
<g data-element="leaves-ink" role="group" aria-label="path leaves-ink">
<g data-id="leaves-ink" data-kind="path" data-role="artwork" data-paint="cells"><rect x="420" y="195" width="5" height="5" fill="#6e9d69"/><rect x="400" y="200" width="45" height="5" fill="#6e9d69"/><rect x="395" y="205" width="55" height="5" fill="#6e9d69"/><rect x="390" y="210" width="65" height="5" fill="#6e9d69"/><rect x="385" y="215" width="75" height="5" fill="#6e9d69"/><rect x="380" y="220" width="85" height="5" fill="#6e9d69"/><rect x="380" y="225" width="85" height="5" fill="#6e9d69"/><rect x="505" y="225" width="5" height="5" fill="#6e9d69"/><rect x="380" y="230" width="85" height="5" fill="#6e9d69"/><rect x="485" y="230" width="45" height="5" fill="#6e9d69"/><rect x="380" y="235" width="85" height="5" fill="#6e9d69"/><rect x="480" y="235" width="55" height="5" fill="#6e9d69"/><rect x="375" y="240" width="95" height="5" fill="#6e9d69"/><rect x="475" y="240" width="65" height="5" fill="#6e9d69"/><rect x="380" y="245" width="85" height="5" fill="#6e9d69"/><rect x="470" y="245" width="75" height="5" fill="#6e9d69"/><rect x="380" y="250" width="170" height="5" fill="#6e9d69"/><rect x="340" y="255" width="5" height="5" fill="#6e9d69"/><rect x="380" y="255" width="170" height="5" fill="#6e9d69"/><rect x="325" y="260" width="35" height="5" fill="#6e9d69"/><rect x="380" y="260" width="170" height="5" fill="#6e9d69"/><rect x="315" y="265" width="55" height="5" fill="#6e9d69"/><rect x="385" y="265" width="75" height="5" fill="#6e9d69"/><rect x="465" y="265" width="85" height="5" fill="#6e9d69"/><rect x="310" y="270" width="65" height="5" fill="#6e9d69"/><rect x="390" y="270" width="65" height="5" fill="#6e9d69"/><rect x="460" y="270" width="95" height="5" fill="#6e9d69"/><rect x="310" y="275" width="65" height="5" fill="#6e9d69"/><rect x="395" y="275" width="55" height="5" fill="#6e9d69"/><rect x="465" y="275" width="85" height="5" fill="#6e9d69"/><rect x="305" y="280" width="75" height="5" fill="#6e9d69"/><rect x="400" y="280" width="45" height="5" fill="#6e9d69"/><rect x="465" y="280" width="85" height="5" fill="#6e9d69"/><rect x="305" y="285" width="75" height="5" fill="#6e9d69"/><rect x="420" y="285" width="5" height="5" fill="#6e9d69"/><rect x="465" y="285" width="85" height="5" fill="#6e9d69"/><rect x="305" y="290" width="75" height="5" fill="#6e9d69"/><rect x="465" y="290" width="85" height="5" fill="#6e9d69"/><rect x="300" y="295" width="85" height="5" fill="#6e9d69"/><rect x="470" y="295" width="75" height="5" fill="#6e9d69"/><rect x="305" y="300" width="75" height="5" fill="#6e9d69"/><rect x="475" y="300" width="65" height="5" fill="#6e9d69"/><rect x="305" y="305" width="75" height="5" fill="#6e9d69"/><rect x="480" y="305" width="55" height="5" fill="#6e9d69"/><rect x="305" y="310" width="75" height="5" fill="#6e9d69"/><rect x="470" y="310" width="5" height="5" fill="#6e9d69"/><rect x="485" y="310" width="45" height="5" fill="#6e9d69"/><rect x="310" y="315" width="65" height="5" fill="#6e9d69"/><rect x="455" y="315" width="35" height="5" fill="#6e9d69"/><rect x="505" y="315" width="5" height="5" fill="#6e9d69"/><rect x="310" y="320" width="70" height="5" fill="#6e9d69"/><rect x="450" y="320" width="45" height="5" fill="#6e9d69"/><rect x="315" y="325" width="80" height="5" fill="#6e9d69"/><rect x="445" y="325" width="55" height="5" fill="#6e9d69"/><rect x="540" y="325" width="5" height="5" fill="#6e9d69"/><rect x="325" y="330" width="80" height="5" fill="#6e9d69"/><rect x="440" y="330" width="65" height="5" fill="#6e9d69"/><rect x="525" y="330" width="35" height="5" fill="#6e9d69"/><rect x="340" y="335" width="70" height="5" fill="#6e9d69"/><rect x="440" y="335" width="65" height="5" fill="#6e9d69"/><rect x="515" y="335" width="55" height="5" fill="#6e9d69"/><rect x="345" y="340" width="65" height="5" fill="#6e9d69"/><rect x="440" y="340" width="65" height="5" fill="#6e9d69"/><rect x="510" y="340" width="65" height="5" fill="#6e9d69"/><rect x="300" y="345" width="5" height="5" fill="#6e9d69"/><rect x="340" y="345" width="75" height="5" fill="#6e9d69"/><rect x="435" y="345" width="140" height="5" fill="#6e9d69"/><rect x="285" y="350" width="35" height="5" fill="#6e9d69"/><rect x="340" y="350" width="75" height="5" fill="#6e9d69"/><rect x="440" y="350" width="140" height="5" fill="#6e9d69"/><rect x="280" y="355" width="45" height="5" fill="#6e9d69"/><rect x="340" y="355" width="75" height="5" fill="#6e9d69"/><rect x="440" y="355" width="140" height="5" fill="#6e9d69"/><rect x="275" y="360" width="55" height="5" fill="#6e9d69"/><rect x="335" y="360" width="85" height="5" fill="#6e9d69"/><rect x="440" y="360" width="140" height="5" fill="#6e9d69"/><rect x="270" y="365" width="65" height="5" fill="#6e9d69"/><rect x="340" y="365" width="75" height="5" fill="#6e9d69"/><rect x="445" y="365" width="140" height="5" fill="#6e9d69"/><rect x="270" y="370" width="65" height="5" fill="#6e9d69"/><rect x="340" y="370" width="75" height="5" fill="#6e9d69"/><rect x="450" y="370" width="45" height="5" fill="#6e9d69"/><rect x="505" y="370" width="75" height="5" fill="#6e9d69"/><rect x="270" y="375" width="65" height="5" fill="#6e9d69"/><rect x="340" y="375" width="75" height="5" fill="#6e9d69"/><rect x="455" y="375" width="35" height="5" fill="#6e9d69"/><rect x="505" y="375" width="75" height="5" fill="#6e9d69"/><rect x="265" y="380" width="75" height="5" fill="#6e9d69"/><rect x="345" y="380" width="65" height="5" fill="#6e9d69"/><rect x="470" y="380" width="5" height="5" fill="#6e9d69"/><rect x="505" y="380" width="75" height="5" fill="#6e9d69"/><rect x="270" y="385" width="65" height="5" fill="#6e9d69"/><rect x="345" y="385" width="65" height="5" fill="#6e9d69"/><rect x="510" y="385" width="65" height="5" fill="#6e9d69"/><rect x="270" y="390" width="65" height="5" fill="#6e9d69"/><rect x="350" y="390" width="55" height="5" fill="#6e9d69"/><rect x="510" y="390" width="65" height="5" fill="#6e9d69"/><rect x="270" y="395" width="65" height="5" fill="#6e9d69"/><rect x="360" y="395" width="35" height="5" fill="#6e9d69"/><rect x="515" y="395" width="55" height="5" fill="#6e9d69"/><rect x="275" y="400" width="55" height="5" fill="#6e9d69"/><rect x="375" y="400" width="5" height="5" fill="#6e9d69"/><rect x="525" y="400" width="35" height="5" fill="#6e9d69"/><rect x="280" y="405" width="45" height="5" fill="#6e9d69"/><rect x="540" y="405" width="5" height="5" fill="#6e9d69"/><rect x="285" y="410" width="35" height="5" fill="#6e9d69"/><rect x="300" y="415" width="5" height="5" fill="#6e9d69"/></g>
</g>
</g>
<g data-page="leaf-shadows" data-z="6" opacity="0.92">
<g data-element="leaf-shadows-ink" role="group" aria-label="path leaf-shadows-ink">
<g data-id="leaf-shadows-ink" data-kind="path" data-role="artwork" data-paint="cells"><rect x="440" y="235" width="5" height="5" fill="#4e7d59"/><rect x="425" y="240" width="35" height="5" fill="#4e7d59"/><rect x="420" y="245" width="45" height="5" fill="#4e7d59"/><rect x="420" y="250" width="45" height="5" fill="#4e7d59"/><rect x="420" y="255" width="45" height="5" fill="#4e7d59"/><rect x="415" y="260" width="55" height="5" fill="#4e7d59"/><rect x="420" y="265" width="45" height="5" fill="#4e7d59"/><rect x="525" y="265" width="5" height="5" fill="#4e7d59"/><rect x="420" y="270" width="45" height="5" fill="#4e7d59"/><rect x="510" y="270" width="35" height="5" fill="#4e7d59"/><rect x="420" y="275" width="45" height="5" fill="#4e7d59"/><rect x="505" y="275" width="45" height="5" fill="#4e7d59"/><rect x="425" y="280" width="35" height="5" fill="#4e7d59"/><rect x="505" y="280" width="45" height="5" fill="#4e7d59"/><rect x="440" y="285" width="5" height="5" fill="#4e7d59"/><rect x="505" y="285" width="45" height="5" fill="#4e7d59"/><rect x="500" y="290" width="55" height="5" fill="#4e7d59"/><rect x="360" y="295" width="5" height="5" fill="#4e7d59"/><rect x="505" y="295" width="45" height="5" fill="#4e7d59"/><rect x="350" y="300" width="25" height="5" fill="#4e7d59"/><rect x="505" y="300" width="45" height="5" fill="#4e7d59"/><rect x="345" y="305" width="35" height="5" fill="#4e7d59"/><rect x="505" y="305" width="45" height="5" fill="#4e7d59"/><rect x="345" y="310" width="35" height="5" fill="#4e7d59"/><rect x="510" y="310" width="35" height="5" fill="#4e7d59"/><rect x="340" y="315" width="45" height="5" fill="#4e7d59"/><rect x="525" y="315" width="5" height="5" fill="#4e7d59"/><rect x="345" y="320" width="35" height="5" fill="#4e7d59"/><rect x="345" y="325" width="35" height="5" fill="#4e7d59"/><rect x="350" y="330" width="25" height="5" fill="#4e7d59"/><rect x="360" y="335" width="5" height="5" fill="#4e7d59"/><rect x="555" y="365" width="5" height="5" fill="#4e7d59"/><rect x="545" y="370" width="25" height="5" fill="#4e7d59"/><rect x="315" y="375" width="5" height="5" fill="#4e7d59"/><rect x="540" y="375" width="35" height="5" fill="#4e7d59"/><rect x="305" y="380" width="25" height="5" fill="#4e7d59"/><rect x="540" y="380" width="35" height="5" fill="#4e7d59"/><rect x="300" y="385" width="35" height="5" fill="#4e7d59"/><rect x="535" y="385" width="45" height="5" fill="#4e7d59"/><rect x="300" y="390" width="35" height="5" fill="#4e7d59"/><rect x="540" y="390" width="35" height="5" fill="#4e7d59"/><rect x="295" y="395" width="45" height="5" fill="#4e7d59"/><rect x="540" y="395" width="35" height="5" fill="#4e7d59"/><rect x="300" y="400" width="35" height="5" fill="#4e7d59"/><rect x="545" y="400" width="25" height="5" fill="#4e7d59"/><rect x="300" y="405" width="35" height="5" fill="#4e7d59"/><rect x="555" y="405" width="5" height="5" fill="#4e7d59"/><rect x="305" y="410" width="25" height="5" fill="#4e7d59"/><rect x="315" y="415" width="5" height="5" fill="#4e7d59"/></g>
</g>
</g>
<g data-page="terrarium-base" data-z="7" opacity="0.92">
<g data-element="terrarium-base-ink" role="group" aria-label="path terrarium-base-ink">
<g data-id="terrarium-base-ink" data-kind="path" data-role="artwork" data-paint="cells"><rect x="295" y="535" width="250" height="5" fill="#7a5c4a"/><rect x="290" y="540" width="260" height="5" fill="#7a5c4a"/><rect x="285" y="545" width="270" height="5" fill="#7a5c4a"/><rect x="280" y="550" width="280" height="5" fill="#7a5c4a"/><rect x="275" y="555" width="290" height="5" fill="#7a5c4a"/><rect x="270" y="560" width="300" height="5" fill="#7a5c4a"/><rect x="265" y="565" width="310" height="5" fill="#7a5c4a"/><rect x="260" y="570" width="320" height="5" fill="#7a5c4a"/><rect x="255" y="575" width="330" height="5" fill="#7a5c4a"/></g>
</g>
</g>
<g data-page="glass-outline" data-z="8" opacity="0.92">
<g data-element="glass-outline-ink" role="group" aria-label="path glass-outline-ink">
<g data-id="glass-outline-ink" data-kind="path" data-role="artwork"><polyline points="227,357 227,327 232,322 232,307 237,302 242,277 267,242 267,237 302,202 307,202 332,182 352,177 357,172 367,172 372,167 387,167 392,162 452,162 457,167 472,167 477,172 502,177 537,202 542,202 577,237 577,242 597,267 602,287 607,292 607,302 612,307 612,322 617,327 617,387 612,392 612,407 607,412 602,437 577,472 577,477 542,512 537,512 512,532 492,537 487,542 477,542 472,547 457,547 452,552 392,552 387,547 372,547 367,542 342,537 307,512 302,512 267,477 267,472 247,447 242,427 237,422 237,412 232,407 232,392 227,387 227,362" fill="none" stroke="#48716b" stroke-width="3" stroke-linecap="round" stroke-linejoin="round"/></g>
</g>
</g>
<g data-page="glass-highlights" data-z="9" opacity="0.92">
<g data-element="glass-highlights-ink" role="group" aria-label="path glass-highlights-ink">
<g data-id="glass-highlights-ink" data-kind="path" data-role="artwork"><polyline points="287,272 262,317 252,377" fill="none" stroke="#f8fcf3" stroke-width="3" stroke-linecap="round" stroke-linejoin="round"/><polyline points="562,252 592,312" fill="none" stroke="#f8fcf3" stroke-width="3" stroke-linecap="round" stroke-linejoin="round"/></g>
</g>
</g>
<g data-page="pebbles" data-z="10" opacity="0.92">
<g data-element="pebbles-ink" role="group" aria-label="path pebbles-ink">
<g data-id="pebbles-ink" data-kind="path" data-role="artwork" data-paint="cells"><rect x="330" y="480" width="5" height="5" fill="#bca280"/><rect x="320" y="485" width="25" height="5" fill="#bca280"/><rect x="455" y="485" width="5" height="5" fill="#bca280"/><rect x="320" y="490" width="25" height="5" fill="#bca280"/><rect x="445" y="490" width="25" height="5" fill="#bca280"/><rect x="315" y="495" width="35" height="5" fill="#bca280"/><rect x="380" y="495" width="5" height="5" fill="#bca280"/><rect x="445" y="495" width="25" height="5" fill="#bca280"/><rect x="510" y="495" width="5" height="5" fill="#bca280"/><rect x="320" y="500" width="25" height="5" fill="#bca280"/><rect x="370" y="500" width="25" height="5" fill="#bca280"/><rect x="440" y="500" width="35" height="5" fill="#bca280"/><rect x="500" y="500" width="25" height="5" fill="#bca280"/><rect x="320" y="505" width="25" height="5" fill="#bca280"/><rect x="370" y="505" width="25" height="5" fill="#bca280"/><rect x="445" y="505" width="25" height="5" fill="#bca280"/><rect x="500" y="505" width="25" height="5" fill="#bca280"/><rect x="330" y="510" width="5" height="5" fill="#bca280"/><rect x="365" y="510" width="35" height="5" fill="#bca280"/><rect x="445" y="510" width="25" height="5" fill="#bca280"/><rect x="495" y="510" width="35" height="5" fill="#bca280"/><rect x="370" y="515" width="25" height="5" fill="#bca280"/><rect x="455" y="515" width="5" height="5" fill="#bca280"/><rect x="500" y="515" width="25" height="5" fill="#bca280"/><rect x="370" y="520" width="25" height="5" fill="#bca280"/><rect x="500" y="520" width="25" height="5" fill="#bca280"/><rect x="380" y="525" width="5" height="5" fill="#bca280"/><rect x="510" y="525" width="5" height="5" fill="#bca280"/></g>
</g>
</g>
</g>
</svg>