<svg xmlns="http://www.w3.org/2000/svg" width="370" height="400" viewBox="0 0 370 400" font-family="ui-monospace, SFMono-Regular, &quot;Cascadia Mono&quot;, Menlo, Consolas, monospace" role="img" aria-labelledby="tp-title tp-desc">
<title id="tp-title">Revision Session</title>
<desc id="tp-desc">9 diagram elements across 1 visible page(s)</desc>
<metadata>{"schema":3,"name":"Revision Session","view":null,"elements":9}</metadata>
<style>
  .bg { fill: #f4f3ef; }
  .grid { stroke: #dedbd3; stroke-width: 0.5; }
  .grid-major { stroke: #cbc7bd; stroke-width: 0.5; }
  .box { fill: #e9e7e1; stroke: #2b2a26; stroke-width: 1; }
  .box-label, .key-title, .key-label { fill: #2b2a26; }
  .stroke { fill: #2b2a26; }
  .hop { stroke: #2b2a26; }
  .free-text { fill: #6b6862; }
  .hit-S0 { fill: #8a5b56; opacity: 0.30; }
  .hit-S1 { fill: #96755c; opacity: 0.28; }
  .hit-S2 { fill: #87805a; opacity: 0.24; }
  .hit-S3 { fill: #4a6572; opacity: 0.20; }
  .dimmed { fill: url(#tp-stipple); }
  .dither-run { fill: #2b2a26; }
  .simplify-run { fill: #2b2a26; }
  @media (prefers-color-scheme: dark) {
    .bg { fill: #1a1917; }
    .grid { stroke: #2e2c28; }
    .grid-major { stroke: #3d3a35; }
    .box { fill: #232220; stroke: #dedbd3; }
    .box-label { fill: #dedbd3; }
    .free-text { fill: #9a968d; }
    .stroke { fill: #dedbd3; }
    .hop { stroke: #dedbd3; }
  }

</style>
<defs>

  <!-- Grey earned by pattern rather than assumed. The stipple is drawn at the
       5px quadrant so a dimmed element is made of the same units as every
       other mark on the page. -->
  <pattern id="tp-stipple" width="10" height="10" patternUnits="userSpaceOnUse">
    <rect width="5" height="5" fill="#2b2a26"/>
    <rect x="5" y="5" width="5" height="5" fill="#2b2a26"/>
  </pattern>
</defs>
<rect class="bg" x="0" y="0" width="370" height="400"/>
<g transform="translate(0,0)"><line class="grid" x1="-20" y1="-20" x2="-20" y2="420"/><line class="grid" x1="-10" y1="-20" x2="-10" y2="420"/><line class="grid-major" x1="0" y1="-20" x2="0" y2="420"/><line class="grid" x1="10" y1="-20" x2="10" y2="420"/><line class="grid" x1="20" y1="-20" x2="20" y2="420"/><line class="grid" x1="30" y1="-20" x2="30" y2="420"/><line class="grid" x1="40" y1="-20" x2="40" y2="420"/><line class="grid" x1="50" y1="-20" x2="50" y2="420"/><line class="grid" x1="60" y1="-20" x2="60" y2="420"/><line class="grid" x1="70" y1="-20" x2="70" y2="420"/><line class="grid" x1="80" y1="-20" x2="80" y2="420"/><line class="grid" x1="90" y1="-20" x2="90" y2="420"/><line class="grid-major" x1="100" y1="-20" x2="100" y2="420"/><line class="grid" x1="110" y1="-20" x2="110" y2="420"/><line class="grid" x1="120" y1="-20" x2="120" y2="420"/><line class="grid" x1="130" y1="-20" x2="130" y2="420"/><line class="grid" x1="140" y1="-20" x2="140" y2="420"/><line class="grid" x1="150" y1="-20" x2="150" y2="420"/><line class="grid" x1="160" y1="-20" x2="160" y2="420"/><line class="grid" x1="170" y1="-20" x2="170" y2="420"/><line class="grid" x1="180" y1="-20" x2="180" y2="420"/><line class="grid" x1="190" y1="-20" x2="190" y2="420"/><line class="grid-major" x1="200" y1="-20" x2="200" y2="420"/><line class="grid" x1="210" y1="-20" x2="210" y2="420"/><line class="grid" x1="220" y1="-20" x2="220" y2="420"/><line class="grid" x1="230" y1="-20" x2="230" y2="420"/><line class="grid" x1="240" y1="-20" x2="240" y2="420"/><line class="grid" x1="250" y1="-20" x2="250" y2="420"/><line class="grid" x1="260" y1="-20" x2="260" y2="420"/><line class="grid" x1="270" y1="-20" x2="270" y2="420"/><line class="grid" x1="280" y1="-20" x2="280" y2="420"/><line class="grid" x1="290" y1="-20" x2="290" y2="420"/><line class="grid-major" x1="300" y1="-20" x2="300" y2="420"/><line class="grid" x1="310" y1="-20" x2="310" y2="420"/><line class="grid" x1="320" y1="-20" x2="320" y2="420"/><line class="grid" x1="330" y1="-20" x2="330" y2="420"/><line class="grid" x1="340" y1="-20" x2="340" y2="420"/><line class="grid" x1="350" y1="-20" x2="350" y2="420"/><line class="grid" x1="360" y1="-20" x2="360" y2="420"/><line class="grid" x1="370" y1="-20" x2="370" y2="420"/><line class="grid" x1="380" y1="-20" x2="380" y2="420"/><line class="grid" x1="390" y1="-20" x2="390" y2="420"/><line class="grid" x1="-20" y1="-20" x2="390" y2="-20"/><line class="grid" x1="-20" y1="-10" x2="390" y2="-10"/><line class="grid-major" x1="-20" y1="0" x2="390" y2="0"/><line class="grid" x1="-20" y1="10" x2="390" y2="10"/><line class="grid" x1="-20" y1="20" x2="390" y2="20"/><line class="grid" x1="-20" y1="30" x2="390" y2="30"/><line class="grid" x1="-20" y1="40" x2="390" y2="40"/><line class="grid" x1="-20" y1="50" x2="390" y2="50"/><line class="grid" x1="-20" y1="60" x2="390" y2="60"/><line class="grid" x1="-20" y1="70" x2="390" y2="70"/><line class="grid" x1="-20" y1="80" x2="390" y2="80"/><line class="grid" x1="-20" y1="90" x2="390" y2="90"/><line class="grid-major" x1="-20" y1="100" x2="390" y2="100"/><line class="grid" x1="-20" y1="110" x2="390" y2="110"/><line class="grid" x1="-20" y1="120" x2="390" y2="120"/><line class="grid" x1="-20" y1="130" x2="390" y2="130"/><line class="grid" x1="-20" y1="140" x2="390" y2="140"/><line class="grid" x1="-20" y1="150" x2="390" y2="150"/><line class="grid" x1="-20" y1="160" x2="390" y2="160"/><line class="grid" x1="-20" y1="170" x2="390" y2="170"/><line class="grid" x1="-20" y1="180" x2="390" y2="180"/><line class="grid" x1="-20" y1="190" x2="390" y2="190"/><line class="grid-major" x1="-20" y1="200" x2="390" y2="200"/><line class="grid" x1="-20" y1="210" x2="390" y2="210"/><line class="grid" x1="-20" y1="220" x2="390" y2="220"/><line class="grid" x1="-20" y1="230" x2="390" y2="230"/><line class="grid" x1="-20" y1="240" x2="390" y2="240"/><line class="grid" x1="-20" y1="250" x2="390" y2="250"/><line class="grid" x1="-20" y1="260" x2="390" y2="260"/><line class="grid" x1="-20" y1="270" x2="390" y2="270"/><line class="grid" x1="-20" y1="280" x2="390" y2="280"/><line class="grid" x1="-20" y1="290" x2="390" y2="290"/><line class="grid-major" x1="-20" y1="300" x2="390" y2="300"/><line class="grid" x1="-20" y1="310" x2="390" y2="310"/><line class="grid" x1="-20" y1="320" x2="390" y2="320"/><line class="grid" x1="-20" y1="330" x2="390" y2="330"/><line class="grid" x1="-20" y1="340" x2="390" y2="340"/><line class="grid" x1="-20" y1="350" x2="390" y2="350"/><line class="grid" x1="-20" y1="360" x2="390" y2="360"/><line class="grid" x1="-20" y1="370" x2="390" y2="370"/><line class="grid" x1="-20" y1="380" x2="390" y2="380"/><line class="grid" x1="-20" y1="390" x2="390" y2="390"/><line class="grid-major" x1="-20" y1="400" x2="390" y2="400"/><line class="grid" x1="-20" y1="410" x2="390" y2="410"/><line class="grid" x1="-20" y1="420" x2="390" y2="420"/></g>
<g transform="translate(0,0)">
<g data-page="base" data-z="0" opacity="1">
<g data-element="intake" role="group" aria-label="box intake: Intake">
<path class="box" d="M20,20 H140 V50 H20 Z" data-id="intake"/><text class="box-label" x="62" y="39" font-size="10" textLength="36" lengthAdjust="spacingAndGlyphs" xml:space="preserve">Intake</text>
</g>
<g data-element="triage" role="group" aria-label="box triage: Triage">
<path class="box" d="M65,110 L110,135 L65,160 L20,135 Z" data-id="triage" style="fill:#fef3e2"/><text class="box-label" x="47" y="139" font-size="10" textLength="36" lengthAdjust="spacingAndGlyphs" xml:space="preserve">Triage</text>
</g>
<g data-element="work-order" role="group" aria-label="box work-order: Repair Work Order">
<path class="box" d="M20,250 H140 V280 H20 Z" data-id="work-order"/><text class="box-label" x="29" y="269" font-size="10" textLength="102" lengthAdjust="spacingAndGlyphs" xml:space="preserve">Repair Work Order</text>
</g>
<g data-element="quote" role="group" aria-label="box quote: Quote Only">
<path class="box" d="M230,250 H350 V280 H230 Z" data-id="quote"/><text class="box-label" x="260" y="269" font-size="10" textLength="60" lengthAdjust="spacingAndGlyphs" xml:space="preserve">Quote Only</text>
</g>
<g data-element="e1_intake_triage" role="group" aria-label="path e1_intake_triage">
<g data-id="e1_intake_triage" data-kind="path"><rect class="stroke" x="80" y="50" width="5" height="5"/><rect class="stroke" x="80" y="55" width="5" height="5"/><rect class="stroke" x="80" y="60" width="5" height="5"/><rect class="stroke" x="80" y="65" width="5" height="5"/><rect class="stroke" x="80" y="70" width="5" height="5"/><rect class="stroke" x="80" y="75" width="5" height="5"/><rect class="stroke" x="80" y="80" width="5" height="5"/><rect class="stroke" x="80" y="85" width="5" height="5"/><rect class="stroke" x="80" y="90" width="5" height="5"/><rect class="stroke" x="80" y="95" width="5" height="5"/><rect class="stroke" x="80" y="100" width="5" height="5"/><path class="stroke" d="M80,105 L82.5,110 L85,105 Z"/></g>
</g>
<g data-element="e2_triage_repair" role="group" aria-label="path e2_triage_repair">
<g data-id="e2_triage_repair" data-kind="path"><rect class="stroke" x="65" y="160" width="5" height="5"/><rect class="stroke" x="65" y="165" width="5" height="5"/><rect class="stroke" x="65" y="170" width="5" height="5"/><rect class="stroke" x="65" y="175" width="5" height="5"/><rect class="stroke" x="65" y="180" width="5" height="5"/><rect class="stroke" x="65" y="185" width="5" height="5"/><rect class="stroke" x="65" y="190" width="5" height="5"/><rect class="stroke" x="65" y="195" width="5" height="5"/><rect class="stroke" x="65" y="200" width="5" height="5"/><rect class="stroke" x="65" y="205" width="5" height="5"/><rect class="stroke" x="65" y="210" width="5" height="5"/><rect class="stroke" x="65" y="215" width="5" height="5"/><rect class="stroke" x="65" y="220" width="5" height="5"/><rect class="stroke" x="65" y="225" width="5" height="5"/><rect class="stroke" x="65" y="230" width="5" height="5"/><rect class="stroke" x="65" y="235" width="5" height="5"/><rect class="stroke" x="65" y="240" width="5" height="5"/><path class="stroke" d="M65,245 L67.5,250 L70,245 Z"/></g>
</g>
<g data-element="e3_triage_quote" role="group" aria-label="path e3_triage_quote">
<g data-id="e3_triage_quote" data-kind="path"><rect class="stroke" x="105" y="135" width="5" height="5"/><rect class="stroke" x="110" y="135" width="5" height="5"/><rect class="stroke" x="115" y="135" width="5" height="5"/><rect class="stroke" x="120" y="135" width="5" height="5"/><rect class="stroke" x="125" y="135" width="5" height="5"/><rect class="stroke" x="130" y="135" width="5" height="5"/><rect class="stroke" x="135" y="135" width="5" height="5"/><rect class="stroke" x="140" y="135" width="5" height="5"/><rect class="stroke" x="145" y="135" width="5" height="5"/><rect class="stroke" x="150" y="135" width="5" height="5"/><rect class="stroke" x="155" y="135" width="5" height="5"/><rect class="stroke" x="160" y="135" width="5" height="5"/><rect class="stroke" x="165" y="135" width="5" height="5"/><rect class="stroke" x="170" y="135" width="5" height="5"/><rect class="stroke" x="175" y="135" width="5" height="5"/><rect class="stroke" x="180" y="135" width="5" height="5"/><rect class="stroke" x="185" y="135" width="5" height="5"/><rect class="stroke" x="190" y="135" width="5" height="5"/><rect class="stroke" x="195" y="135" width="5" height="5"/><rect class="stroke" x="200" y="135" width="5" height="5"/><rect class="stroke" x="205" y="135" width="5" height="5"/><rect class="stroke" x="210" y="135" width="5" height="5"/><rect class="stroke" x="215" y="135" width="5" height="5"/><rect class="stroke" x="220" y="135" width="5" height="5"/><rect class="stroke" x="225" y="135" width="5" height="5"/><rect class="stroke" x="230" y="135" width="5" height="5"/><rect class="stroke" x="235" y="135" width="5" height="5"/><rect class="stroke" x="240" y="135" width="5" height="5"/><rect class="stroke" x="245" y="135" width="5" height="5"/><rect class="stroke" x="250" y="135" width="5" height="5"/><rect class="stroke" x="255" y="135" width="5" height="5"/><rect class="stroke" x="260" y="135" width="5" height="5"/><rect class="stroke" x="265" y="135" width="5" height="5"/><rect class="stroke" x="270" y="135" width="5" height="5"/><rect class="stroke" x="275" y="135" width="5" height="5"/><rect class="stroke" x="280" y="135" width="5" height="5"/><rect class="stroke" x="285" y="135" width="5" height="5"/><rect class="stroke" x="290" y="135" width="5" height="5"/><rect class="stroke" x="295" y="135" width="5" height="5"/><rect class="stroke" x="295" y="140" width="5" height="5"/><rect class="stroke" x="295" y="145" width="5" height="5"/><rect class="stroke" x="295" y="150" width="5" height="5"/><rect class="stroke" x="295" y="155" width="5" height="5"/><rect class="stroke" x="295" y="160" width="5" height="5"/><rect class="stroke" x="295" y="165" width="5" height="5"/><rect class="stroke" x="295" y="170" width="5" height="5"/><rect class="stroke" x="295" y="175" width="5" height="5"/><rect class="stroke" x="295" y="180" width="5" height="5"/><rect class="stroke" x="295" y="185" width="5" height="5"/><rect class="stroke" x="295" y="190" width="5" height="5"/><rect class="stroke" x="295" y="195" width="5" height="5"/><rect class="stroke" x="295" y="200" width="5" height="5"/><rect class="stroke" x="295" y="205" width="5" height="5"/><rect class="stroke" x="295" y="210" width="5" height="5"/><rect class="stroke" x="295" y="215" width="5" height="5"/><rect class="stroke" x="295" y="220" width="5" height="5"/><rect class="stroke" x="295" y="225" width="5" height="5"/><rect class="stroke" x="295" y="230" width="5" height="5"/><rect class="stroke" x="295" y="235" width="5" height="5"/><rect class="stroke" x="295" y="240" width="5" height="5"/><path class="stroke" d="M295,245 L297.5,250 L300,245 Z"/></g>
</g>
<g data-element="archive" role="group" aria-label="box archive: Archive">
<path class="box" d="M235,350 H345 A5,5 0 0 1 350,355 V375 A5,5 0 0 1 345,380 H235 A5,5 0 0 1 230,375 V355 A5,5 0 0 1 235,350 Z" data-id="archive"/><text class="box-label" x="235" y="369" font-size="10" textLength="42" lengthAdjust="spacingAndGlyphs" xml:space="preserve">Archive</text>
</g>
<g data-element="quote-onward" role="group" aria-label="path quote-onward">
<g data-id="quote-onward" data-kind="path"><rect class="stroke" x="290" y="280" width="5" height="5"/><rect class="stroke" x="290" y="285" width="5" height="5"/><rect class="stroke" x="290" y="290" width="5" height="5"/><rect class="stroke" x="290" y="295" width="5" height="5"/><rect class="stroke" x="290" y="300" width="5" height="5"/><rect class="stroke" x="290" y="305" width="5" height="5"/><rect class="stroke" x="290" y="310" width="5" height="5"/><rect class="stroke" x="290" y="315" width="5" height="5"/><rect class="stroke" x="290" y="320" width="5" height="5"/><rect class="stroke" x="290" y="325" width="5" height="5"/><rect class="stroke" x="290" y="330" width="5" height="5"/><rect class="stroke" x="290" y="335" width="5" height="5"/><rect class="stroke" x="290" y="340" width="5" height="5"/><path class="stroke" d="M290,345 L292.5,350 L295,345 Z"/></g>
</g>
</g>
</g>
</svg>